<svg xmlns="http://www.w3.org/2000/svg" xmlns:xlink="http://www.w3.org/1999/xlink" width="73" height="59" viewBox="0 0 73 59">
  <defs>
    <clipPath id="clip-path">
      <rect id="Rectangle_2140" data-name="Rectangle 2140" width="73" height="59" transform="translate(51 221)" fill="#bbbaba"/>
    </clipPath>
  </defs>
  <g id="Medicines" transform="translate(-51 -221)" clip-path="url(#clip-path)">
    <g id="medicine" transform="translate(55.675 221)">
      <path id="Path_8839" data-name="Path 8839" d="M31.571,59a4.141,4.141,0,0,0,4.015-3.127,12.821,12.821,0,0,1,.125-19.5v-16.3a4.14,4.14,0,0,0-4.14-4.139H4.139A4.139,4.139,0,0,0,0,20.083V54.861A4.139,4.139,0,0,0,4.139,59" fill="#5b9ed6"/>
      <path id="Path_8840" data-name="Path 8840" d="M31.571,15.943H28.5a4.14,4.14,0,0,1,4.14,4.139V34.29A2.731,2.731,0,0,1,32,36.052a15.651,15.651,0,0,0-2.887,5.11,12.851,12.851,0,0,0,.009,10.055l.013.039a2.73,2.73,0,0,1-2.571,3.629H4.139A4.14,4.14,0,0,1,0,50.745v4.116A4.14,4.14,0,0,0,4.14,59H31.571a4.131,4.131,0,0,0,3.294-1.634l.014-.018c.03-.04.06-.082.089-.123l.023-.034c.025-.037.051-.075.075-.113l.027-.043q.033-.053.064-.108l.029-.05c.019-.034.038-.069.056-.1l.029-.056c.017-.034.034-.068.05-.1l.028-.06c.016-.034.03-.069.045-.1l.026-.063c.014-.035.027-.071.04-.106l.023-.063c.014-.038.026-.077.038-.116l.018-.055c.017-.058.033-.116.048-.174q-.21-.182-.411-.373l-.048-.045q-.194-.185-.38-.378l-.051-.054q-.187-.2-.366-.4l-.035-.041c-.124-.143-.245-.287-.363-.436a12.82,12.82,0,0,1,1.779-17.768v-16.3a4.139,4.139,0,0,0-4.139-4.139Zm0,0" fill="#4c83b3"/>
      <path id="Path_8841" data-name="Path 8841" d="M8.073,12.09H27.638v3.853H8.073Zm0,0" fill="#005d8d"/>
      <path id="Path_8842" data-name="Path 8842" d="M22.607,12.09h5.031v3.853H22.607Zm0,0" fill="#005d8d"/>
      <path id="Path_8843" data-name="Path 8843" d="M4.006,6.551v3.985A1.555,1.555,0,0,0,5.561,12.09H30.15A1.554,1.554,0,0,0,31.7,10.536V2.565A1.554,1.554,0,0,0,30.15,1.011H5.561A1.555,1.555,0,0,0,4.006,2.565Zm0,0" fill="#5b9ed6"/>
      <path id="Path_8844" data-name="Path 8844" d="M24.727,1.011V12.09H30.15A1.554,1.554,0,0,0,31.7,10.536V2.565A1.554,1.554,0,0,0,30.15,1.011Zm0,0" fill="#4c83b3"/>
      <path id="Path_8845" data-name="Path 8845" d="M28.593,37.472A10.737,10.737,0,1,1,17.855,26.734,10.737,10.737,0,0,1,28.593,37.472Zm0,0" fill="#da0010"/>
      <path id="Path_8846" data-name="Path 8846" d="M23.941,28.627A10.736,10.736,0,0,1,9.01,43.557a10.737,10.737,0,1,0,14.931-14.93Zm0,0" fill="#da0010"/>
      <path id="Path_8847" data-name="Path 8847" d="M56.8,46.178A12.822,12.822,0,1,1,43.977,33.356,12.822,12.822,0,0,1,56.8,46.178Zm0,0" fill="#fcda55"/>
      <path id="Path_8848" data-name="Path 8848" d="M51.727,35.964A12.822,12.822,0,0,1,33.763,53.928,12.822,12.822,0,1,0,51.727,35.964Zm0,0" fill="#d9bc4a"/>
      <path id="Path_8849" data-name="Path 8849" d="M35.174,55.375a12.929,12.929,0,0,0,1.567,1.165L54.427,38.853a12.836,12.836,0,0,0-1.165-1.567.989.989,0,0,0-.222.166l-17.7,17.7a.978.978,0,0,0-.166.222Zm0,0" fill="#d9bc4a"/>
      <path id="Path_8850" data-name="Path 8850" d="M52.007,17.428c-4.584,1.109-8.173,4.874-8.173,9.753v6.177l.144,0a12.821,12.821,0,0,1,9.157,21.8c.2.013.4.02.607.02a9.908,9.908,0,0,0,9.908-9.908V27.181a9.909,9.909,0,0,0-8.173-9.753,13.1,13.1,0,0,0-3.47,0Zm0,0" fill="#5b9ed6"/>
      <path id="Path_8851" data-name="Path 8851" d="M55.476,17.428a11.819,11.819,0,0,0-3.47,0l-.1.021a9.908,9.908,0,0,1,8.068,9.733V45.264a9.908,9.908,0,0,1-6.2,9.187q-.306.362-.637.7c.2.013.4.02.607.02a9.908,9.908,0,0,0,9.908-9.908V27.181a9.909,9.909,0,0,0-8.173-9.753Zm0,0" fill="#4c83b3"/>
      <path id="Path_8852" data-name="Path 8852" d="M52.057,36.223a12.82,12.82,0,0,1,1.077,18.929c.2.012.4.02.607.02a9.908,9.908,0,0,0,9.908-9.908V36.223Zm0,0" fill="#da0010"/>
      <path id="Path_8853" data-name="Path 8853" d="M59.97,45.264a9.909,9.909,0,0,1-6.2,9.187c-.095.112-.191.222-.29.331l-.051.055c-.1.106-.2.212-.3.314.2.013.4.02.607.02a9.908,9.908,0,0,0,9.908-9.908V36.223H59.97Zm0,0" fill="#b4000d"/>
      <path id="Path_8854" data-name="Path 8854" d="M22.789,36.486H18.841V32.538a.986.986,0,1,0-1.971,0v3.948H12.922a.986.986,0,1,0,0,1.971H16.87v3.948a.986.986,0,1,0,1.971,0V38.457h3.948a.986.986,0,1,0,0-1.971Zm0,0" fill="#fff"/>
      <g id="Group_2740" data-name="Group 2740">
        <path id="Path_8855" data-name="Path 8855" d="M10.8,13.051a.986.986,0,0,1-.986-.986V.986a.986.986,0,1,1,1.972,0V12.065A.986.986,0,0,1,10.8,13.051Zm0,0" fill="#3570a4"/>
        <path id="Path_8856" data-name="Path 8856" d="M17.87,13.051a.986.986,0,0,1-.986-.986V.986a.986.986,0,1,1,1.971,0V12.065A.985.985,0,0,1,17.87,13.051Zm0,0" fill="#3570a4"/>
        <path id="Path_8857" data-name="Path 8857" d="M24.946,13.051a.986.986,0,0,1-.986-.986V.986a.986.986,0,1,1,1.971,0V12.065A.985.985,0,0,1,24.946,13.051Zm0,0" fill="#3570a4"/>
      </g>
      <path id="Path_8858" data-name="Path 8858" d="M35,56.133a.986.986,0,0,1-.7-1.683L52,36.749A.986.986,0,1,1,53.4,38.143l-17.7,17.7a.984.984,0,0,1-.7.289Zm0,0" fill="#e69326"/>
    </g>
  </g>
</svg>
