<svg xmlns="http://www.w3.org/2000/svg" width="173.5" height="275.365" viewBox="0 0 173.5 275.365">
  <g id="Group_2" data-name="Group 2" transform="translate(-24 -130.962)">
    <g id="Group_1" data-name="Group 1" transform="translate(119.41 373.207) rotate(123.007)">
      <path id="Path_25" data-name="Path 25" d="M6.346,11.867c7.22.993,13.73-10.533,21.174-11.715C38.115-1.527,41.259,11,38.559,20.022c-2.346,7.844-8.442,10.017-15.545,13-10.9,4.569-7.058,1.517-14,5.9C-7.363,28.044,2.91,4.534,6.346,11.867Z" transform="translate(0 0)" fill="#005d8d"/>
      <path id="Path_26" data-name="Path 26" d="M7.109,0c-10-.018-8.83,23.569-.341,24.856C17.128,26.416,18.9.7,7.109,0Z" transform="translate(22.98 1.448)" fill="#258fb2" opacity="0.69"/>
      <path id="Path_72" data-name="Path 72" d="M7.829.015C4.432-.259,1.7,3.167.736,6.106A17.928,17.928,0,0,0,2.393,20.14.184.184,0,0,0,2.725,20C1.246,13.414-.711,2.855,7.844.183A.081.081,0,0,0,7.83.024Z" transform="translate(21.05 0.625)" fill="#92ceff" opacity="0.77"/>
      <path id="Path_73" data-name="Path 73" d="M3.941.009C3.93-.008,3.9,0,3.9.024,5.707,5.863,2.883,12.21.027,17.092a.139.139,0,1,0,.223.166,17.76,17.76,0,0,0,4.47-9.829C5.187,5.077,5.484,2.037,3.941.009Z" transform="translate(34.335 8.573)" fill="#92ceff" opacity="0.77"/>
      <path id="Path_122" data-name="Path 122" d="M12.815,3.627C10.57,1.3,6.883-1.546,3.771,1-.189,4.249-.762,11.576.814,16.1c.071.207.419.254.467,0C2.063,11.975,1.007,7.839,3.32,4,4.626,1.831,6.224.723,8.707,1.82c1.346.595,2.56,1.463,3.9,2.069a.166.166,0,0,0,.2-.262Z" transform="translate(23.081 2.581)" fill="#004056" opacity="0.34"/>
      <path id="Path_32" data-name="Path 32" d="M14.547,0A54.651,54.651,0,0,1,5.378,7.334C1.892,9.758-.514,9.741.094,14.665c.332,2.625,1.529,8.486,5.4,5.522,1.291-.993,1.854-2.912,2.9-4.111,1.435-1.655,4.059-2.153,5.3-3.563,1.135-1.3.677-3.944.6-5.565A28.972,28.972,0,0,1,14.543,0Z" transform="translate(7 4.062)" fill="#92ceff" opacity="0.43"/>
    </g>
    <path id="Path_1" data-name="Path 1" d="M117.943,85.358c11.091,2.554,27.647-4.138,29.709-4.282s9.232,9.894,6.366,12.757S124.29,98.3,117.943,85.358Z" transform="translate(39.496 151.476)" fill="#cc0500"/>
    <path id="Path_2" data-name="Path 2" d="M121.659,90.143c10.253,5.959,27.647,4.5,29.924,2.224a3.449,3.449,0,0,0,.482-3.3c-3.757.967-8.011,2.741-9.674,2.7-4.956-.112-8.255-4.522-11.182-8.442-.932.189-1.88.364-2.839.518Z" transform="translate(41.933 152.948)" fill="#a12252" opacity="0.36"/>
    <path id="Path_3" data-name="Path 3" d="M123.076,81.711c-4.008-4.47-13.951-5.2-19.384-13.793-2.841-4.486-5.04-13.188-7.642-17.259-4.248-6.631-11.143-2.164-11.717,3.9-.533,5.528,8.381,24.054,11.6,28.588C100.885,90.132,114.328,90.82,123.076,81.711Z" transform="translate(17.45 129.382)" fill="#0a5874"/>
    <path id="Path_4" data-name="Path 4" d="M108.237,86.365a16.535,16.535,0,0,0,5.221-11.4c-4.007-1.909-8.407-4.256-11.423-9.022-2.483-3.937-4.489-11.119-6.7-15.561a6.878,6.878,0,0,0-1.4,2.7c-1.307,4.922,2.4,9.767,3.945,14.017C99,70.213,99.959,78.14,94,76.925c-3.32-.677-7.168-10.232-7.168-10.232a99.362,99.362,0,0,0,7.45,14.485C97.045,85.075,102.468,86.994,108.237,86.365Z" transform="translate(19.102 131.357)" fill="#005d8d" opacity="0.3"/>
    <path id="Path_5" data-name="Path 5" d="M50.885,113.423c-7.126,7.885-6.19,28.571-4.12,38.623,2.547,12.379,11.447,25.933,18.541,36.45a166.264,166.264,0,0,0,63.206,55.823c10.6,5.5,25.718,10.328,37.95,7.979,13.26-2.545,24.214-19.517,29.324-31.888,13.8-33.371,13.174-63.254-2.373-95.792-10.1-21.148-23-30.105-44.2-39.843C132.394,77.05,106.184,74.3,88.7,80.027A66.523,66.523,0,0,0,66.579,91.861C61.322,96.2,57.31,103.254,50.885,113.423Z" transform="translate(-8.141 148.786)" fill="#ff5252"/>
    <path id="Path_6" data-name="Path 6" d="M177.106,124.614c-10.1-21.148-23-30.105-44.2-39.843C116.083,77.046,89.878,74.3,72.4,80.023c-.384.126-.762.267-1.144.4a31.235,31.235,0,0,0-.129,15.9c5.028,18.26,25.494,19.2,38.878,27.1,32.514,19.2,51.069,64.1,36.55,99.913-7.021,17.316-18.288,21.386-32.1,22.107,10.414,5.008,24.309,9.044,35.7,6.851,13.26-2.545,24.214-19.517,29.324-31.888C193.277,187.033,192.655,157.146,177.106,124.614Z" transform="translate(8.174 148.784)" fill="#a12252" opacity="0.36"/>
    <path id="Path_7" data-name="Path 7" d="M96.966,86.526c-.58,19.909,35.593,18.35,46.828,24,3.563,1.791,14.626,10.913,11.472,1.466-3.86-11.562-18.307-23.21-36.951-26.123Z" transform="translate(25.742 154.622)" fill="#a12252" opacity="0.36"/>
    <path id="Path_8" data-name="Path 8" d="M110.759,242.9a46.458,46.458,0,0,0,7.82.358c19.065-9.243,31.619-30.3,35.341-60.057,2.483-19.869,1.392-41.639-5.188-60.293-3.5-9.925-7.79-18.337-15.513-25.909-3.578-3.508-9.822-8.43-13.623-2.91s2.134,15.124,4.23,20.042c9.529,22.349,17.88,45.962,18.436,70.54C142.953,215.588,132.73,235.189,110.759,242.9Z" transform="translate(34.787 158.383)" fill="#a12252" opacity="0.36"/>
    <path id="Path_9" data-name="Path 9" d="M57.192,139.323c3.974-14.437,14.025-30.245,12.016-45.9-2.091-16.306,4.453-25.034,3.467-41.691-.748-12.622-4.436-20.719,7.4-24.346,12.333-3.779,5.446,11.282,8.9,16.934,7.025,11.5,12.18,1.37,9.767-7.957-1.8-6.988-.238-14.9,8.758-9.513,8.512,5.1,2.232,12.535,5.265,15.838,7.283,7.926,7.019-20,9.337-22.312S138.776,22.178,137,27.1c-2.839,7.886-6.35,13.066,5.848,26.645S158.877,91,158.022,106.589c-.5,8.995-22.591,16.487-23.248,4.214C133.58,88.485,115.92,57.025,109.85,94.1c-1.416,8.647,7.153,18.045,3.816,26.7-3.245,8.415-7.637,13.1-16.435,16.924C81.243,144.667,65.151,144.185,57.192,139.323Z" transform="translate(-0.324 111.253)" fill="#cc0500"/>
    <path id="Path_10" data-name="Path 10" d="M104.159,74.614c-12.912.445-5.892,21.26-1.352,26.721a25.519,25.519,0,0,0,12.148,8.215c42.38,10.731,25.076-5.968,28.971-2.076,4.44,4.44,5.541,15.049,12.07,6.666,5.976-7.674-9.689-23.807-14.9-28.177C130.362,76.965,115.675,71.808,104.159,74.614Z" transform="translate(25.622 146.739)" fill="#ff9fa8"/>
    <path id="Path_11" data-name="Path 11" d="M79.609,25.285c-1.887-2.317-11.321.349-12.86,4.836C64.524,36.618,81.5,27.61,79.609,25.285Z" transform="translate(5.808 114.348)" fill="#5c0500" opacity="0.57"/>
    <path id="Path_12" data-name="Path 12" d="M89.777,24.7c-3.7-1.717-5.106-1.314-6.512.175-1.928,2.044,1.973,10.364,7.189,9.014C96.15,32.425,93.485,26.428,89.777,24.7Z" transform="translate(16.438 113.789)" fill="#5c0500" opacity="0.57"/>
    <path id="Path_13" data-name="Path 13" d="M97.538,20.523c-2.957,2.957,9.033,7.543,12.116,5.607S99.533,18.528,97.538,20.523Z" transform="translate(25.817 111.51)" fill="#5c0500" opacity="0.57"/>
    <path id="Path_14" data-name="Path 14" d="M46.553,143.214c1.711,4.041,4.659,10.207,9.325,10.295,4.911.09,2.5-5.6,22.819-12.017,6.751-2.132,5.959-12.085,7.561-18.162,1.765-6.714,12.276-5.481,14.779-11.027,1.291-2.865.085-6.621,1.324-9.715,1.336-3.346,4.652-3.768,3.618-8.426-19.535-6.14-46.4,17.144-56.182,32.232Z" transform="translate(-7.298 159.392)" fill="#a12252" opacity="0.36"/>
    <path id="Path_15" data-name="Path 15" d="M84.163,114.461c-1.294,3.426,3.126,8.94,5.932,10.457,3.311,1.8,9.181,2.01,13.044,2.055,10.216.137,18.636-2.445,26.426-9.378,7.838-6.973,4.522-16.348,7.86-25.35,1.572-4.23,7.615-7.6,5.177-12.1-1.894-3.476-7.4-4.866-10.779-5.847C105.95,66.775,114.876,116.883,84.163,114.461Z" transform="translate(17.201 146.531)" fill="#a12252" opacity="0.36"/>
    <path id="Path_16" data-name="Path 16" d="M91.832,113.794c-13,3.857-22.663,18.451-26.541,30.729-6.457,20.464,3.872,38.379,20.016,50.71,10.1,7.715,27.909,21.229,41.457,17.052,19.422-5.987,23.24-34.92,19.892-51.894-2.649-13.467-9.163-27.132-18.873-36.629C121.329,117.431,108.148,108.976,91.832,113.794Z" transform="translate(3.707 171.991)" fill="#ff5252" opacity="0.46"/>
    <path id="Path_17" data-name="Path 17" d="M81.695,120.687c-25.909,6.577-11.922,46.956,1.435,58.742,5.314,4.688,16.275,11.175,22.628,6.758,10.031-6.973,5.762-25.579,4.4-35.725C107.858,133.3,100.687,119.449,81.695,120.687Z" transform="translate(6.205 177.39)" fill="#ff5252" opacity="0.43"/>
    <path id="Path_18" data-name="Path 18" d="M114.535,51.035c-12.2-13.575-8.688-18.758-5.848-26.645a2.517,2.517,0,0,0,.125-.532c-2.73,1.853-6.291,3.4-7.308,5.629-3.152,6.886.969,14.876,5.019,19.9C116.6,61.889,122.2,77.035,120.65,93.215c-.452,4.708-2.68,13.828-1.644,20.5a19.139,19.139,0,0,0,8.573-5.221c.26-1.553.5-2.958.777-4.007.5-1.838.972-3.74,1.453-5.67C129.672,83.505,125.481,63.218,114.535,51.035Z" transform="translate(27.99 113.972)" fill="#a12252" opacity="0.36"/>
    <path id="Path_19" data-name="Path 19" d="M81.584,47.593a2.912,2.912,0,0,0,3.053-1.566c-1.507-.4-3.267-1.918-5.161-5.013-2.483-4.055.369-12.955-2.38-16.261.116,3.674-3.35,3.578-4.814,6.4C69.711,36.128,75.862,47.445,81.584,47.593Z" transform="translate(9.172 114.558)" fill="#a12252" opacity="0.36"/>
    <path id="Path_20" data-name="Path 20" d="M105.69,84.342c18.271,2.546,36.768-21.456,42.068-21.456,3,0,11.5,19.712,6.577,20.828s-13.452,9.14-21.074,12.483C125.136,99.766,106.892,95.754,105.69,84.342Z" transform="translate(31.464 139.553)" fill="#cc0500"/>
    <path id="Path_21" data-name="Path 21" d="M149.935,69.107c-3.511,3.753-6.125,7.039-10.34,9.866-3.685,2.467-7.605,4.537-11.978,2.831a15.727,15.727,0,0,1-6.74-5.584A44.183,44.183,0,0,1,115.143,79l-4.993,6.366c6.133,3.785,11.091,8.19,18.741,7.7.2-.011.4-.045.6-.063.3-.1.582-.214.856-.332C137.96,89.321,146.5,81.3,151.419,80.181c2.631-.6,1.421-6.517-.732-11.893C150.42,68.578,150.168,68.859,149.935,69.107Z" transform="translate(34.389 143.094)" fill="#a12252" opacity="0.36"/>
    <path id="Path_22" data-name="Path 22" d="M91.173,42.018a2.68,2.68,0,0,0,3.757-1.443,3.729,3.729,0,0,1-2.177-1.381c-2.712-2.952,2.012-9.208-3.034-14.143a11.686,11.686,0,0,1,1.4,4.636C90.9,33.819,83.555,39.186,91.173,42.018Z" transform="translate(19.688 114.753)" fill="#a12252" opacity="0.36"/>
    <path id="Path_23" data-name="Path 23" d="M135.82,67.783c-3.043-8.668-14.936-23.706-25.261-18.292-9.455,4.966-9.651,21.016-11.468,29.633-2.055,9.75-2.656,21.144-9.044,29.735A20.65,20.65,0,0,1,80.77,115.6c-.411-3.193-1.111-6.379-1.425-9.5-.75-7.4.233-12.782,5.973-17.46,5.04-4.111,11.15-8.6,13.695-15.05,1.466-3.722,2.6-14.869-2.02-16.826-2.92-1.233-8.855,2.025-11.5,3.06-4.933,1.935-9.658,4.373-14.542,6.335l-2.071,4.83c.066,1.184.166,2.393.332,3.659C71.221,90.3,61.177,106.1,57.2,120.551c7.948,4.87,24.043,5.356,40.028-1.585,8.8-3.823,13.19-8.509,16.435-16.924,3.338-8.653-5.232-18.045-3.816-26.7,6.072-37.083,23.733-5.618,24.93,16.7a6.091,6.091,0,0,0,4.3,5.942,37.41,37.41,0,0,0,.806-10,75.921,75.921,0,0,0-4.062-20.2Z" transform="translate(-0.321 130.022)" fill="#a12252" opacity="0.36"/>
    <path id="Path_24" data-name="Path 24" d="M136.111,81.528c-2.483,2.483,3.523,13.078,6.029,11.754S137.431,80.21,136.111,81.528Z" transform="translate(51.019 151.706)" fill="#5c0500" opacity="0.57"/>
    <path id="Path_25-2" data-name="Path 25" d="M45.267,138.154a191.47,191.47,0,0,1,3.324-24.316c1.707-10.065,5.218-19.955,4.3-30.492-.765-8.863-4.974-25.682-2.3-34.638,2.249-7.537,10.322-14.772,18.465-8.289,6.714,5.344,1.106,21.09,4.541,28.424,7.22.993,13.73-10.533,21.174-11.715,10.6-1.68,13.74,10.849,11.039,19.869-2.346,7.844-8.442,10.017-15.545,13-10.9,4.569-13.11,5.1-12.634,18.233.236,6.521,1.124,12.512.755,18.857C77.307,145.581,65.712,142.543,45.267,138.154Z" transform="translate(-8.141 123.178)" fill="#005d8d"/>
    <path id="Path_26-2" data-name="Path 26" d="M79.537,50.3c-10-.018-8.83,23.569-.341,24.856C89.557,76.716,91.324,51,79.537,50.3Z" transform="translate(9.663 131.304)" fill="#258fb2" opacity="0.69"/>
    <path id="Path_27" data-name="Path 27" d="M104.159,74.614c-12.912.445-5.892,21.26-1.352,26.721a25.519,25.519,0,0,0,12.148,8.215c42.38,10.731,25.076-5.968,28.971-2.076,4.44,4.44,5.541,15.049,12.07,6.666,5.976-7.674-9.689-23.807-14.9-28.177C130.362,76.965,115.675,71.808,104.159,74.614Z" transform="translate(25.622 146.739)" fill="#ff9fa8"/>
    <path id="Path_28" data-name="Path 28" d="M142.862,107.352c4.44,4.44,5.541,15.049,12.07,6.666,5.976-7.674-9.689-23.809-14.9-28.177a52.071,52.071,0,0,0-25.624-11.8c3.7,2.28,9.339,2.483,13,4.845,5.7,3.672,14.388,9.767,18.759,15.429,6.9,8.923-2.5,12.2-7.75,11.361-8.915-1.426-16.186,1.673-23.295-5.244C109.528,95,104.651,95.315,98.4,95.187a25.037,25.037,0,0,0,3.357,6.029,25.519,25.519,0,0,0,12.148,8.215C156.27,120.163,138.961,103.459,142.862,107.352Z" transform="translate(26.684 146.866)" fill="#a12252" opacity="0.36"/>
    <path id="Path_29" data-name="Path 29" d="M85.012,130.958c-4.4-7.391.111-15.409,5.207-31.58,5.55-17.588,9.2-26.406,27.77-37.009,14.588-8.329,32.962-14.072,34.376,1.174,2.114,22.767-32.046,15.632-38,37.7-2.662,9.88,1.233,19.912-3.132,29.012C106.057,141.07,91.074,141.138,85.012,130.958Z" transform="translate(16.743 133.751)" fill="#005d8d"/>
    <path id="Path_30" data-name="Path 30" d="M131.556,63.586c-2.853-.127,3.3,18.25,6.44,18.462C140.385,82.208,134.231,63.705,131.556,63.586Z" transform="translate(47.938 140.012)" fill="#5c0500" opacity="0.57"/>
    <path id="Path_31" data-name="Path 31" d="M57,39.245c-5.892,4.3-7.572,10.761-6.684,17.677,1.224,9.563,2.8,18.759,3.223,28.609a57.445,57.445,0,0,1-3.381,20.02c-1.559,4.981-3.985,8.989.332,12.607,2.106,1.765,6.386,6.919,8.509,2.98,2.038-3.768,1.67-9.826,2.044-13.977a93.145,93.145,0,0,0,.445-16.043c-.993-12.019-4.294-23.7-4.27-35.826a52.739,52.739,0,0,1,.856-9.841A6.754,6.754,0,0,0,57,39.245Z" transform="translate(-6.314 124.057)" fill="#92ceff" opacity="0.43"/>
    <path id="Path_32-2" data-name="Path 32" d="M77.322,51.88a54.651,54.651,0,0,1-9.169,7.332c-3.486,2.424-5.892,2.408-5.284,7.331.332,2.625,1.529,8.486,5.4,5.522,1.291-.993,1.854-2.912,2.9-4.111,1.435-1.655,4.059-2.153,5.3-3.563,1.135-1.3.677-3.944.6-5.565a28.972,28.972,0,0,1,.26-6.949Z" transform="translate(3.336 132.339)" fill="#92ceff" opacity="0.43"/>
    <path id="Path_33" data-name="Path 33" d="M143.718,54.745c-12.074,0-23.141,5.972-32.779,12.937A50.184,50.184,0,0,0,96.056,85.26c-4.438,8.885-5.983,18.47-9.106,27.817-1.359,4.074-2.858,7.515-2.317,11.854.349,2.83,1.677,7.653,4.918,8.278,2.965-1.918,2.524-8.608,2.878-11.73.97-8.8,1.381-26.122,12.381-41.184C121.186,57.88,141.4,57.666,147.387,55.833Z" transform="translate(17.588 134.217)" fill="#92ceff" opacity="0.43"/>
    <path id="Path_34" data-name="Path 34" d="M149.777,62.02a11.922,11.922,0,0,0-1.821-5.658,10.551,10.551,0,0,1-3.676,4.677c-7.372,5.3-18.376,5.559-26.464,11.288-9.673,6.851-12.956,16.911-15.527,27.774-2.1,8.884-2.165,19.894-6.355,27.872a12.316,12.316,0,0,1-8.749,6.44,14.647,14.647,0,0,0,21.467-5.673c4.37-9.106.47-19.132,3.132-29.012C117.732,77.654,151.892,84.789,149.777,62.02Z" transform="translate(19.335 135.278)" fill="#2d697d" opacity="0.3"/>
    <path id="Path_35" data-name="Path 35" d="M98.2,64.379a8.3,8.3,0,0,1-6.771,2.632c-1.631-.166-3.27-1.668-4.826-1.241-1.1.3-2.658,2.671-3.722,3.367-5.362,3.522-13.977.952-18.587,5.171-5.365,4.908-2.483,14.056-2.8,20.486a65.246,65.246,0,0,1-8.112,28.694c12.072,1.892,18.873.2,19.69-13.766.369-6.344-.519-12.333-.755-18.857-.475-13.13,1.733-13.665,12.634-18.233C90.353,70.374,95.166,68.553,98.2,64.379Z" transform="translate(-2.824 140.532)" fill="#316171" opacity="0.3"/>
    <path id="Path_36" data-name="Path 36" d="M64.281,68.834a8.684,8.684,0,0,0,1.925-.822C63.466,60.4,68.455,45.566,61.967,40.4a10.672,10.672,0,0,0-5.879-2.483A39.962,39.962,0,0,1,58.516,49.38a51.408,51.408,0,0,1-.862,13.466C56.906,67.814,58.872,70.442,64.281,68.834Z" transform="translate(-1.048 123.189)" fill="#004056" opacity="0.3"/>
    <path id="Path_37" data-name="Path 37" d="M47.607,86.367c-10.47,20.3-18.288,48.608,4.385,67.479,4.925,4.1,10.9,3.879,15.231-2.109,2.508-3.465,1.324-5.481.889-7.759-.685-3.657,4.611,5.713,7.853,5.028,9.4-1.987,10.368-7.915,11.167-16.661,1.1-12.1,5.685-6.569,12.479-11.236,5.188-3.563,5.344-7.56,3.757-14.114-.917-3.772,8.33-6.477,6.865-9.758-1.72-3.859-29.646-6.31-34.99-2.027C61.942,105.888,62.7,84.243,47.607,86.367Z" transform="translate(-13.338 154.847)" fill="#ff9fa8"/>
    <path id="Path_38" data-name="Path 38" d="M104.713,97.189c-1.725-3.857-29.659-6.3-35-2.025-12.113,9.729-12.582-7.339-23.944-8.875a25.964,25.964,0,0,1,11,10.642c3.642,6.151,5.161,6.8,12.592,4.522,4.77-1.458,12.324-4.841,16.378.332,5.892,7.522-4.3,11.2-9.455,12.4-2.593,6.636.36,13.686-.813,20.859-1.858,11.373-11.754,12.988-16.257,2.317.5,5.618,2.708,13.306-2.125,16.522-1.636,1.088-3.563,1.655-7.965,1.655,4.3,2.106,9,1.1,12.582-3.837,2.508-3.465,1.324-5.481.889-7.759-.685-3.657,4.611,5.713,7.853,5.028,9.4-1.987,10.368-7.915,11.166-16.661,1.1-12.1,5.685-6.569,12.479-11.236,5.188-3.563,5.344-7.561,3.757-14.114C96.93,103.174,106.178,100.469,104.713,97.189Z" transform="translate(-7.81 154.893)" fill="#a12252" opacity="0.36"/>
    <path id="Path_39" data-name="Path 39" d="M48.905,89.394c-12.4,10.516-12.353,34.531-4.222,47.244,1.866,2.917,5.947,8.009,9.9,7.239,5.692-1.111,1.45-6.147,2.734-10.492,2.658-9.01,13.61,7.237,17.967-5.322,1.781-5.148-3.391-9.536-3.032-13.817.475-5.673,8.052-4.915,7.6-9.866-5.694-2.867-11.568,3.453-17.677.881C54.341,101.971,57.829,91.184,48.905,89.394Z" transform="translate(-12.238 156.929)" fill="#ff9797" opacity="0.43"/>
    <path id="Path_40" data-name="Path 40" d="M111.868,76.368c-4.814,2.161-6.6,5.529-3.563,10.028,2.791,4.12,7.041,3.507,10.912,5.932,3.974,2.493,5.892,5.855,10.772,7.328,7.605,2.3,9.37-1.426,4.988-7.546C130.021,85.2,121.756,77.544,111.868,76.368Z" transform="translate(32.196 148.39)" fill="#ff9797" opacity="0.43"/>
    <path id="Path_41" data-name="Path 41" d="M135.45,64.906c-3.808,1.821-11.976,9.165-14.452,12.933-4.569,6.953,11.15,2.273,14.114-2.044C137.564,72.219,134.367,66.667,135.45,64.906Z" transform="translate(40.957 140.878)" fill="#ff9797" opacity="0.43"/>
    <path id="Path_42" data-name="Path 42" d="M136.965,82.36c-4.575.274-12,2.771-5.162,7.224,1.447.941,5.167,2.6,6.577.662s-1.694-4.886-.978-7.017Z" transform="translate(46.768 152.318)" fill="#ff9797" opacity="0.43"/>
    <path id="Path_43" data-name="Path 43" d="M67.4,30.319c.158,5.663,1.159,11.353.873,17.266-.212,4.3-2.7,11.778-.873,15.727,2.356,5.1,7.754.867,8.845-3.23,1.283-4.819-2.428-11.154-3.334-15.963C72.424,41.555,72.427,25.8,67.4,30.319Z" transform="translate(5.929 117.676)" fill="#ff9797" opacity="0.43"/>
    <path id="Path_44" data-name="Path 44" d="M85.335,29.215c1.452,5.241,2.114,10.6-.745,15.55-2.317,4-7.284,7.948-5.281,12.9,1.562,3.856,9.138,9.554,11.21,3.463,1.557-4.571.6-12.775,1.067-17.467.288-2.878.782-7.087-.741-9.6C89.1,31.161,86.295,30.883,85.335,29.215Z" transform="translate(13.868 117.483)" fill="#ff9797" opacity="0.43"/>
    <path id="Path_45" data-name="Path 45" d="M100.328,22.962c-.952,4.47-.166,9.27-1.325,13.585-1.024,3.789-4.03,6.342-6.107,9.619a9.708,9.708,0,0,0-2.055,5.481c.019,3.676.344,2.815,3.015,4.1,4.907,2.361,9.4,4.422,13.458,8.207,2.867,2.675,6.406,11.453,10.629,10.7,1-11.861-12.637-16.792-15.051-27.084C100.949,39.279,106.285,29.3,100.328,22.962Z" transform="translate(21.733 113.384)" fill="#ff9797" opacity="0.43"/>
    <path id="Path_46" data-name="Path 46" d="M79.8,72.2c-6.547,3.387-10.1,14.355-8.633,21.122,2.815,13.094,9.069-3.882,10.148-8.832C82.229,80.285,83.159,75.149,79.8,72.2Z" transform="translate(8.621 145.659)" fill="#ff9797" opacity="0.43"/>
    <path id="Path_47" data-name="Path 47" d="M45.471,92.835c-4.218,3.741-8.851,20.593-3.185,24.767,6.283,4.636,8.884-12.841,9.229-16.587C51.814,97.683,51.306,91.754,45.471,92.835Z" transform="translate(-11.819 159.099)" fill="#ff9797" opacity="0.43"/>
    <path id="Path_48" data-name="Path 48" d="M54.171,79.659c-.548-12.607-3.386-24.457-1.877-37.11.016-.137-.2-.153-.238-.032-4.183,12.274-.388,24.568.023,37.135a82.24,82.24,0,0,1-1.655,21.594c-1.048,4.407-3.06,8.485-1.065,12.807a.264.264,0,0,0,.48-.063C52.158,102.45,54.691,91.546,54.171,79.659Z" transform="translate(-6.015 126.147)" fill="#92ceff" opacity="0.77"/>
    <path id="Path_49" data-name="Path 49" d="M79.217,51.218c-2.242.8-3.533,3.252-5.369,4.715-2.649,2.113-5.748,3.546-8.359,5.694s-5.839,6.7-1.544,8.907a.367.367,0,0,0,.5-.5c-2.6-5.251,3.515-8.074,7.146-10.517a27.761,27.761,0,0,0,7.652-8.271.019.019,0,0,0-.022-.032Z" transform="translate(2.729 131.904)" fill="#92ceff" opacity="0.77"/>
    <path id="Path_50" data-name="Path 50" d="M120.227,59.106C111.3,60.418,103.235,69.9,98.143,76.726,91.747,85.3,89.1,96,87.562,106.434c0,.042.049.077.074.032,4.462-8.288,5.3-17.788,10.612-25.8S111.32,63.6,120.528,60.2a.568.568,0,1,0-.3-1.1Z" transform="translate(19.582 137.063)" fill="#92ceff" opacity="0.77"/>
    <path id="Path_51" data-name="Path 51" d="M88.826,90.474c.016-.033-.021-.082-.055-.056A10.337,10.337,0,0,0,85.626,96.7c-.421,1.932-1.159,5.241.451,6.825a.5.5,0,0,0,.811-.215c.332-1.847-.019-3.883.166-5.774a20.243,20.243,0,0,1,1.772-7.061Z" transform="translate(17.959 157.596)" fill="#92ceff" opacity="0.77"/>
    <path id="Path_52" data-name="Path 52" d="M46.442,92.614c-4.762,3.672-9.2,14.206-5.846,19.857a.332.332,0,0,0,.6-.166c.447-3.476.022-6.73,1.067-10.2a55.317,55.317,0,0,1,4.286-9.386C46.586,92.661,46.517,92.561,46.442,92.614Z" transform="translate(-11.971 159.029)" fill="#005d8d" opacity="0.77"/>
    <path id="Path_53" data-name="Path 53" d="M66.882,121.456c-2.815,2.246-6.346,3.35-9.221.478a26.5,26.5,0,0,1-3.476-5.714.062.062,0,0,0-.111.047c.928,3.127,1.892,6.84,5.207,8.241a6.44,6.44,0,0,0,8.012-2.734C67.459,121.5,67.1,121.272,66.882,121.456Z" transform="translate(-2.368 174.496)" fill="#005d8d" opacity="0.77"/>
    <path id="Path_54" data-name="Path 54" d="M75.041,99.2a.247.247,0,0,0-.411-.108c-.6.6-.909,1.455-1.48,2.1a10.9,10.9,0,0,1-2.731,2.144,8.033,8.033,0,0,1-6.388,1.278.041.041,0,0,0-.045.06c1.311,1.909,4.695.778,6.321-.033C71.818,103.886,75.918,101.388,75.041,99.2Z" transform="translate(4.125 163.237)" fill="#005d8d" opacity="0.77"/>
    <path id="Path_55" data-name="Path 55" d="M138.9,95.316c-8.349-.041-16.289,4.289-23.843-1.655-4.614-3.634-6.577-5.983-12.582-7.284a.062.062,0,0,0-.033.118,34.09,34.09,0,0,1,11.091,7.55,14.9,14.9,0,0,0,6.369,3.49c6.246,1.644,13.047-.029,19.037-1.887a.167.167,0,1,0-.045-.332Z" transform="translate(29.31 154.949)" fill="#005d8d" opacity="0.77"/>
    <path id="Path_56" data-name="Path 56" d="M135.874,64.886c-3.531.882-7.119,4.248-9.739,6.7-2.153,2.006-5.629,4.8-5.737,8a.022.022,0,0,0,.034.015,86.331,86.331,0,0,1,7.2-7.693c2.527-2.276,6.647-3.823,8.54-6.636a.265.265,0,0,0-.3-.385Z" transform="translate(41.105 140.86)" fill="#ff94ab" opacity="0.77"/>
    <path id="Path_57" data-name="Path 57" d="M136.673,82.506c-2.306-.959-5.618,1.159-7.206,2.721a.608.608,0,0,0,.734.952,11.472,11.472,0,0,1,3.435-1.346,13.814,13.814,0,0,0,3.228-.856.822.822,0,0,0-.192-1.472Z" transform="translate(46.939 152.257)" fill="#ff94ab" opacity="0.77"/>
    <path id="Path_58" data-name="Path 58" d="M69.411,46.4c-.137-5.441-1.594-10.716-2.153-16.115a.083.083,0,0,0-.166,0c-.122,6.476,1.1,12.912.754,19.377-.233,4.479-2.5,9.719.2,13.74a.244.244,0,0,0,.444-.188C67.188,57.891,69.545,51.9,69.411,46.4Z" transform="translate(5.928 118.133)" fill="#ff94ab" opacity="0.77"/>
    <path id="Path_59" data-name="Path 59" d="M82.992,29.325c-.085-.192-.389-.055-.332.137a25.475,25.475,0,0,1,.332,11.953c-.041.241.274.525.471.274C86.04,38.384,84.5,32.769,82.992,29.325Z" transform="translate(16.365 117.495)" fill="#ff94ab" opacity="0.77"/>
    <path id="Path_60" data-name="Path 60" d="M98.128,22.972c-.025-.069-.137-.085-.156,0-.57,2.938-.258,6.059-.559,9.044A29.572,29.572,0,0,1,93.691,42.9c-.106.208.077.548.343.445C100.534,40.658,100.08,28.354,98.128,22.972Z" transform="translate(23.58 113.352)" fill="#ff94ab" opacity="0.77"/>
    <path id="Path_61" data-name="Path 61" d="M74.984,24.118a.077.077,0,0,0,0,.145,5.463,5.463,0,0,1,1.285.4,1.655,1.655,0,0,1,.085,2.619,20.3,20.3,0,0,1-1.769,1.49c-1.159.925-2.957,1.4-3.824,2.616-.026.038.026.086.063.063a39.051,39.051,0,0,0,3.852-2.164,8.6,8.6,0,0,0,2.6-2.483,1.958,1.958,0,0,0-2.3-2.682Z" transform="translate(8.565 114.098)" fill="#ff94ab" opacity="0.77"/>
    <path id="Path_62" data-name="Path 62" d="M89.184,24.449c-.166-.049-.221.166-.106.249,2.131,1.636,4.337,4.67,2.45,7.374-1.457,2.087-4.018,1.358-6.155,1.447a.01.01,0,1,0,0,.019c2.417.885,5.917.721,7-2.02a5.806,5.806,0,0,0-3.191-7.069Z" transform="translate(18.142 114.354)" fill="#ff94ab" opacity="0.77"/>
    <path id="Path_63" data-name="Path 63" d="M103.885,21.331a.01.01,0,0,0-.015.011c.634,1.148,3.024,1.872,2.689,3.426-.31,1.429-2.5,1.628-3.664,1.812-.055,0-.033.085.014.089,1.281.148,3.461-.215,3.992-1.606C107.606,23.208,104.912,22.265,103.885,21.331Z" transform="translate(29.612 112.313)" fill="#ff94ab" opacity="0.77"/>
    <path id="Path_64" data-name="Path 64" d="M137.23,77.429A25.162,25.162,0,0,0,133.473,66c-.019-.034-.066,0-.051.03.137.318,5.648,14.77,2.5,14.507a.137.137,0,0,0-.071.263C137.541,81.655,137.275,78.191,137.23,77.429Z" transform="translate(49.64 141.589)" fill="#ff94ab" opacity="0.77"/>
    <path id="Path_65" data-name="Path 65" d="M139.66,84.751a.06.06,0,0,0-.1.06c.455,1.655,1.857,2.865,1.681,4.728-.214,2.273-2.22,2.094-3.55.848a.021.021,0,0,0-.032.025c.769,1.106,2.483,2,3.492.636C142.53,89.165,140.955,86.222,139.66,84.751Z" transform="translate(52.418 153.873)" fill="#ff94ab" opacity="0.77"/>
    <path id="Path_66" data-name="Path 66" d="M135.692,81.467c.008-.022-.015-.041-.032-.025-1.677,1.573.049,4.707.914,6.3.037.066.166.04.151-.041C136.447,85.412,134.659,83.913,135.692,81.467Z" transform="translate(50.647 151.713)" fill="#ff94ab" opacity="0.77"/>
    <path id="Path_67" data-name="Path 67" d="M131.625,69.677c-.533-1.781-1.622-4.6-.454-6.243.056-.079-.058-.2-.137-.137-1.37,1.021-.889,3.248-.58,4.688a40.348,40.348,0,0,0,3.408,9.711.153.153,0,0,0,.274-.118C133.4,74.911,132.417,72.324,131.625,69.677Z" transform="translate(47.475 139.811)" fill="#ff94ab" opacity="0.77"/>
    <path id="Path_68" data-name="Path 68" d="M102.2,26.076c-1.437-.726-7.334-3.667-4.774-5.879.119-.1-.01-.286-.148-.254-1.644.411-.967,2.29-.274,3.263a8.64,8.64,0,0,0,5.15,2.982C102.218,26.2,102.263,26.108,102.2,26.076Z" transform="translate(25.282 111.403)" fill="#ff94ab" opacity="0.77"/>
    <path id="Path_69" data-name="Path 69" d="M85.726,23.3a.051.051,0,0,0-.014-.1c-4.3-.352-4.636,8.039-.993,9.069a.071.071,0,0,0,.069-.119C82.074,29.682,81.6,24.575,85.726,23.3Z" transform="translate(16.078 113.531)" fill="#ff94ab" opacity="0.77"/>
    <path id="Path_70" data-name="Path 70" d="M67.517,32.131c-1.781-.724-.53-2.58.07-3.455a9.559,9.559,0,0,1,4.052-3.538c.018,0,.019-.041,0-.04-2.306.177-4.67,3.046-5.336,5.124-.751,2.339,2.451,3.187,3.882,1.747.053-.053,0-.166-.078-.137A3.76,3.76,0,0,1,67.517,32.131Z" transform="translate(5.575 114.785)" fill="#ff94ab" opacity="0.77"/>
    <path id="Path_71" data-name="Path 71" d="M62.826,38.654c-2.451-1.71-6.7.363-8.694,2a16.032,16.032,0,0,0-5.663,10.179c-.01.081.119.081.129,0,.782-6.6,7.479-12.764,14.167-11.956C62.9,38.9,62.914,38.714,62.826,38.654Z" transform="translate(-6.043 123.25)" fill="#92ceff" opacity="0.77"/>
    <path id="Path_72-2" data-name="Path 72" d="M79.092,49.818c-3.4-.274-6.125,3.152-7.093,6.091a17.927,17.927,0,0,0,1.657,14.033.184.184,0,0,0,.332-.137c-1.479-6.588-3.435-17.148,5.119-19.82a.081.081,0,0,0-.014-.159Z" transform="translate(8.898 130.978)" fill="#92ceff" opacity="0.77"/>
    <path id="Path_73-2" data-name="Path 73" d="M83.227,54.612c-.011-.016-.045-.008-.037.015,1.8,5.839-1.021,12.186-3.877,17.068a.139.139,0,1,0,.223.166,17.76,17.76,0,0,0,4.47-9.829C84.473,59.681,84.77,56.64,83.227,54.612Z" transform="translate(14.16 134.125)" fill="#92ceff" opacity="0.77"/>
    <path id="Path_74" data-name="Path 74" d="M80.13,173.861c-3.69-8.633-8.925-15.775-10.913-25.246a31.993,31.993,0,0,1-.089-15.231c1.568-5.473,5.082-8.453,9.384-11.809.1-.082-.01-.241-.122-.212C68.017,124.08,65.535,136.1,66.584,145.316c1.035,9.106,5.163,23.22,12.793,29.126a.484.484,0,0,0,.755-.581Z" transform="translate(5.686 177.882)" fill="#ff94ab" opacity="0.77"/>
    <path id="Path_75" data-name="Path 75" d="M82.231,99.147a21.9,21.9,0,0,0-10.518.6c-3.354,1.111-3.509,1.687-7.537,1.718-4.692.037-5.722-.984-8.156-4.823-2.9-4.567-4.68-8.807-10.479-9.878-.063-.011-.09.081-.026.1,8.3,2.073,7.96,11.257,14.318,15.387a7.78,7.78,0,0,0,6.953.844c2.493-.673,4.616-2.286,7.193-2.831,2.7-.571,5.525-.348,8.257-.771a.177.177,0,0,0,0-.341Z" transform="translate(-8.002 155.203)" fill="#ff94ab" opacity="0.77"/>
    <path id="Path_76" data-name="Path 76" d="M128.046,99.788c-3.052-1.551-4.362-4.493-7.03-6.428-2.382-1.732-5.344-1.781-7.948-2.98-4.177-1.918-8.71-14.525-1.159-13.863a.152.152,0,0,0,.077-.281c-6.577-2.965-5.641,7.342-4.271,10.7,1.455,3.563,3.67,5.034,7.293,6.138a15.106,15.106,0,0,1,5.551,2.371c1.106.915,1.8,2.221,2.839,3.2a6.072,6.072,0,0,0,4.47,1.8.356.356,0,0,0,.177-.652Z" transform="translate(32.147 147.956)" fill="#ff94ab" opacity="0.77"/>
    <path id="Path_77" data-name="Path 77" d="M57.239,130.069a.434.434,0,0,0-.8-.216c-2.1,3.709-4.3,2.964-6.982.685a25.827,25.827,0,0,1-4.614-5.07c-3.676-5.463-4.955-12.729-5.665-19.124,0-.051-.088-.074-.1-.014a29.031,29.031,0,0,0,7.478,23.728c1.727,1.772,4.511,4.548,7.241,4.453a3.7,3.7,0,0,0,3.442-4.448Z" transform="translate(-12.377 168.007)" fill="#ff94ab" opacity="0.77"/>
    <path id="Path_78" data-name="Path 78" d="M67.314,109.153a.358.358,0,0,0-.647.085c-.952,3.426-1.739,8.05-5.735,9.181-2.943.822-5.695-1.452-8.664-.166-.137.063-.064.285.077.284,4.129-.051,7.761,3.131,11.5-.023C66.158,116.563,68.829,112.2,67.314,109.153Z" transform="translate(-3.601 169.769)" fill="#ff94ab" opacity="0.77"/>
    <path id="Path_79" data-name="Path 79" d="M143.678,107.032a8.553,8.553,0,0,0,7.1-2.047.051.051,0,0,0-.062-.079c-5.733,3.152-12.25-1.214-17.936-2.5a18.583,18.583,0,0,0-9.889.443c-1.12-1.136-3.642-.9-5.021-.548-4.318,1.121-9.164,4.815-12.348-.411a.079.079,0,1,0-.137.077,5.567,5.567,0,0,0,6.771,3.024c1.831-.369,3.553-1.143,5.367-1.572a6.672,6.672,0,0,1,3.152-.238,2.877,2.877,0,0,1,.677.286c-7,3.23-5.855,10.062-.74,14.821.208.193.423.381.643.566a.31.31,0,0,0-.2.223c-.6,2.945,1.9,4.78,3.094,7.212,1.939,3.946-1.96,6.346-1.61,10.14.016.182.315.26.348.048.471-3.113,3.39-5.132,3.167-8.416-.229-3.342-3.311-5.52-4.174-8.7,3.65,2.878,8.255,4.933,9.866,9.58,1.836,5.287-.258,11.193.74,16.664.882,4.826,3.777,7.8,7.149,11.12a24.531,24.531,0,0,1,2.071,2.317c-.166,0-.332.119-.262.3,1.727,4.2,1.139,6.577-.932,10.533a18.664,18.664,0,0,0-2.339,7.082c-.008.082.122.082.129,0,.36-4.5,6.48-10.109,5.4-14.9,2.946,5.554,2.568,11.647,0,18.3-.063.166.2.274.274.116,3.974-8.385,3.219-16.554-3.228-23.453-5.495-5.884-8.12-10.065-7.5-18.292.137-1.849.356-3.682.391-5.481a13.044,13.044,0,0,0,1.987,3.165,17.077,17.077,0,0,0,2.66,2.182,6.42,6.42,0,0,1,2.89,5.576c0,.079.137.11.149.021a5.666,5.666,0,0,0-2.216-6.1,14.662,14.662,0,0,1-4.215-4.551c-.582-1.169-.919-2.364-1.479-3.459a10.873,10.873,0,0,0-1.294-3.692c-1.821-3.126-5.018-5-7.82-7.119-3.37-2.547-6.7-5.448-5.618-9.917,1.01-4.2,5.354-5.481,9.407-5.7,4.138-.218,9.455,2.388,14.318,3.2a41.017,41.017,0,0,0-2.778,3.586,4.659,4.659,0,0,0-.947,3.409,8.244,8.244,0,0,0,6.02,6.291c.1.014.137-.137.051-.189-3.076-1.781-7.153-5.666-4-9.27C141.738,109.562,143.381,108.527,143.678,107.032Z" transform="translate(31.263 165.095)" fill="#eec39c" opacity="0.77"/>
    <path id="Path_80" data-name="Path 80" d="M127.977,190.255a10.9,10.9,0,0,0-12.059-4.33c-4.741,1.159-8.641,1.975-13.148-.761a19.065,19.065,0,0,1-5.163-4.744,22.4,22.4,0,0,0-2.055-5.38c-2.221-3.935-6.011-6.048-9.619-8.552-9.371-6.5-13.6-14.947-12.3-24.871a12.322,12.322,0,0,0,1.759,5.335c2.61,3.9,8.633,4.788,12.76,5.988.108.032.184-.137.078-.185-3.789-1.821-9.5-2.689-11.908-6.429-1.644-2.554-1.821-6.253-1.625-9.624.321-1.076.685-2.164,1.124-3.271,3.4-8.482,8.8-18.173,6.825-27.618a.077.077,0,0,0-.145,0c-3.93,18.873-21.844,42.235-2.409,58.621a87.978,87.978,0,0,0,7.574,5.2,2.583,2.583,0,0,0-.456.073.411.411,0,0,0-.281.5,9.2,9.2,0,0,1-.018,5.82,13,13,0,0,0-.77,4.537,11.165,11.165,0,0,0,6.324,8.57.051.051,0,0,0,.062-.079c-2.286-2.317-4.941-5.533-4.839-9.019.062-2.084,1.258-4.07,1.655-6.094a6.562,6.562,0,0,0-.1-3.172,18.2,18.2,0,0,1,4.933,5.093c2.871,4.743,3.039,10.6,5.344,15.573,2.368,5.1,6.675,8.56,11.452,11.32a29.542,29.542,0,0,1,8.907,6.688,26.133,26.133,0,0,0,5.207,5.4c.341.238.685-.274.429-.556-3.476-3.779-5.744-8.155-10.24-10.809-6.706-3.956-12.744-7.193-15.561-15.017a54.528,54.528,0,0,1-1.631-6.072,15.99,15.99,0,0,0,7.05,5.51,12.705,12.705,0,0,0,5.7.915c6.747-.619,10.381-4.067,16.916,1.679a.158.158,0,0,0,.217-.229Z" transform="translate(8.863 167.657)" fill="#eec39c" opacity="0.77"/>
    <path id="Path_81" data-name="Path 81" d="M79.67,112.572a88.774,88.774,0,0,0-6.364,16.435c-1.557,5-1.2,9.729-1.668,14.857-.01.111.144.111.178.023,1.812-4.47,1.159-9.839,2.662-14.557,1.781-5.567,3.761-11.071,5.273-16.718a.047.047,0,0,0-.082-.038Z" transform="translate(9.144 172.112)" fill="#ff94ab" opacity="0.77"/>
    <path id="Path_82" data-name="Path 82" d="M82.595,144.76a.015.015,0,1,0-.03,0c-.381,4.13-3.771,9.507-1.183,13.44.082.125.3.048.249-.106a12.786,12.786,0,0,1,.185-7.781A14.137,14.137,0,0,0,82.595,144.76Z" transform="translate(14.898 193.21)" fill="#ff94ab" opacity="0.77"/>
    <path id="Path_83" data-name="Path 83" d="M101.667,172.114c-2.771-2.153-5.969-3.476-8.374-6.173-3.4-3.808-3.992-8.451-5.539-13.1a.03.03,0,0,0-.058.016c1.009,4.762,1.461,9.281,4.615,13.21a19.122,19.122,0,0,0,9.163,6.38C101.651,172.489,101.83,172.234,101.667,172.114Z" transform="translate(19.67 198.501)" fill="#ff94ab" opacity="0.77"/>
    <path id="Path_84" data-name="Path 84" d="M81.044,146.76c-1.747-2.153-4-3.744-5.618-6.058a22.348,22.348,0,0,1-3.515-7.4c-.019-.082-.137-.047-.126.034.708,5.233,3.974,11.423,9.021,13.74a.2.2,0,0,0,.238-.312Z" transform="translate(9.241 185.678)" fill="#ff94ab" opacity="0.77"/>
    <path id="Path_85" data-name="Path 85" d="M109.494,155.193c-2.26-1.507-4.415-1.052-6.925-.229a16.12,16.12,0,0,1-12.37-.248c-.016-.008-.025.018-.011.026a13.155,13.155,0,0,0,7.689,2.483,13.316,13.316,0,0,0,3.772-.865,15.253,15.253,0,0,1,7.683-.774.214.214,0,0,0,.162-.395Z" transform="translate(21.3 199.409)" fill="#ff94ab" opacity="0.77"/>
    <path id="Path_86" data-name="Path 86" d="M115.968,103.415c.049-.062-.015-.166-.09-.119-3.437,2.416-6.125,10.314-.474,12a.306.306,0,0,0,.295-.507c-1.551-1.838-2.854-3.112-2.506-5.733A11.278,11.278,0,0,1,115.968,103.415Z" transform="translate(35.688 166.034)" fill="#ff94ab" opacity="0.77"/>
    <path id="Path_87" data-name="Path 87" d="M115.9,114.779c-.037-.032-.1.011-.071.055a8.264,8.264,0,0,1,1.821,4.767c.034,1.458-.469,2.834-.5,4.266a.23.23,0,0,0,.423.116,7.506,7.506,0,0,0-1.677-9.2Z" transform="translate(38.106 173.561)" fill="#ff94ab" opacity="0.77"/>
    <path id="Path_88" data-name="Path 88" d="M120.187,115.572a.032.032,0,0,0-.056.023,48.252,48.252,0,0,1,1.855,7.73,39.6,39.6,0,0,0,.6,6.539.166.166,0,0,0,.321,0,18.72,18.72,0,0,0-2.721-14.292Z" transform="translate(40.931 174.08)" fill="#ff94ab" opacity="0.77"/>
    <path id="Path_89" data-name="Path 89" d="M128.012,137.611a.229.229,0,0,0-.438.121,10.61,10.61,0,0,1,.344,2.569c0,.777-.177,1.561-.122,2.329a.214.214,0,0,0,.4.106C129.207,141.383,128.521,139.043,128.012,137.611Z" transform="translate(45.807 188.439)" fill="#ff94ab" opacity="0.77"/>
    <path id="Path_90" data-name="Path 90" d="M127.236,106.889c.03-.041-.029-.078-.063-.063-1.58.685-2.424,4.175-.7,5.132.1.058.274-.041.222-.166a4.47,4.47,0,0,1,.548-4.9Z" transform="translate(44.462 168.354)" fill="#ff94ab" opacity="0.77"/>
    <path id="Path_91" data-name="Path 91" d="M127.86,104.6a10.784,10.784,0,0,0-6.534-2.317c-.016,0-.018.023,0,.03,2.125.8,4.262,1.859,6.457,2.445a.09.09,0,0,0,.078-.158Z" transform="translate(41.706 165.378)" fill="#ff94ab" opacity="0.77"/>
    <path id="Path_92" data-name="Path 92" d="M82.212,105.24a.062.062,0,0,0-.121,0c-.634,6-.045,12.226-2.1,18.011-1.527,4.289-4.522,7.908-5.983,12.224-1.765,5.226-.922,10.842,4.5,13.263.166.078.391-.137.221-.285-8.518-7.263-1.566-15.335,1.821-23.124C83.316,118.946,82.713,112.008,82.212,105.24Z" transform="translate(10.151 167.284)" fill="#a12252" opacity="0.36"/>
    <path id="Path_93" data-name="Path 93" d="M88.124,152.385c-4.774-2.377-8.62-3.938-11.51-8.788a31.94,31.94,0,0,1-3.808-14.525.03.03,0,0,0-.06,0A26.766,26.766,0,0,0,77.764,147c2.456,3.086,5.441,4.278,8.9,6.029a22.336,22.336,0,0,1,11.082,13.306c.1.274.563.255.536-.073C97.812,160.4,93.271,154.946,88.124,152.385Z" transform="translate(9.812 182.917)" fill="#a12252" opacity="0.36"/>
    <path id="Path_94" data-name="Path 94" d="M88.048,152.91a.047.047,0,0,0-.09,0c-.445,6.277,3.908,11.62,8.747,15.162,2.516,1.84,5.361,3.165,7.905,4.966a53.649,53.649,0,0,1,10.835,11.294.075.075,0,0,0,.126-.073C110.4,170.168,89.472,169.1,88.048,152.91Z" transform="translate(19.821 198.54)" fill="#a12252" opacity="0.36"/>
    <path id="Path_95" data-name="Path 95" d="M86.189,163.071c-2.815-2.878-4.338-5.363-4.022-9.473a44.74,44.74,0,0,0,.673-8.512.015.015,0,0,0-.03,0c-1.009,6.207-3.461,14.374,3.152,18.274a.182.182,0,0,0,.222-.289Z" transform="translate(15.623 193.424)" fill="#a12252" opacity="0.36"/>
    <path id="Path_96" data-name="Path 96" d="M89.947,152.3a.015.015,0,1,0-.022.019c2.713,3.057,5.924,3.652,9.9,3.534,6.858-.206,12.076-1.8,16.735,4.671.156.217.586.1.47-.2C112.485,148.7,97.5,159.256,89.947,152.3Z" transform="translate(21.127 198.16)" fill="#a12252" opacity="0.36"/>
    <path id="Path_97" data-name="Path 97" d="M132.766,144.361c-1.927-2.98-4.449-5.385-6.586-8.2-3.327-4.375-2.98-8.907-3.729-13.943,0-.034-.058-.025-.06.008-.166,5.7-.662,9.84,2.846,14.652,5.551,7.615,12.308,13.719,9.478,24.075a.332.332,0,1,0,.611.258C138.285,155.513,136.072,149.468,132.766,144.361Z" transform="translate(42.333 178.433)" fill="#a12252" opacity="0.36"/>
    <path id="Path_98" data-name="Path 98" d="M127.937,125.8c-1.655-3.59-5-5.322-8.074-7.56-2.545-1.855-5.689-4.678-5.526-8.192.206-4.385,4.738-5.828,8.209-6.731.037,0,.025-.056,0-.059-4.67-.426-10.024,2.839-9.26,8.076,1.017,6.988,10.076,10.054,14.251,14.779C127.74,126.349,128.051,126.055,127.937,125.8Z" transform="translate(36.396 165.994)" fill="#a12252" opacity="0.36"/>
    <path id="Path_99" data-name="Path 99" d="M136.4,104.541a.047.047,0,0,0-.011-.089,8.556,8.556,0,0,0-9.6,6.44c-.91,3.827,1.972,6.642,4.98,8.633.152.1.292-.09.229-.229-1.325-2.919-5.059-3.974-4.4-7.741C128.441,106.747,132.324,105.555,136.4,104.541Z" transform="translate(45.186 166.735)" fill="#a12252" opacity="0.36"/>
    <path id="Path_100" data-name="Path 100" d="M116.191,102.555c-1.021.454-1.859,1.246-2.861,1.74a16.341,16.341,0,0,1-5.806,1.246.032.032,0,0,0,0,.062,12.35,12.35,0,0,0,5.735-.532c2.013-.78,3.574-2.713,5.794-1.243a.23.23,0,0,0,.332-.256C118.852,102.086,117.549,101.952,116.191,102.555Z" transform="translate(32.651 165.336)" fill="#a12252" opacity="0.36"/>
    <path id="Path_101" data-name="Path 101" d="M119.739,120.6a10.277,10.277,0,0,0-3.992-7.183c-.032-.019-.058.023-.038.048,2.071,2.649,4.094,6.684,2.587,10.011-.741,1.644-2.186,3.015-1.8,4.9a.214.214,0,0,0,.388.049C118.046,126.113,120.021,123.3,119.739,120.6Z" transform="translate(38.028 172.67)" fill="#a12252" opacity="0.36"/>
    <path id="Path_102" data-name="Path 102" d="M56.962,117.339a.016.016,0,0,0-.032,0c-.122,3.338.522,6.653.395,9.983a7.382,7.382,0,0,1-1.716,5.11c-1.759,1.792-4.238,1.6-6.486,2.153a.229.229,0,0,0,0,.438,7.312,7.312,0,0,0,8.5-4.606C58.841,126.246,57.158,121.545,56.962,117.339Z" transform="translate(-5.721 175.239)" fill="#a12252" opacity="0.36"/>
    <path id="Path_103" data-name="Path 103" d="M66.734,103.695a.062.062,0,0,0-.118-.032c-2.93,9.225,3.1,21.535-5.288,28.631-.192.166.015.465.236.411C71.714,129.986,65.313,110.687,66.734,103.695Z" transform="translate(2.337 166.257)" fill="#a12252" opacity="0.36"/>
    <path id="Path_104" data-name="Path 104" d="M80.686,108.311c-5.167-1.233-7.628,2.841-8.261,7.387-.877,6.323-2.953,22.708-13.125,18.622-.086-.034-.121.09-.058.137,5.481,4.034,10.243-2.6,12.313-7.158a25.009,25.009,0,0,0,2.036-8.019,27.327,27.327,0,0,1,.758-5.755c1.1-3.326,3.282-3.866,6.335-4.8a.214.214,0,0,0,0-.411Z" transform="translate(0.999 169.183)" fill="#a12252" opacity="0.36"/>
    <path id="Path_105" data-name="Path 105" d="M59.611,120.574c-.166-.193-.448-.025-.465.192-.1,1.311.4,2.513.429,3.837a9.746,9.746,0,0,1-1.183,4.862c-1.717,3.191-4.551,4.46-7.728,5.794-.071.031-.073.153.019.149a10.927,10.927,0,0,0,8.7-5.356C60.829,127.528,61.674,122.944,59.611,120.574Z" transform="translate(-4.637 177.311)" fill="#a12252" opacity="0.36"/>
    <path id="Path_106" data-name="Path 106" d="M80.023,96.587c-2.516,1.084-2.649,3.409-2.338,5.884a28.487,28.487,0,0,1,.588,5.317,15.245,15.245,0,0,1-2.368,5.847.319.319,0,0,0,.5.386,8.248,8.248,0,0,0,3.248-6.233c.214-3.863-2.246-7.646.462-11.082a.077.077,0,0,0-.089-.119Z" transform="translate(11.918 161.64)" fill="#a12252" opacity="0.36"/>
    <path id="Path_107" data-name="Path 107" d="M83.256,94.61c-.166-1.729-1.759-3.7-3.674-3.054a.064.064,0,0,0-.015.118c1.394.876,2.815,1.37,2.658,3.323a4.148,4.148,0,0,1-.713,1.987c-.428.618-1.129.969-1.507,1.614a.274.274,0,0,0,.236.411C82.239,99.23,83.4,96.185,83.256,94.61Z" transform="translate(14.321 158.264)" fill="#a12252" opacity="0.36"/>
    <path id="Path_108" data-name="Path 108" d="M68.087,93.867c-.045-.029-.09.037-.056.073,1.987,2.012,4.648,3.675,5.01,6.714.4,3.411-1.588,5.794-4.445,7.284-.212.11-.1.411.114.423,3.26.19,5.235-3.444,5.409-6.317C74.377,97.794,71.184,95.951,68.087,93.867Z" transform="translate(6.772 159.857)" fill="#a12252" opacity="0.36"/>
    <path id="Path_109" data-name="Path 109" d="M78.073,24.716c-1.836-.941-4.966.844-6.54,1.755a9.208,9.208,0,0,0-4.8,5.156.244.244,0,0,0,.469.129,10.01,10.01,0,0,1,5.3-4.81,18.321,18.321,0,0,1,3.311-1.255,8.854,8.854,0,0,0,2.265-.61.215.215,0,0,0,0-.367Z" transform="translate(5.927 114.359)" fill="#a12252" opacity="0.36"/>
    <path id="Path_110" data-name="Path 110" d="M90.387,25.173c-.573-1.6-3.113-2.018-4.569-1.6A4.458,4.458,0,0,0,82.9,26.728a5.141,5.141,0,0,0,.751,4.385,4.163,4.163,0,0,0,4.555,1.6.015.015,0,0,0,0-.026c-1.281-.732-2.691-.822-3.642-2.1a3.974,3.974,0,0,1-.539-3.426,3.339,3.339,0,0,1,2.113-2.4c1.525-.462,2.571.762,4,.751a.26.26,0,0,0,.252-.332Z" transform="translate(16.397 113.687)" fill="#a12252" opacity="0.36"/>
    <path id="Path_111" data-name="Path 111" d="M104.83,21.713c-1.407-1.137-8.278-3.015-7.754.508.382,2.547,3.718,2.535,5.654,2.649a.092.092,0,0,0,.025-.178c-1.333-.373-3.808-.747-4.549-2.068-.9-1.6,1.931-1.446,2.815-1.294a14.7,14.7,0,0,0,3.656.765C104.844,22.085,105,21.85,104.83,21.713Z" transform="translate(25.8 111.563)" fill="#a12252" opacity="0.36"/>
    <path id="Path_112" data-name="Path 112" d="M131.719,64.061a.448.448,0,0,0-.739.193,6.3,6.3,0,0,0,.237,4,6.8,6.8,0,0,0,1.739,3.348c.1.074.221-.03.229-.137a8.256,8.256,0,0,0-.967-3.069,7.09,7.09,0,0,1-.548-3.191c1.546,1.546,2.027,3.476,3.233,5.329a.077.077,0,0,0,.137-.06,10.571,10.571,0,0,0-3.32-6.413Z" transform="translate(47.898 140.242)" fill="#a12252" opacity="0.36"/>
    <path id="Path_113" data-name="Path 113" d="M135.982,81.971a.4.4,0,0,0-.485.274,6.217,6.217,0,0,0,.3,3.426,4.682,4.682,0,0,0,1.553,2.625.2.2,0,0,0,.3-.166,7.537,7.537,0,0,0-.918-2.508,7.237,7.237,0,0,1-.471-2.793,4.787,4.787,0,0,1,2.09,1.17.106.106,0,0,0,.166-.129,3.413,3.413,0,0,0-2.525-1.9Z" transform="translate(50.925 152.055)" fill="#a12252" opacity="0.36"/>
    <path id="Path_114" data-name="Path 114" d="M140.669,88.383a11.492,11.492,0,0,0-3.4.5,8.289,8.289,0,0,1-5.692-.685c-.029-.016-.064.025-.037.048a6.029,6.029,0,0,0,4.182,1.507,10.734,10.734,0,0,0,4.988-1.05C140.827,88.643,140.827,88.406,140.669,88.383Z" transform="translate(48.403 156.147)" fill="#a12252" opacity="0.36"/>
    <path id="Path_115" data-name="Path 115" d="M142.166,74.251c-2.649-.959-4.575.166-6.739,1.765-4.415,3.264-7.781,5.218-13.429,5.362a.062.062,0,0,0-.032.112c6.872,4.58,14.05-4.985,20.2-6.457a.411.411,0,0,0,0-.782Z" transform="translate(42.116 146.771)" fill="#a12252" opacity="0.36"/>
    <path id="Path_116" data-name="Path 116" d="M109.128,49.96c-4.966-7.589-8.622-16.234-3.12-24.43.018-.029-.016-.053-.041-.041-9.643,4.081-3.411,20.417,2.787,24.843C108.973,50.491,109.269,50.171,109.128,49.96Z" transform="translate(28.375 115.038)" fill="#a12252" opacity="0.36"/>
    <path id="Path_117" data-name="Path 117" d="M92.783,38.066c-1.416-.652-3.108-.959-3.6-2.649a6.827,6.827,0,0,1,1.1-4.83c.108-.2-.178-.455-.332-.258a6.577,6.577,0,0,0-1.644,5.64,3.73,3.73,0,0,0,4.438,2.467.2.2,0,0,0,.042-.366Z" transform="translate(19.997 118.167)" fill="#a12252" opacity="0.36"/>
    <path id="Path_118" data-name="Path 118" d="M82.777,44.7c-3.686.074-5.74-2.394-7.437-5.418-2.2-3.925-1.976-7.653-.607-11.8a.045.045,0,0,0-.077-.045c-3.553,3.974-2.815,9.521-.317,13.84,1.655,2.864,5.372,7.1,8.83,4.385C83.564,45.353,83.224,44.7,82.777,44.7Z" transform="translate(9.531 116.312)" fill="#a12252" opacity="0.36"/>
    <path id="Path_119" data-name="Path 119" d="M112.187,63.55c-2.878-8-12.744-16.058-20.2-8.2-8.442,8.9-6.736,24.928-3.7,35.538a.138.138,0,1,0,.274-.037c.1-9.524-1.7-19.072,2.125-28.164,1.677-3.99,4.678-8.916,9.852-7.846,4.2.869,8.2,6.055,10.825,9.181a.5.5,0,0,0,.822-.471Z" transform="translate(18.429 132.509)" fill="#a12252" opacity="0.36"/>
    <path id="Path_120" data-name="Path 120" d="M107.174,40.727c-.032-.029-.093,0-.077.045a91.1,91.1,0,0,0,4.8,9.813c1.8,3.627,2.826,7.83,4.991,11.23a.7.7,0,0,0,1.3-.352C119.092,54.419,112.1,45.2,107.174,40.727Z" transform="translate(32.386 125.021)" fill="#a12252" opacity="0.36"/>
    <path id="Path_121" data-name="Path 121" d="M140.123,150.524c-.4-12.407,1.183-30.57-6.577-41.221-.082-.112-.315-.049-.249.106,5.25,12.7,4.337,27.633,4.615,41.109.152,7.421-.227,14.742-.676,22.143-.515,8.512-3.572,15.691-5.1,23.955-.063.341.452.629.61.256,2.761-6.494,5.885-12.957,6.564-20.061a206.525,206.525,0,0,0,.813-26.289Z" transform="translate(48.796 169.941)" fill="#a12252" opacity="0.36"/>
    <path id="Path_122-2" data-name="Path 122" d="M85.3,54.612c-2.245-2.329-5.932-5.173-9.044-2.625-3.96,3.248-4.533,10.575-2.957,15.1.071.207.419.254.467,0,.782-4.126-.274-8.261,2.039-12.1,1.306-2.169,2.9-3.276,5.387-2.18,1.346.595,2.56,1.463,3.9,2.069a.166.166,0,0,0,.2-.262Z" transform="translate(9.703 131.752)" fill="#004056" opacity="0.34"/>
    <path id="Path_123" data-name="Path 123" d="M85.59,65.973c-6.27,3.929-17.649,5.07-22.349,11.236-2.21,2.9-2,6.635-1.979,10.084a114.4,114.4,0,0,0,1.1,18.67.811.811,0,0,0,1.551,0,63.247,63.247,0,0,0,.7-14.036C64.4,87.01,62.1,81.383,65.491,77.2c4.819-5.939,14.683-5.766,20.528-10.651C86.343,66.28,85.937,65.755,85.59,65.973Z" transform="translate(2.324 141.543)" fill="#004056" opacity="0.34"/>
    <path id="Path_124" data-name="Path 124" d="M61.883,52.672c0-4.486-.588-9.23-3.263-12.941-.148-.2-.519-.156-.51.137.185,4.933.677,9.7.47,14.662-.166,3.9-.889,7.811.685,11.457a.471.471,0,0,0,.811,0C61.966,62.045,61.889,56.978,61.883,52.672Z" transform="translate(0.278 124.296)" fill="#004056" opacity="0.34"/>
    <path id="Path_125" data-name="Path 125" d="M141.156,61.795c-5.984,5.159-12.25,8.259-19.279,11.69-5.689,2.775-11.112,6.077-14.413,11.647a63.189,63.189,0,0,0-7.045,21.19c-1.346,8.167-.274,17.649-5.777,24.445-.347.428.088,1.137.623.81,5.07-3.089,6.158-8.77,6.917-14.32,1.288-9.436,2.864-18.4,6.7-27.178,3.808-8.742,11.357-12.226,19.344-16.42,5.307-2.786,10.794-5.959,13.184-11.706C141.472,61.788,141.257,61.707,141.156,61.795Z" transform="translate(24.142 138.815)" fill="#005d8d" opacity="0.34"/>
    <path id="Path_126" data-name="Path 126" d="M92.879,55.77a.153.153,0,0,0-.284.078c-.355,2.649,1.069,5.251,1.918,7.691a13.889,13.889,0,0,1,.411,9.017.43.43,0,0,0,.623.48C101.72,70.016,95.164,59.365,92.879,55.77Z" transform="translate(22.844 134.842)" fill="#004056" opacity="0.34"/>
    <path id="Path_127" data-name="Path 127" d="M96.494,55.243c-1.821-3.048-4.8,3.179-5.159,4.318a34.755,34.755,0,0,0-1.537,13.3.288.288,0,1,0,.576,0c.373-3.216.717-6.413,1.4-9.592A19.014,19.014,0,0,1,93.5,57.843c.822-1.452,1.692-1.387,2.887-2.192A.311.311,0,0,0,96.494,55.243Z" transform="translate(20.977 133.999)" fill="#004056" opacity="0.34"/>
    <path id="Path_128" data-name="Path 128" d="M139.608,95.53a.43.43,0,0,0-.777-.1c-6.6,10.38-24.8-.411-34.238-1.742-.016,0-.029.018-.011.029C108.473,95.725,143.107,108.442,139.608,95.53Z" transform="translate(30.733 159.743)" fill="#a12252" opacity="0.36"/>
    <path id="Path_129" data-name="Path 129" d="M134.482,100.932a.448.448,0,0,0-.423-.323c-.734.023-.9.591-1.521.867a2.192,2.192,0,0,1-2.113-.548,20.28,20.28,0,0,1-3.126-3.152.047.047,0,0,0-.077.045,8.51,8.51,0,0,0,3.419,4.733,2.878,2.878,0,0,0,2.483.3C133.907,102.561,134.755,101.834,134.482,100.932Z" transform="translate(45.578 162.418)" fill="#a12252" opacity="0.36"/>
    <path id="Path_130" data-name="Path 130" d="M128.981,86.14a.215.215,0,0,0-.151.363c1.114.939,2.89,1.621,3.326,3.12a4.862,4.862,0,0,1-1.553,4.159,29.755,29.755,0,0,1-6.483,4.849.015.015,0,0,0,.008.029,12.348,12.348,0,0,0,8.711-6.016,4.385,4.385,0,0,0-3.859-6.5Z" transform="translate(43.539 154.796)" fill="#a12252" opacity="0.36"/>
    <path id="Path_32-3" data-name="Path 32" d="M77.322,51.88a54.651,54.651,0,0,1-9.169,7.332c-3.486,2.424-5.892,2.408-5.284,7.331.332,2.625,1.529,8.486,5.4,5.522,1.291-.993,1.854-2.912,2.9-4.111,1.435-1.655,4.059-2.153,5.3-3.563,1.135-1.3.677-3.944.6-5.565a28.972,28.972,0,0,1,.26-6.949Z" transform="translate(3.336 132.339)" fill="#92ceff" opacity="0.43"/>
  </g>
</svg>
