<svg xmlns="http://www.w3.org/2000/svg" xmlns:xlink="http://www.w3.org/1999/xlink" width="73" height="59" viewBox="0 0 73 59">
  <defs>
    <clipPath id="clip-path">
      <rect id="Rectangle_2140" data-name="Rectangle 2140" width="73" height="59" transform="translate(51 221)" fill="#bbbaba"/>
    </clipPath>
  </defs>
  <g id="Nutrition" transform="translate(-51 -221)" clip-path="url(#clip-path)">
    <g id="diet_1_" data-name="diet (1)" transform="translate(54.574 217.574)">
      <rect id="Rectangle_2165" data-name="Rectangle 2165" width="6.464" height="3.948" transform="translate(8.556 10.312)" fill="#48c1e1"/>
      <path id="Path_8799" data-name="Path 8799" d="M16.353,9.669a.645.645,0,0,1-.643.643H7.865a.645.645,0,0,1-.643-.643V5.034a.645.645,0,0,1,.643-.643H15.71a.645.645,0,0,1,.643.643V9.669Z" fill="#046699"/>
      <g id="Group_2731" data-name="Group 2731" opacity="0.1">
        <path id="Path_8800" data-name="Path 8800" d="M9.9,9.669V5.034a.645.645,0,0,1,.643-.643H7.865a.645.645,0,0,0-.643.643V9.669a.645.645,0,0,0,.643.643h2.682A.645.645,0,0,1,9.9,9.669Z"/>
      </g>
      <path id="Path_8801" data-name="Path 8801" d="M6.5,44.993a.685.685,0,0,1-.1-.338c0-.856,1.757-1.55,3.925-1.55a8.771,8.771,0,0,1,2.091.239,23.3,23.3,0,0,1-.694-5.676.646.646,0,0,1,.646-.647H13.5a4.208,4.208,0,0,1-.025-.449,4.134,4.134,0,0,1,2.884-3.943A3.9,3.9,0,0,1,18.246,27.4a3.856,3.856,0,0,1-.17-.644,3.9,3.9,0,0,1,1.41-3.714v-5.2a3.6,3.6,0,0,0-3.581-3.589H7.67A3.6,3.6,0,0,0,4.09,17.848V46.433A9.5,9.5,0,0,1,6.5,44.993Z" fill="#a2dff9"/>
      <path id="Path_8802" data-name="Path 8802" d="M16.359,32.63A3.9,3.9,0,0,1,18.246,27.4a3.856,3.856,0,0,1-.17-.644,3.9,3.9,0,0,1,1.41-3.714V20.8H4.09V34.08H14.31A4.13,4.13,0,0,1,16.359,32.63Z" fill="#046699"/>
      <path id="Path_8803" data-name="Path 8803" d="M6.5,44.993a.685.685,0,0,1-.1-.338c0-.529.671-1,1.7-1.275V17.848a3.6,3.6,0,0,1,3.581-3.589H7.67A3.6,3.6,0,0,0,4.09,17.848V46.433A9.5,9.5,0,0,1,6.5,44.993Z" opacity="0.1"/>
      <path id="Path_8804" data-name="Path 8804" d="M31.368,24.446a3.91,3.91,0,0,1,.057.663,3.9,3.9,0,0,1,3.435,2.927,4.1,4.1,0,0,1,2.417-1.088,7,7,0,0,1,2.041-4.72c.047-.047.094-.092.142-.137a8.6,8.6,0,0,0-2.389-4.608.673.673,0,0,0-.953,0l-5.392,5.4A3.879,3.879,0,0,1,31.368,24.446Z" fill="#ef5050"/>
      <path id="Path_8805" data-name="Path 8805" d="M37.669,26.929a4.126,4.126,0,0,1,3.963,2.99,3.544,3.544,0,0,1,.38.246,3.528,3.528,0,0,1,3.126-1.577c.092-.083.183-.168.271-.256l.074-.077A4.141,4.141,0,0,1,46.722,26.5a7.008,7.008,0,0,0,.237-5.7.221.221,0,0,0-.125-.125,6.984,6.984,0,0,0-9.557,6.274C37.407,26.936,37.537,26.929,37.669,26.929Z" fill="#89c947"/>
      <g id="Group_2732" data-name="Group 2732">
        <path id="Path_8806" data-name="Path 8806" d="M50.26,32.267a6.4,6.4,0,0,1,3.126-1.725,4.124,4.124,0,0,0-8.015-1.935A3.516,3.516,0,0,1,48.478,32.1a3.5,3.5,0,0,1,1.489.484C50.062,32.475,50.158,32.369,50.26,32.267Z" fill="#ffc502"/>
        <path id="Path_8807" data-name="Path 8807" d="M16.359,32.63a4.134,4.134,0,0,0-2.884,3.943,4.206,4.206,0,0,0,.025.449h5.873a6.436,6.436,0,0,1-.767-2.391A3.9,3.9,0,0,1,16.359,32.63Z" fill="#ffc502"/>
      </g>
      <path id="Path_8808" data-name="Path 8808" d="M57.278,30.954a.2.2,0,0,0-.046-.069.206.206,0,0,0-.069-.046,6.4,6.4,0,0,0-6.9,1.427c-.1.1-.2.209-.293.317a3.512,3.512,0,0,1,1.424,4.438h5.174A6.434,6.434,0,0,0,57.278,30.954Z" fill="#89c947"/>
      <path id="Path_8809" data-name="Path 8809" d="M16.359,32.63a4.134,4.134,0,0,0-2.884,3.943,4.206,4.206,0,0,0,.025.449h5.873a6.436,6.436,0,0,1-.767-2.391A3.9,3.9,0,0,1,16.359,32.63Z" fill="#ffc502"/>
      <g id="Group_2733" data-name="Group 2733">
        <path id="Path_8810" data-name="Path 8810" d="M19.016,31.521a.2.2,0,0,1,.046-.069.205.205,0,0,1,.069-.046,6.406,6.406,0,0,1,7.5,2.123,8.651,8.651,0,0,1-.16-1.655.674.674,0,0,1,.673-.675h6.4c0-.046,0-.092,0-.138a4.126,4.126,0,0,1,1.316-3.026,3.9,3.9,0,0,0-3.435-2.927,3.9,3.9,0,0,0-7.16-2.142,3.907,3.907,0,0,0-6.189,3.793,3.852,3.852,0,0,0,.17.644,3.9,3.9,0,0,0,.359,7.227A6.429,6.429,0,0,1,19.016,31.521Z" fill="#368c0e"/>
        <path id="Path_8811" data-name="Path 8811" d="M51.638,35a3.521,3.521,0,0,0-3.16-2.9,3.526,3.526,0,0,0-6.467-1.935,3.544,3.544,0,0,0-.38-.246,4.148,4.148,0,0,1,.161,1.144c0,.046,0,.092,0,.138h1.254a.674.674,0,0,1,.674.675,8.609,8.609,0,0,1-1.7,5.147h9.375A3.5,3.5,0,0,0,51.638,35Z" fill="#368c0e"/>
      </g>
      <path id="Path_8812" data-name="Path 8812" d="M41.789,31.2c0-.046,0-.092,0-.138a4.124,4.124,0,1,0-8.248,0c0,.046,0,.092,0,.138Z" fill="#f7931e"/>
      <path id="Path_8813" data-name="Path 8813" d="M26.634,33.53a6.406,6.406,0,0,0-7.5-2.123.205.205,0,0,0-.115.115,6.436,6.436,0,0,0,.357,5.5H27.9c-.008-.154-.024-.307-.044-.46A8.6,8.6,0,0,1,26.634,33.53Z" fill="#89c947"/>
      <path id="Path_8814" data-name="Path 8814" d="M42.016,37.022a8.609,8.609,0,0,0,1.7-5.147.674.674,0,0,0-.674-.675h-15.9a.674.674,0,0,0-.673.675,8.609,8.609,0,0,0,1.7,5.147Z" fill="#ef5050"/>
      <path id="Path_8815" data-name="Path 8815" d="M13.543,43.765a6.96,6.96,0,0,1,3.211-.659c2.167,0,3.925.694,3.925,1.55a.684.684,0,0,1-.1.338,8.734,8.734,0,0,1,5.459,6.738L45.75,44.244a3.464,3.464,0,0,1,4.639,2.6l.172.927,6.74-3.979a23.245,23.245,0,0,0,.808-6.12.646.646,0,0,0-.646-.647H12.375a.646.646,0,0,0-.646.647,23.3,23.3,0,0,0,.694,5.676A4.59,4.59,0,0,1,13.543,43.765Z" fill="#fff"/>
      <g id="Group_2734" data-name="Group 2734" opacity="0.1">
        <path id="Path_8816" data-name="Path 8816" d="M13.543,43.765a6.6,6.6,0,0,1,2.834-.651,23.326,23.326,0,0,1-.636-5.445.646.646,0,0,1,.646-.647H12.375a.646.646,0,0,0-.646.647,23.3,23.3,0,0,0,.694,5.676A4.59,4.59,0,0,1,13.543,43.765Z"/>
      </g>
      <path id="Path_8817" data-name="Path 8817" d="M16.321,58.639l-.033-.179a3.447,3.447,0,0,1,2.171-3.847l7.583-2.881a8.734,8.734,0,0,0-5.459-6.738,3.76,3.76,0,0,1-2.711,1.148c.993.794,1.448,1.629,1.043,2.086-.536.605-2.376.318-4.109-.642a7.852,7.852,0,0,1-1.263-.859,7.828,7.828,0,0,1-1.262.859c-1.733.959-3.573,1.247-4.109.642-.4-.457.05-1.292,1.043-2.086A3.761,3.761,0,0,1,6.5,44.993a8.612,8.612,0,0,0-5.54,7.858c0,4.755,4.193,8.61,9.364,8.61h6.429a10.214,10.214,0,0,0,1.888-.175A3.451,3.451,0,0,1,16.321,58.639Z" fill="#ef5050"/>
      <path id="Path_8818" data-name="Path 8818" d="M16.321,58.639a3.459,3.459,0,0,0,3.406,2.823l29.21-.011a3.453,3.453,0,0,0,3.4-4.074L50.39,46.84a3.464,3.464,0,0,0-4.639-2.6L18.459,54.612a3.447,3.447,0,0,0-2.171,3.847Z" fill="#f7931e"/>
      <path id="Path_8819" data-name="Path 8819" d="M5.016,52.852a8.37,8.37,0,0,1,3.622-6.8A3.177,3.177,0,0,1,6.5,44.993a8.612,8.612,0,0,0-5.54,7.858c0,4.755,4.193,8.61,9.364,8.61H14.38C9.209,61.461,5.016,57.607,5.016,52.852Z" opacity="0.1"/>
      <path id="Path_8820" data-name="Path 8820" d="M20.679,44.656c0-.856-1.757-1.55-3.925-1.55a6.96,6.96,0,0,0-3.211.659,6.957,6.957,0,0,0-3.211-.659c-2.167,0-3.925.694-3.925,1.55,0,.7,1.184,1.3,2.807,1.486-.993.794-1.447,1.629-1.043,2.086.536.605,2.376.318,4.109-.642a7.822,7.822,0,0,0,1.263-.859,7.858,7.858,0,0,0,1.263.859c1.733.959,3.573,1.247,4.109.642.4-.457-.05-1.292-1.043-2.086C19.495,45.951,20.679,45.358,20.679,44.656Z" fill="#368c0e"/>
      <path id="Path_8821" data-name="Path 8821" d="M64.873,50.2l-.251-1.356a.865.865,0,0,0-1.008-.691l-9.7,1.783,6.2-4.142a.858.858,0,0,0,.272-1.138l-.7-1.242a.868.868,0,0,0-1.2-.319l-7.918,4.674,1.546,8.346,9.082,1.632a.865.865,0,0,0,1.01-.722l.209-1.4a.859.859,0,0,0-.662-.967l-7.273-1.668,9.7-1.783A.862.862,0,0,0,64.873,50.2Z" fill="#89c947"/>
      <g id="Group_2735" data-name="Group 2735" opacity="0.1">
        <path id="Path_8822" data-name="Path 8822" d="M52.166,56.431a3.458,3.458,0,0,1-3.229,2.207l-29.21.011a3.462,3.462,0,0,1-3.216-2.171,3.424,3.424,0,0,0-.224,1.981l.033.179a3.459,3.459,0,0,0,3.406,2.823l29.21-.011a3.453,3.453,0,0,0,3.4-4.074Z"/>
      </g>
      <path id="Path_8823" data-name="Path 8823" d="M21.193,28.533h.017a.965.965,0,0,0,.964-.948,1.071,1.071,0,0,1,1.091-1.053,1.059,1.059,0,0,1,.773.348.965.965,0,0,0,1.424-1.3,3,3,0,0,0-5.217,1.974A.965.965,0,0,0,21.193,28.533Z"/>
      <path id="Path_8824" data-name="Path 8824" d="M26.043,30.084a.964.964,0,0,0,1.24-.569.83.83,0,0,1,1.063-.488.815.815,0,0,1,.472.45.965.965,0,0,0,1.776-.755,2.756,2.756,0,0,0-5.119.122A.965.965,0,0,0,26.043,30.084Z"/>
      <path id="Path_8825" data-name="Path 8825" d="M35.22,22.736a.962.962,0,0,0,.683-.283l.909-.911a.965.965,0,1,0-1.366-1.363l-.909.911a.965.965,0,0,0,.683,1.646Z"/>
      <path id="Path_8826" data-name="Path 8826" d="M30.809,32.631H29.524a.965.965,0,1,0,0,1.929h1.286a.965.965,0,1,0,0-1.929Z"/>
      <path id="Path_8827" data-name="Path 8827" d="M39.381,34.56h1.286a.965.965,0,1,0,0-1.929H39.381a.965.965,0,1,0,0,1.929Z"/>
      <path id="Path_8828" data-name="Path 8828" d="M65.821,50.024l-.251-1.356A1.83,1.83,0,0,0,63.439,47.2l-5.114.939,2.316-1.548a1.823,1.823,0,0,0,.576-2.415l-.7-1.241a1.824,1.824,0,0,0-1.832-.913,24.4,24.4,0,0,0,.391-4.357,1.613,1.613,0,0,0-.959-1.473,7.4,7.4,0,0,0,.059-5.6,1.171,1.171,0,0,0-.654-.656,7.338,7.338,0,0,0-2.727-.524q-.18,0-.358.009A5.085,5.085,0,0,0,48.308,24.7a7.948,7.948,0,0,0-.45-4.246,1.186,1.186,0,0,0-.667-.673,7.928,7.928,0,0,0-7.166.657A9.54,9.54,0,0,0,37.755,16.8a1.637,1.637,0,0,0-2.318,0l-4.67,4.681A4.849,4.849,0,0,0,27.53,20.25a4.879,4.879,0,0,0-3.483,1.462,4.848,4.848,0,0,0-3.6-.256V17.848A4.554,4.554,0,0,0,15.984,13.3V11.251a1.609,1.609,0,0,0,1.333-1.582V5.034A1.61,1.61,0,0,0,15.71,3.426H7.865A1.61,1.61,0,0,0,6.258,5.034V9.669a1.609,1.609,0,0,0,1.333,1.582V13.3a4.554,4.554,0,0,0-4.466,4.551V46A9.214,9.214,0,0,0,0,52.852c0,5.279,4.633,9.574,10.329,9.574l38.609-.011a4.415,4.415,0,0,0,4.369-5.106l7.711,1.386a1.843,1.843,0,0,0,.325.029,1.829,1.829,0,0,0,1.81-1.558l.209-1.4a1.824,1.824,0,0,0-1.4-2.05l-2.718-.624,5.109-.939a1.827,1.827,0,0,0,1.469-2.129ZM54.793,31.348a5.41,5.41,0,0,1,1.7.273,5.463,5.463,0,0,1-.461,4.436h-2.6l.829-.831A.965.965,0,0,0,52.9,33.864l-.439.44a4.474,4.474,0,0,0-1.037-1.781A5.394,5.394,0,0,1,54.793,31.348Zm-5.44-4.833a3.168,3.168,0,0,1,3.159,3.169c0,.032,0,.064,0,.1a7.329,7.329,0,0,0-2.753,1.633c-.127-.048-.256-.093-.389-.13A4.475,4.475,0,0,0,46.7,27.968,3.154,3.154,0,0,1,49.353,26.515Zm-5.1-5.373a5.976,5.976,0,0,1,1.919.316,6.043,6.043,0,0,1-.239,4.455A5.123,5.123,0,0,0,44.7,27.626a4.553,4.553,0,0,0-.515.059,4.5,4.5,0,0,0-2.051.935,5.1,5.1,0,0,0-.73-1.013l2.212-2.217a.965.965,0,0,0-1.366-1.363L39.833,26.45a5.042,5.042,0,0,0-1.48-.439,6.02,6.02,0,0,1,5.9-4.869ZM36.863,36.057h-.836a.964.964,0,0,0-1.795,0h-.984a.964.964,0,0,0-1.5-1.185l-.909.911a.96.96,0,0,0-.191.274H28.681a7.63,7.63,0,0,1-1.237-3.893h15.3a7.63,7.63,0,0,1-1.237,3.893H39.467a.961.961,0,0,0-.191-.274l-.909-.911a.964.964,0,0,0-1.5,1.185Zm-2.243-5.822a3.156,3.156,0,0,1,6.1,0Zm1.973-11.861a7.628,7.628,0,0,1,1.822,3.407,7.945,7.945,0,0,0-1.224,1.756.958.958,0,0,0-.5-.142H35.4a.965.965,0,0,0,0,1.929h1.128a7.987,7.987,0,0,0-.148.808,5.045,5.045,0,0,0-1.091.426,4.87,4.87,0,0,0-2.969-2.268v-.008a4.883,4.883,0,0,0-.388-1.236ZM21.423,23.2a2.976,2.976,0,0,1,.509-.044,2.915,2.915,0,0,1,1.756.586.965.965,0,0,0,1.381-.24,2.921,2.921,0,0,1,1.951-1.277,2.976,2.976,0,0,1,.51-.044,2.926,2.926,0,0,1,2.888,2.431,2.957,2.957,0,0,1,.043.5.965.965,0,0,0,.88.959,2.936,2.936,0,0,1,2.422,1.73,5.086,5.086,0,0,0-1.115,2.435h-5.5a1.64,1.64,0,0,0-1.516,1.02,7.361,7.361,0,0,0-6.859-.744,1.169,1.169,0,0,0-.653.655,7.39,7.39,0,0,0-.45,1.715,2.935,2.935,0,0,1,.981-4.6.965.965,0,0,0,.5-1.2,2.911,2.911,0,0,1-.128-.483A2.944,2.944,0,0,1,21.423,23.2Zm.607,12.6.263.264H19.976a5.466,5.466,0,0,1-.177-3.868,5.427,5.427,0,0,1,5.934,1.756,9.529,9.529,0,0,0,.738,2.113H25.018L23.4,34.431a.965.965,0,0,0-1.366,1.363Zm-6.051-1.937a4.85,4.85,0,0,0,1.759,1.458,7.46,7.46,0,0,0,.184.743H14.483A3.173,3.173,0,0,1,15.979,33.857ZM8.187,5.355h7.2V9.347h-7.2Zm5.868,5.921v2.018H9.52V11.277Zm-9,10.484h6.264a.965.965,0,0,0,0-1.929H5.054V17.848A2.623,2.623,0,0,1,7.67,15.224h8.235a2.623,2.623,0,0,1,2.616,2.624v1.983h-1.8a.965.965,0,0,0,0,1.929h1.8v.856a4.862,4.862,0,0,0-1.4,4.307l0,.01a4.875,4.875,0,0,0-2.044,4.844c.019.111.043.219.069.327a5.115,5.115,0,0,0-1.286,1.01H5.054Zm0,13.284h7.693a5.061,5.061,0,0,0-.21,1.013h-.163a1.613,1.613,0,0,0-1.61,1.612,24.41,24.41,0,0,0,.418,4.506c-.277-.022-.561-.034-.851-.034a8.79,8.79,0,0,0-3.129.521c-1.3.514-1.662,1.244-1.741,1.75-.138.069-.274.141-.408.215V35.044Zm12.215,11.85a3.652,3.652,0,0,1,.683.685h-.036a5.994,5.994,0,0,1-2.642-.838,6.952,6.952,0,0,1-1.107-.752.965.965,0,0,0-1.247,0,6.912,6.912,0,0,1-1.106.751,5.993,5.993,0,0,1-2.643.838H9.135a3.648,3.648,0,0,1,.683-.685.965.965,0,0,0-.491-1.711,4.608,4.608,0,0,1-1.815-.524,5.494,5.494,0,0,1,2.821-.588,6.013,6.013,0,0,1,2.739.536.965.965,0,0,0,.944,0,6.016,6.016,0,0,1,2.739-.536,5.494,5.494,0,0,1,2.821.588,4.606,4.606,0,0,1-1.816.524.965.965,0,0,0-.491,1.711ZM1.929,52.852a7.578,7.578,0,0,1,4.353-6.7,4.145,4.145,0,0,0,1.109.568,2.285,2.285,0,0,0-.325.954,1.571,1.571,0,0,0,.384,1.189,2.19,2.19,0,0,0,1.721.642,7.967,7.967,0,0,0,3.577-1.079q.422-.233.8-.491.373.257.8.491a7.97,7.97,0,0,0,3.577,1.079h0a2.189,2.189,0,0,0,1.721-.642,1.57,1.57,0,0,0,.384-1.19,2.285,2.285,0,0,0-.325-.954,4.153,4.153,0,0,0,1.109-.568,7.8,7.8,0,0,1,4.134,4.963L18.116,53.71a4.411,4.411,0,0,0-2.777,4.925l.033.179a4.393,4.393,0,0,0,.695,1.683H10.329C5.7,60.5,1.929,57.067,1.929,52.852Zm48.928,6.737a2.5,2.5,0,0,1-1.92.9H47.924l-.633-3.415a.965.965,0,0,0-1.9.351l.568,3.065H42.643l-.428-2.31a.965.965,0,0,0-1.9.351l.363,1.959-7.72,0-.581-3.137a.965.965,0,0,0-1.9.352L31,60.492l-11.272,0h0a2.494,2.494,0,0,1-2.457-2.034l-.033-.179a2.482,2.482,0,0,1,1.565-2.77l3.791-1.44.282,1.524a.965.965,0,0,0,.947.789A.978.978,0,0,0,24,56.37a.965.965,0,0,0,.773-1.124l-.346-1.869,5.628-2.138a.965.965,0,0,0-.685-1.8l-2.619.995a9.775,9.775,0,0,0-5.125-6.018c-.079-.505-.439-1.235-1.741-1.75a8.79,8.79,0,0,0-3.129-.521,9.786,9.786,0,0,0-2.246.25v-.583a.964.964,0,0,0-1.561-.758,22.535,22.535,0,0,1-.251-3.065H44.115a.965.965,0,1,0,0-1.929h-.395a9.549,9.549,0,0,0,.961-4.182A1.641,1.641,0,0,0,43.2,30.243a2.542,2.542,0,0,1,1.315-.658,2.6,2.6,0,0,1,.444-.039,2.549,2.549,0,0,1,2.516,2.118,2.58,2.58,0,0,1,.037.436.965.965,0,0,0,.88.96,2.557,2.557,0,0,1,2.294,2.108,2.521,2.521,0,0,1-.007.889H49.646a.965.965,0,1,0,0,1.929h7.5a22.235,22.235,0,0,1-.677,5.175l-5.228,3.086a4.428,4.428,0,0,0-5.831-2.905l-10.767,4.09a.965.965,0,0,0,.685,1.8l1.418-.539.44,2.378a.965.965,0,0,0,.947.789.977.977,0,0,0,.177-.016.965.965,0,0,0,.773-1.124L38.578,48l7.515-2.855a2.5,2.5,0,0,1,2.117.156,2.478,2.478,0,0,1,1.232,1.715l1.951,10.536A2.467,2.467,0,0,1,50.857,59.589ZM54.3,52.038a.965.965,0,0,0-.041,1.889l7.182,1.647-.179,1.2-8.326-1.5-1.3-7.027,7.252-4.281.6,1.07-6.117,4.089a.965.965,0,0,0,.71,1.751l9.608-1.765.214,1.155Z"/>
    </g>
  </g>
</svg>
