<svg xmlns="http://www.w3.org/2000/svg" xmlns:xlink="http://www.w3.org/1999/xlink" width="21" height="21" viewBox="0 0 21 21">
  <defs>
    <clipPath id="clip-path">
      <rect id="Rectangle_2163" data-name="Rectangle 2163" width="21" height="21" transform="translate(180 24)" fill="#3a3939"/>
    </clipPath>
  </defs>
  <g id="Mask_Group_54" data-name="Mask Group 54" transform="translate(-180 -24)" clip-path="url(#clip-path)">
    <g id="examination_1_" data-name="examination (1)" transform="translate(136.174 24.111)">
      <g id="Group_3032" data-name="Group 3032" transform="translate(45.601)">
        <g id="Group_3031" data-name="Group 3031">
          <path id="Path_9446" data-name="Path 9446" d="M171.819,1.79h.789a.9.9,0,0,0,.806-.508,1.27,1.27,0,0,1,.82,1.188.3.3,0,0,0,.608,0,1.879,1.879,0,0,0-1.37-1.808A.9.9,0,0,0,172.609,0h-.789a.895.895,0,0,0,0,1.79Zm0-1.181h.789a.287.287,0,0,1,0,.573h-.789a.287.287,0,0,1,0-.573Z" transform="translate(-166.354)" fill="#646363" stroke="#646363" stroke-width="0.222"/>
          <path id="Path_9447" data-name="Path 9447" d="M347.934,76.619l-.021-.023a3.358,3.358,0,0,0-4.729,0l-1.01,1a.3.3,0,1,0,.429.432l1.01-1a2.748,2.748,0,0,1,3.861-.011c.881,1.089.835,2.595-.135,4.478a.3.3,0,1,0,.54.279C348.974,79.647,348.993,77.913,347.934,76.619Z" transform="translate(-331.271 -72.863)" fill="#646363" stroke="#646363" stroke-width="0.222"/>
          <path id="Path_9448" data-name="Path 9448" d="M378.975,252.871a1.287,1.287,0,1,0,1.287,1.287A1.287,1.287,0,0,0,378.975,252.871Zm0,1.965a.678.678,0,1,1,.678-.678.678.678,0,0,1-.678.678Z" transform="translate(-365.576 -243.648)" fill="#646363" stroke="#646363" stroke-width="0.222"/>
          <path id="Path_9449" data-name="Path 9449" d="M59,7.876A2.634,2.634,0,0,0,58.138,13v1.416a.9.9,0,0,0,.591.842v.608a4.3,4.3,0,1,1-8.6,0V13.557a.9.9,0,0,0,.611-.849v-.878h1.121a29.56,29.56,0,0,0,2.6,2.731,2.32,2.32,0,0,0,3.15,0,.3.3,0,1,0-.414-.445,1.712,1.712,0,0,1-2.323,0c-1.7-1.575-7.052-6.938-4.6-9.963a2.748,2.748,0,0,1,3.861.011l2.336,2.32a.3.3,0,1,0,.428-.432L54.562,3.734a3.357,3.357,0,0,0-4.729,0l-.021.023a3.538,3.538,0,0,0-.737,2.815,6.562,6.562,0,0,0,.493,1.7,3.655,3.655,0,0,1-3.359-3.649V2.47a1.279,1.279,0,0,1,.89-1.211.9.9,0,0,0,.817.532H48.7A.895.895,0,1,0,48.7,0h-.789a.9.9,0,0,0-.858.64A1.891,1.891,0,0,0,45.6,2.47v6.9a1.87,1.87,0,0,0,1.582,1.855.9.9,0,0,0,.85.614h.918v.878a.9.9,0,0,0,.572.834v2.322a4.908,4.908,0,1,0,9.816,0v-.608a.9.9,0,0,0,.591-.842V12.975A2.634,2.634,0,0,0,59,7.876ZM47.915.608H48.7a.287.287,0,0,1,0,.573h-.789a.287.287,0,0,1,0-.573ZM47.2,10.6a1.265,1.265,0,0,1-.993-1.24V6.822a4.242,4.242,0,0,0,3.636,2.069h.014q.175.339.384.691c.092.155.189.308.288.46h-2.5a.9.9,0,0,0-.831.56ZM49.846,13a.287.287,0,0,1-.287-.287V11.527a.3.3,0,0,0-.3-.3H48.031a.287.287,0,1,1,0-.573h2.915q.208.291.426.573h-.938a.3.3,0,0,0-.3.3v1.181a.287.287,0,0,1-.284.286Zm9.475,1.42h0a.287.287,0,1,1-.574,0V13.131c.083.008.168.012.254.012a2.649,2.649,0,0,0,.319-.02v1.291ZM59,12.536a2.025,2.025,0,1,1,2.026-2.026A2.025,2.025,0,0,1,59,12.536Z" transform="translate(-45.601)" fill="#646363" stroke="#646363" stroke-width="0.222"/>
        </g>
      </g>
    </g>
  </g>
</svg>
