<svg xmlns="http://www.w3.org/2000/svg" xmlns:xlink="http://www.w3.org/1999/xlink" width="17" height="16" viewBox="0 0 17 16">
  <defs>
    <clipPath id="clip-path">
      <rect id="Rectangle_60" data-name="Rectangle 60" width="17" height="16" transform="translate(30 337)" fill="#bbbaba"/>
    </clipPath>
  </defs>
  <g id="Mask_Group_36" data-name="Mask Group 36" transform="translate(-30 -337)" clip-path="url(#clip-path)">
    <g id="secure" transform="translate(30 336.5)">
      <g id="Group_2893" data-name="Group 2893">
        <path id="Path_9296" data-name="Path 9296" d="M11.909,6.632H10.275V4.318a1.77,1.77,0,1,0-3.54,0V6.632H5.1V4.318a3.4,3.4,0,1,1,6.807,0V6.632Z" fill="#685e68"/>
        <path id="Path_9297" data-name="Path 9297" d="M9.006.951A3.409,3.409,0,0,0,6.1,4.318V6.632h-1V4.318a3.407,3.407,0,0,1,3.4-3.4,3.466,3.466,0,0,1,.5.036Z" fill="#554e56"/>
        <path id="Path_9298" data-name="Path 9298" d="M12.2,13.929H4.814a.528.528,0,0,1-.528-.528V6.562a.528.528,0,0,1,.528-.528H12.2a.528.528,0,0,1,.528.528V13.4A.528.528,0,0,1,12.2,13.929Z" fill="#da0010"/>
        <path id="Path_9299" data-name="Path 9299" d="M9.354,11.988h-1.7a.158.158,0,0,1-.157-.176l.256-2.277A.2.2,0,0,0,7.724,9.4a.928.928,0,1,1,1.562,0,.2.2,0,0,0-.032.131l.256,2.277A.158.158,0,0,1,9.354,11.988Z" fill="#554e56"/>
        <path id="Path_9300" data-name="Path 9300" d="M5.811,13.929h-1a.528.528,0,0,1-.529-.528V6.562a.529.529,0,0,1,.529-.529h1a.529.529,0,0,0-.529.529V13.4A.528.528,0,0,0,5.811,13.929Z" fill="#da0010"/>
        <path id="Path_9301" data-name="Path 9301" d="M15.951,16.1H1.06a.8.8,0,0,1-.8-.8V11.759a.8.8,0,0,1,.8-.8H15.951a.8.8,0,0,1,.8.8V15.3A.8.8,0,0,1,15.951,16.1Z" fill="#005d8d"/>
        <path id="Path_9302" data-name="Path 9302" d="M2.057,16.1h-1a.8.8,0,0,1-.8-.8V11.759a.8.8,0,0,1,.8-.8h1a.8.8,0,0,0-.8.8V15.3A.8.8,0,0,0,2.057,16.1Z" fill="#005d8d"/>
      </g>
      <g id="Group_2894" data-name="Group 2894">
        <path id="Path_9303" data-name="Path 9303" d="M2.779,15.138a.249.249,0,0,0,.249-.249v-.8l.69.4a.249.249,0,1,0,.249-.432l-.69-.4.69-.4a.249.249,0,1,0-.249-.432l-.69.4v-.8a.249.249,0,1,0-.5,0v.8l-.69-.4a.249.249,0,1,0-.249.432l.69.4-.69.4a.249.249,0,1,0,.249.432l.69-.4v.8a.249.249,0,0,0,.249.249Z"/>
        <path id="Path_9304" data-name="Path 9304" d="M9.127,14.4a.249.249,0,0,0,.341.091l.69-.4v.8a.249.249,0,0,0,.5,0v-.8l.69.4a.249.249,0,0,0,.249-.432l-.69-.4.69-.4a.249.249,0,1,0-.249-.432l-.69.4v-.8a.249.249,0,1,0-.5,0v.8l-.69-.4a.249.249,0,1,0-.249.432l.69.4-.69.4a.249.249,0,0,0-.091.341Z"/>
        <path id="Path_9305" data-name="Path 9305" d="M5.313,14.4a.249.249,0,0,0,.341.091l.69-.4v.8a.249.249,0,0,0,.5,0v-.8l.69.4a.249.249,0,1,0,.249-.432l-.69-.4.69-.4a.249.249,0,1,0-.249-.432l-.69.4v-.8a.249.249,0,1,0-.5,0v.8l-.69-.4a.249.249,0,1,0-.249.432l.69.4-.69.4a.249.249,0,0,0-.091.341Z"/>
        <path id="Path_9306" data-name="Path 9306" d="M12.94,14.4a.249.249,0,0,0,.341.091l.69-.4v.8a.249.249,0,0,0,.5,0v-.8l.69.4a.249.249,0,1,0,.249-.432l-.69-.4.69-.4a.249.249,0,1,0-.249-.432l-.69.4v-.8a.249.249,0,1,0-.5,0v.8l-.69-.4a.249.249,0,0,0-.249.432l.69.4-.69.4a.249.249,0,0,0-.091.341Z"/>
        <path id="Path_9307" data-name="Path 9307" d="M15.946,10.7H12.97V8.309a.249.249,0,0,0-.5,0V10.7H9.632L9.5,9.517a1.178,1.178,0,1,0-2,0L7.368,10.7H4.529V6.552a.279.279,0,0,1,.279-.279h7.384a.279.279,0,0,1,.279.279v.593a.249.249,0,1,0,.5,0V6.552a.778.778,0,0,0-.778-.778h-.039V4.309a3.653,3.653,0,1,0-7.306,0V5.775H4.808a.778.778,0,0,0-.778.778V10.7H1.054A1.055,1.055,0,0,0,0,11.75v3.54a1.055,1.055,0,0,0,1.054,1.054H2.779a.249.249,0,1,0,0-.5H1.054A.556.556,0,0,1,.5,15.29V11.75a.556.556,0,0,1,.555-.555H15.946a.556.556,0,0,1,.555.555v3.54a.556.556,0,0,1-.555.555h-12a.249.249,0,1,0,0,.5h12A1.055,1.055,0,0,0,17,15.29V11.75A1.055,1.055,0,0,0,15.946,10.7ZM10.021,5.775H6.979V4.309a1.521,1.521,0,1,1,3.041,0ZM5.346,4.309a3.154,3.154,0,1,1,6.308,0V5.775H10.519V4.309a2.019,2.019,0,0,0-4.038,0V5.775H5.346ZM7.929,9.261a.676.676,0,0,1-.106-.409.686.686,0,0,1,.634-.636A.679.679,0,0,1,9.072,9.26.455.455,0,0,0,9,9.555L9.13,10.7H7.87L8,9.554a.451.451,0,0,0-.07-.293Z"/>
      </g>
    </g>
  </g>
</svg>
