<svg xmlns="http://www.w3.org/2000/svg" xmlns:xlink="http://www.w3.org/1999/xlink" width="18" height="18" viewBox="0 0 18 18">
  <defs>
    <clipPath id="clip-path">
      <rect id="Rectangle_2187" data-name="Rectangle 2187" width="18" height="18" transform="translate(37 538)" fill="#fff" stroke="#707070" stroke-width="1"/>
    </clipPath>
  </defs>
  <g id="Mask_Group_51" data-name="Mask Group 51" transform="translate(-37 -538)" clip-path="url(#clip-path)">
    <g id="notebook" transform="translate(37 538)">
      <g id="Group_3008" data-name="Group 3008">
        <g id="Group_3004" data-name="Group 3004">
          <g id="Group_3002" data-name="Group 3002">
            <path id="Path_9422" data-name="Path 9422" d="M1.128,4.146v12.52a.982.982,0,0,0,.982.982H12.476a.982.982,0,0,0,.982-.982V4.146Z" fill="#f9f5f3"/>
          </g>
          <g id="Group_3003" data-name="Group 3003">
            <path id="Path_9423" data-name="Path 9423" d="M13.458,2.04a.982.982,0,0,0-.982-.982H2.11a.982.982,0,0,0-.982.982V4.146H13.458Z" fill="#ffd88a"/>
          </g>
        </g>
        <g id="Group_3005" data-name="Group 3005">
          <path id="Path_9424" data-name="Path 9424" d="M15.971,5.406,14.1,3.539l.417-.417a1.32,1.32,0,0,1,1.867,1.867Z" fill="#838eb1"/>
        </g>
        <g id="Group_3006" data-name="Group 3006">
          <path id="Path_9425" data-name="Path 9425" d="M9,5.65H16.07V8.291H9Z" transform="translate(-1.257 10.908) rotate(-45)" fill="#ff7d95"/>
        </g>
        <g id="Group_3007" data-name="Group 3007">
          <path id="Path_9426" data-name="Path 9426" d="M5.091,14.39l-.023.053.053-.023A19.38,19.38,0,0,0,10.973,10.4L9.106,8.537A19.38,19.38,0,0,0,5.091,14.39Z" fill="#838eb1"/>
        </g>
      </g>
      <path id="Path_9427" data-name="Path 9427" d="M11.353,14.8H9.931a.352.352,0,0,0,0,.7h1.422a.352.352,0,1,0,0-.7Z"/>
      <path id="Path_9428" data-name="Path 9428" d="M8.741,15.021a.351.351,0,1,0-.136.431A.354.354,0,0,0,8.741,15.021Z"/>
      <path id="Path_9429" data-name="Path 9429" d="M16.469,5.406l.169-.169a1.672,1.672,0,0,0-2.365-2.365l-.463.463V2.04A1.347,1.347,0,0,0,12.476.706H11.131V.352a.352.352,0,1,0-.7,0V.706h-1.6V.352a.352.352,0,0,0-.7,0V.706h-1.6V.352a.352.352,0,1,0-.7,0V.706h-1.6V.352a.352.352,0,0,0-.7,0V.706H2.11A1.335,1.335,0,0,0,.776,2.04V16.666A1.335,1.335,0,0,0,2.11,18H12.476a1.335,1.335,0,0,0,1.334-1.334v-8.6L15.971,5.9l.254.254a1.011,1.011,0,0,1,0,1.429l-1.9,1.9a.352.352,0,0,0,.5.5l1.9-1.9a1.715,1.715,0,0,0,0-2.423Zm-5.5,4.5L9.6,8.537l4.5-4.5,1.37,1.37ZM8.35,12.171A28.577,28.577,0,0,1,5.8,13.71,19.017,19.017,0,0,1,9.108,9.037L10.474,10.4A19,19,0,0,1,8.35,12.171Zm7.1-9.084a.962.962,0,0,1,.685.284.978.978,0,0,1,0,1.37l-.169.169L14.6,3.539l.169-.169A.963.963,0,0,1,15.455,3.086ZM1.479,2.04a.631.631,0,0,1,.63-.63h1.4v.4a.352.352,0,0,0,.7,0v-.4h1.6v.4a.352.352,0,1,0,.7,0v-.4h1.6v.4a.352.352,0,0,0,.7,0v-.4h1.6v.4a.352.352,0,1,0,.7,0v-.4h1.346a.637.637,0,0,1,.63.63V3.794H1.479ZM13.107,16.666a.631.631,0,0,1-.63.63H2.11a.631.631,0,0,1-.63-.63V4.5H12.648l-2.24,2.24H3.285a.352.352,0,1,0,0,.7h6.42l-.848.848h0q-.55.55-1.052,1.137H3.285a.352.352,0,1,0,0,.7H7.231a19.587,19.587,0,0,0-1.358,1.986H3.285a.352.352,0,0,0,0,.7H5.472q-.377.694-.7,1.422l-.566.564H3.285a.352.352,0,0,0,0,.7H6.862a.352.352,0,0,0,0-.7H5.2l.067-.067a19.7,19.7,0,0,0,3.384-1.919h2.7a.352.352,0,0,0,0-.7H9.588a19.809,19.809,0,0,0,1.633-1.462l1.885-1.885Z"/>
    </g>
  </g>
</svg>
