<svg xmlns="http://www.w3.org/2000/svg" xmlns:xlink="http://www.w3.org/1999/xlink" width="17" height="16" viewBox="0 0 17 16">
  <defs>
    <clipPath id="clip-path">
      <rect id="Rectangle_61" data-name="Rectangle 61" width="17" height="16" fill="#bbbaba"/>
    </clipPath>
  </defs>
  <g id="Mask_Group_38" data-name="Mask Group 38" clip-path="url(#clip-path)">
    <g id="logout" transform="translate(0.5 0)">
      <path id="Path_9326" data-name="Path 9326" d="M2.167,5.334a2,2,0,0,1,0,4H.833V12a2,2,0,0,0,2,2H10a.666.666,0,0,0,.623-.9L5.789.429A.665.665,0,0,0,5.167,0H2.833a2,2,0,0,0-2,2V5.334Zm0,0" transform="translate(4.5 2)" fill="#da0010"/>
      <path id="Path_9327" data-name="Path 9327" d="M12.255,3.384A.668.668,0,0,1,12.667,4V6h2.667a.667.667,0,1,1,0,1.333H12.667v2a.666.666,0,0,1-1.138.471L8.862,7.138a.666.666,0,0,1,0-.943l2.667-2.667a.667.667,0,0,1,.727-.145Zm0,0" transform="translate(-8.667 2.667)" fill="#005d8d"/>
      <path id="Path_9328" data-name="Path 9328" d="M.9,14.6l4.006,1.335a1.342,1.342,0,0,0,1.758-1.267v-12a1.34,1.34,0,0,0-.9-1.265L1.759.068A1.41,1.41,0,0,0,1.333,0,1.335,1.335,0,0,0,0,1.336v12A1.34,1.34,0,0,0,.9,14.6Zm0,0" transform="translate(9.334 -0.002)" fill="#005d8d"/>
    </g>
  </g>
</svg>
