<svg xmlns="http://www.w3.org/2000/svg" xmlns:xlink="http://www.w3.org/1999/xlink" width="73" height="59" viewBox="0 0 73 59">
  <defs>
    <clipPath id="clip-path">
      <rect id="Rectangle_2140" data-name="Rectangle 2140" width="73" height="59" transform="translate(51 221)" fill="#bbbaba"/>
    </clipPath>
  </defs>
  <g id="Exercise" transform="translate(-51 -221)" clip-path="url(#clip-path)">
    <g id="exercise_1_" data-name="exercise (1)" transform="translate(58.746 217.941)">
      <circle id="Ellipse_49" data-name="Ellipse 49" cx="4.069" cy="4.069" r="4.069" transform="translate(37.643 9.156)" fill="#e8c8b3"/>
      <path id="Path_8859" data-name="Path 8859" d="M34.865,14.243a6.707,6.707,0,0,1,4.742,1.964l6.175,6.175-2.035,4.069-3.052-2.035-2.035,6.1H29.5l4.069-12.208-5.087,2.035V16.278l3.888-1.555a6.706,6.706,0,0,1,2.491-.48Z" fill="#04957c"/>
      <path id="Path_8860" data-name="Path 8860" d="M48.834,37.173v.245a3.817,3.817,0,0,1-.73,2.244l-3.091,4.25-4.319,5.938-3.052-2.035,3.778-6.3,2.326-3.876H34.59a4.068,4.068,0,0,1-4.069-4.069V30.521H38.66l5.087,2.035,2.688,1.076a3.813,3.813,0,0,1,2.4,3.542Z" fill="#e8c8b3"/>
      <path id="Path_8861" data-name="Path 8861" d="M35.608,37.643l-3.052,5.087L30.908,45.2a4.052,4.052,0,0,1-.945,1l-6.519,4.89-5.131,3.848-2.035-3.052,10.174-8.139,1.769-3.184,3.318-5.972Z" fill="#e8c8b3"/>
      <path id="Path_8862" data-name="Path 8862" d="M34.888,50.992a1.351,1.351,0,0,0,.438,1.483l4.351,3.481h.709a2.343,2.343,0,0,0,1.949-3.642l-1.641-2.462-3.052-2.035A5.492,5.492,0,0,0,34.888,50.992Z" fill="#e4e4e2"/>
      <path id="Path_8863" data-name="Path 8863" d="M18.313,54.938V57.99l.543,2.173a1.526,1.526,0,0,1-1.48,1.9H15.261l-2.035-3.052L12.6,55.9a2.642,2.642,0,0,1,1.41-2.882l2.264-1.132Z" fill="#e4e4e2"/>
      <path id="Path_8864" data-name="Path 8864" d="M28.486,20.347l-7.122,3.332a1.818,1.818,0,0,1-1.454-3.332l8.576-4.069Z" fill="#e8c8b3"/>
      <path id="Path_8865" data-name="Path 8865" d="M45.822,22.348l5.046-4.3a2.187,2.187,0,0,1,2.853,3.314L47.8,26.7a2.859,2.859,0,0,1-3.921-.115.253.253,0,0,1-.047-.291l1.93-3.859a.254.254,0,0,1,.064-.081Z" fill="#e8c8b3"/>
      <path id="Path_8866" data-name="Path 8866" d="M35.608,37.643l-3.052,5.087-4.069-2.035-.266-.132,3.318-5.972Z" fill="#f3af3e"/>
      <path id="Path_8867" data-name="Path 8867" d="M45.289,7.471c-.043.007-.085.015-.127.024a4.066,4.066,0,1,0-2.411,3.352c.005.043.011.085.018.128a3.052,3.052,0,1,0,2.52-3.5Z" fill="#533222"/>
      <path id="Path_8868" data-name="Path 8868" d="M45.013,43.913l-4.319,5.938-3.052-2.035,3.778-6.3Z" fill="#da0010"/>
      <path id="Path_8869" data-name="Path 8869" d="M23.444,51.09l-5.131,3.848-2.035-3.052,5.087-4.069L23.4,50.868Z" fill="#da0010"/>
      <g id="Group_2741" data-name="Group 2741">
        <path id="Path_8870" data-name="Path 8870" d="M23.4,35.608H19.33a1.017,1.017,0,1,1,0-2.035H23.4a1.017,1.017,0,1,1,0,2.035Z" fill="#aedee2"/>
        <path id="Path_8871" data-name="Path 8871" d="M15.261,35.608H13.226a1.017,1.017,0,1,1,0-2.035h2.035a1.017,1.017,0,1,1,0,2.035Z" fill="#aedee2"/>
        <path id="Path_8872" data-name="Path 8872" d="M16.278,28.486h-6.1a1.017,1.017,0,0,1,0-2.035h6.1a1.017,1.017,0,0,1,0,2.035Z" fill="#aedee2"/>
        <path id="Path_8873" data-name="Path 8873" d="M6.1,28.486H4.069a1.017,1.017,0,0,1,0-2.035H6.1a1.017,1.017,0,0,1,0,2.035Z" fill="#aedee2"/>
        <path id="Path_8874" data-name="Path 8874" d="M18.313,41.712h-6.1a1.017,1.017,0,1,1,0-2.035h6.1a1.017,1.017,0,1,1,0,2.035Z" fill="#aedee2"/>
        <path id="Path_8875" data-name="Path 8875" d="M8.139,41.712H6.1a1.017,1.017,0,1,1,0-2.035H8.139a1.017,1.017,0,1,1,0,2.035Z" fill="#aedee2"/>
      </g>
      <path id="Path_8876" data-name="Path 8876" d="M43.747,32.556l-2.035,5.087H34.59a4.068,4.068,0,0,1-4.069-4.069V30.521H38.66Z" fill="#fbb540"/>
    </g>
  </g>
</svg>
