<svg xmlns="http://www.w3.org/2000/svg" xmlns:xlink="http://www.w3.org/1999/xlink" width="27" height="27" viewBox="0 0 27 27">
  <defs>
    <clipPath id="clip-path">
      <rect id="Rectangle_2188" data-name="Rectangle 2188" width="27" height="27" transform="translate(133 763.757)" fill="none" stroke="#005d8d" stroke-width="1.5"/>
    </clipPath>
  </defs>
  <g id="Mask_Group_52" data-name="Mask Group 52" transform="translate(-133 -763.757)" clip-path="url(#clip-path)">
    <path id="settings_2_" data-name="settings (2)" d="M20.472,8.478l-1.7-.216a8.529,8.529,0,0,0-.514-1.24l1.048-1.349a1.342,1.342,0,0,0-.11-1.786L17.778,2.466a1.345,1.345,0,0,0-1.791-.115L14.639,3.4A8.5,8.5,0,0,0,13.4,2.885l-.216-1.694A1.352,1.352,0,0,0,11.841,0H9.819A1.352,1.352,0,0,0,8.478,1.189l-.216,1.7A8.4,8.4,0,0,0,7.022,3.4L5.673,2.351a1.343,1.343,0,0,0-1.786.11L2.466,3.882a1.345,1.345,0,0,0-.115,1.792L3.4,7.022a8.429,8.429,0,0,0-.514,1.24l-1.694.216A1.352,1.352,0,0,0,0,9.819v2.022a1.352,1.352,0,0,0,1.189,1.341l1.7.216a8.529,8.529,0,0,0,.514,1.24L2.351,15.987a1.342,1.342,0,0,0,.11,1.786l1.421,1.421a1.346,1.346,0,0,0,1.791.114l1.348-1.048a8.332,8.332,0,0,0,1.24.514l.216,1.693A1.352,1.352,0,0,0,9.819,21.66h2.022a1.352,1.352,0,0,0,1.341-1.189l.216-1.7a8.529,8.529,0,0,0,1.24-.514l1.349,1.048a1.342,1.342,0,0,0,1.786-.11l1.421-1.421a1.344,1.344,0,0,0,.115-1.791l-1.048-1.348a8.332,8.332,0,0,0,.514-1.24l1.693-.216a1.352,1.352,0,0,0,1.191-1.341V9.819a1.35,1.35,0,0,0-1.188-1.341ZM10.83,15.343a4.513,4.513,0,1,1,4.513-4.513,4.518,4.518,0,0,1-4.513,4.513Z" transform="translate(135.549 766.548)" fill="none" stroke="#005d8d" stroke-width="1.3"/>
  </g>
</svg>
