<svg xmlns="http://www.w3.org/2000/svg" xmlns:xlink="http://www.w3.org/1999/xlink" viewBox="0 0 2000 2000"><defs><clipPath id="clip-path"><path d="M1752.11,1764.93c233.13-485.79,159.59-934.76-202.9-1088.61S872.43,535.07,656.65,330.12-183.46,717.84,278,1630Z" fill="none"/></clipPath></defs><g style="isolation:isolate"><g id="BACKGROUND"><rect width="2000" height="2000" fill="#f7fafc"/><path d="M1549.21,676.32c-362.5-153.84-676.78-141.25-892.56-346.2S-183.46,717.84,278,1630l1474.13,134.91C1985.24,1279.14,1911.7,830.17,1549.21,676.32Z" fill="#ebf6fc"/><g clip-path="url(#clip-path)"><g opacity="0.47"><rect x="345.8" y="545.53" width="57.78" height="15.81" fill="#c1bbff"/></g><g opacity="0.47"><rect x="1590.82" y="1047.3" width="57.78" height="15.81" fill="#c1bbff"/></g><g opacity="0.47"><rect x="265.12" y="623.45" width="57.78" height="15.81" fill="#c1bbff"/></g><g opacity="0.47"><rect x="906.77" y="1388.41" width="57.78" height="15.81" fill="#c1bbff"/></g><g opacity="0.47"><rect x="316.91" y="879.84" width="57.78" height="15.81" fill="#c1bbff"/></g><g opacity="0.47"><rect x="150.1" y="995.53" width="57.78" height="15.81" fill="#c1bbff"/></g><g opacity="0.47"><rect x="791.26" y="830.58" width="57.78" height="15.81" fill="#c1bbff"/></g><g opacity="0.47"><rect x="1423.69" y="1388.41" width="57.78" height="15.81" fill="#c1bbff"/></g><path d="M1913.26,1270.7H1459.57a1.7,1.7,0,0,0-1.71,1.7v498.1H1915V1272.41A1.71,1.71,0,0,0,1913.26,1270.7Z" fill="#f2b186"/><rect x="1506.92" y="1324.34" width="358.99" height="446.16" fill="#7c3816"/><rect x="1506.92" y="1322.35" width="358.99" height="112.04" fill="#a04d28"/><path d="M1686.41,1361.71a16.66,16.66,0,1,0,16.66,16.66A16.65,16.65,0,0,0,1686.41,1361.71Z" fill="#602807"/><rect x="1506.92" y="1434.39" width="358.99" height="112.04" fill="#a04d28"/><path d="M1686.41,1473.75a16.66,16.66,0,1,0,16.66,16.66A16.65,16.65,0,0,0,1686.41,1473.75Z" fill="#602807"/><rect x="1506.92" y="1546.42" width="358.99" height="112.04" fill="#a04d28"/><path d="M1686.41,1585.79a16.66,16.66,0,1,0,16.66,16.65A16.64,16.64,0,0,0,1686.41,1585.79Z" fill="#602807"/><rect x="1506.92" y="1658.46" width="358.99" height="112.04" fill="#a04d28"/><path d="M1686.41,1697.82a16.66,16.66,0,1,0,16.66,16.66A16.65,16.65,0,0,0,1686.41,1697.82Z" fill="#602807"/><rect x="1506.92" y="1432.31" width="358.99" height="4.16" fill="#7c3816"/><rect x="1506.92" y="1545.34" width="358.99" height="4.16" fill="#7c3816"/><rect x="1506.92" y="1658.37" width="358.99" height="4.16" fill="#7c3816"/><rect x="1685.26" y="1092.57" width="16.27" height="4.8" transform="translate(-114.42 1988.49) rotate(-59.19)" fill="#313656"/><path d="M1708.53,1069.6c-4.67-2.79-8,1.92-8,1.92l10.17,6.07S1713.2,1072.38,1708.53,1069.6Z" fill="#313656"/><path d="M1706.35,1073.25c-15.66-9.34-25.93,2.58-28.48,6.07a1,1,0,0,0,.31,1.46l34.94,20.84a1,1,0,0,0,1.43-.42C1716.41,1097.29,1722,1082.59,1706.35,1073.25Z" fill="#fd6d36"/><rect x="1592.05" y="1086.84" width="4.8" height="16.27" transform="matrix(0.86, -0.51, 0.51, 0.86, -335.82, 971.25)" fill="#313656"/><path d="M1579.32,1069.6c-4.67,2.78-2.13,8-2.13,8l10.17-6.07S1584,1066.81,1579.32,1069.6Z" fill="#313656"/><path d="M1581.5,1073.25c-15.67,9.34-10.06,24-8.2,28a1,1,0,0,0,1.44.42l34.93-20.84a1,1,0,0,0,.31-1.46C1607.43,1075.83,1597.17,1063.91,1581.5,1073.25Z" fill="#fd6d36"/><path d="M1585.27,1263.69a5.25,5.25,0,0,0,9.25,5l10.93-20.36-9.25-5Z" fill="#fd6d36"/><path d="M1690.39,1243.33l-9.26,5,10.94,20.36a5.25,5.25,0,0,0,9.25-5Z" fill="#fd6d36"/><circle cx="1643.93" cy="1172.81" r="92.58" transform="translate(-40.5 58.95) rotate(-2.03)" fill="#f2b186"/><circle cx="1643.93" cy="1172.81" r="77.35" transform="translate(-347.43 837.44) rotate(-25.95)" fill="#fff"/><polygon points="1622.56 1133.98 1606.66 1128.8 1609.66 1145.1 1613.52 1141.67 1643.66 1173.14 1643.66 1171.27 1618.23 1137.81 1622.56 1133.98" fill="#fd6d36"/><polygon points="1643.27 1174.5 1643.27 1174.5 1643.64 1174.01 1643.27 1174.5" fill="#fd6d36"/><polygon points="1643.27 1174.5 1642.45 1175.56 1642.36 1205.49 1638.26 1205.78 1645.02 1215.59 1650.37 1205.08 1646.7 1205.35 1643.27 1174.5" fill="#fd6d36"/><rect x="1642.88" y="1094.14" width="2.09" height="9.05" fill="#f2b186"/><rect x="1642.88" y="1242.43" width="2.09" height="9.05" fill="#f2b186"/><rect x="1691.83" y="1119.34" width="9.05" height="2.09" transform="translate(-295.31 1527.99) rotate(-45.01)" fill="#f2b186"/><rect x="1586.97" y="1224.2" width="9.05" height="2.09" transform="translate(-400.2 1484.51) rotate(-45.01)" fill="#f2b186"/><rect x="1713.55" y="1171.77" width="9.05" height="2.09" fill="#f2b186"/><rect x="1565.25" y="1171.77" width="9.05" height="2.09" fill="#f2b186"/><rect x="1695.31" y="1220.72" width="2.09" height="9.05" transform="translate(-369.53 1558.37) rotate(-45)" fill="#f2b186"/><rect x="1590.45" y="1115.85" width="2.09" height="9.05" transform="translate(-326.09 1453.49) rotate(-45)" fill="#f2b186"/><path d="M1643.93,1166.11a6.71,6.71,0,1,0,6.7,6.7A6.7,6.7,0,0,0,1643.93,1166.11Z" fill="#313656"/><path d="M283.4,1383.81c-36.37-24.25-82.32-28.74-90.82-20.43-5.56,21.23,9.51,43.67,30.2,64.23a9.73,9.73,0,0,1,1.21,1.21c.33.33.67.67,1.07,1,30.61,29.87,72,55.59,77.83,68.32l22.3-1.61C339.26,1440.94,315,1404.91,283.4,1383.81Z" fill="#5cb23d"/><path d="M283.4,1383.81h-.14c23.11,70.39-42.93,59.47-58.2,46,30.61,29.87,72,55.59,77.83,68.32l22.3-1.61C339.26,1440.94,315,1404.91,283.4,1383.81Z" fill="#4d992e"/><path d="M297.05,1406.7c-.24,36.92-19.88,62.14-19.88,62.14s20.94,18.11,24.17,15.53,27.91-20.08,27.91-20.08l-11-43.5Z" fill="#448426"/><path d="M388.82,1354.87c-14.4-101.73-71.94-161.95-77.23-155.25C289,1228.35,292.3,1340.67,298,1420.78v.07c3.28,47.88,7.5,84.19,7.5,84.19a79.9,79.9,0,0,0,17.08,13.06c9.78,5.49,22.44,9.24,34.29,2.88,14.87-7.91,28.53-31.82,33.76-88.28a337.46,337.46,0,0,0-1.81-77.76Z" fill="#5cb23d"/><path d="M298,1420.85c3.28,47.88,7.5,84.19,7.5,84.19a79.9,79.9,0,0,0,17.08,13.06c.07,0,.2.06.27.06,8.7,1.95,21,2.75,34,2.82,14.87-7.91,28.53-31.82,33.76-88.28a337.46,337.46,0,0,0-1.81-77.76C379.71,1406.38,323.31,1464.25,298,1420.85Z" fill="#4d992e"/><path d="M467.52,1323.46c-25.66,3.35-114.53,67.45-101.27,170.06,0,0-6.77,45.07,34.16,13.32a64.55,64.55,0,0,0,8.77-8.5c22-25,45.41-78.57,57.26-119.82,0-.07.07-.2.07-.27C475.62,1346.57,477.9,1322.12,467.52,1323.46Z" fill="#5cb23d"/><path d="M385.8,1473.42c-1.34,14.94,12.33,22.91,23.38,24.92,22-25,45.41-78.57,57.26-119.82C444.54,1437.66,387.68,1452.86,385.8,1473.42Z" fill="#4d992e"/><path d="M250.65,1464.31c1.54,40,19.89,125.58,25.71,152.17,1.14,5.09,1.81,8,1.81,8h143.2s18.75-116.2,16.74-160.21Z" fill="#313656"/><path d="M402.21,1464.31c9.25,69.86-28.46,142.46-97.72,147.22-11.58.8-20.83,2.54-28.13,5,1.14,5.09,1.81,8,1.81,8h143.2s18.75-116.2,16.74-160.21Z" fill="#22273f"/><g opacity="0.4" style="mix-blend-mode:overlay"><path d="M438.23,1351c-12.06,10-29.57,45.26-12.15,32.83S453.16,1338.66,438.23,1351Z" fill="#fff0e6"/></g><g opacity="0.4" style="mix-blend-mode:overlay"><path d="M305.7,1296.62c4.81,35,17.1-21.47,10-47.77C311.47,1233,300.9,1261.64,305.7,1296.62Z" fill="#fff0e6"/></g><g opacity="0.4" style="mix-blend-mode:overlay"><path d="M241.47,1373.73c-19.64-3.44-30-6.14-22.69-.93C237.07,1385.87,261.11,1377.17,241.47,1373.73Z" fill="#fff0e6"/></g></g></g><g id="MIDGROUND"><path d="M1617,1544.77a27,27,0,0,0-20-8.84H404.94a27.06,27.06,0,0,0-20,8.84L152.08,1800.53c-15.82,17.37-3.49,45.26,20,45.26H1829.86c23.49,0,35.82-27.89,20-45.26Z" fill="#281223"/><rect x="144.98" y="1784.03" width="1711.98" height="29.52" fill="#281223"/><path d="M1617,1512.53a27,27,0,0,0-20-8.84H404.94a27.06,27.06,0,0,0-20,8.84L152.08,1768.29c-15.82,17.37-3.49,45.27,20,45.27H1829.86c23.49,0,35.82-27.9,20-45.27Z" fill="#411f38"/><polygon points="509.06 1526.14 300.99 1754.68 1799.06 1754.68 1590.98 1526.14 509.06 1526.14" fill="#c3eafc"/><ellipse cx="363.23" cy="1612.81" rx="30.33" ry="14.57" fill="#281223"/><g opacity="0.31" style="mix-blend-mode:multiply"><ellipse cx="996.65" cy="1657.96" rx="663.75" ry="45.15" fill="#55a6d8"/></g><polygon points="1519.67 786.78 1557.36 814.27 1686.41 591.92 1637.72 578.99 1519.67 786.78" fill="#411f38"/><polygon points="1406.2 823.47 1406.2 847.85 1452.11 832.67 1449.69 814.27 1406.2 823.47" fill="#eb1117"/><polygon points="1333.34 839.45 1339.07 862.58 1384.91 847.85 1380 831.06 1333.34 839.45" fill="#eb1117"/><polygon points="1271.94 853.37 1284.06 874.04 1319.42 862.58 1312.05 840.73 1271.94 853.37" fill="#eb1117"/><rect x="1507.11" y="840.72" width="50.26" height="565.49" fill="#8b79f2"/><g opacity="0.28"><rect x="1507.11" y="840.72" width="50.26" height="127.29" fill="#21201f"/></g><polygon points="1519.67 814.27 1262.1 861.39 1284.06 899.08 1566.79 877.27 1752.11 591.26 1701.85 547.28 1519.67 814.27" fill="#8b79f2"/><path d="M1516.73,1399.7l-187.47,121.72a138.58,138.58,0,0,0-61.3,93.85l-6,36.66h31.8l95.23-45,220.43-184.87-16.82-15.7A61.83,61.83,0,0,0,1516.73,1399.7Z" fill="#8b79f2"/><path d="M1384.92,1540.9a181.6,181.6,0,0,0-82.65,90.62l-8.51,20.41,353.58,6.69c40.29-116.59-37.92-236.56-37.92-236.56Z" fill="#8b79f2"/><path d="M1384,1539.1a184.07,184.07,0,0,0-83.58,91.64l-8.51,20.4,3.76,1.57,8.5-20.41a180.05,180.05,0,0,1,81.73-89.61l224.5-118.84-1.9-3.59Z" fill="#a39afc"/><circle cx="1544.31" cy="1558.66" r="29.65" transform="translate(-230.7 268.83) rotate(-9.26)" fill="#61046e"/><rect x="1531.02" y="810.13" width="4.07" height="47.37" transform="translate(-203 1011.64) rotate(-34.39)" fill="#a39afc"/><path d="M494.32,1100.62c-13.08-7.07-65.65,99.87-69.76,131.87s14.46,50.85,25.21,45.29,18.13-56.07,50.14-68.6,86.84,8.64,86.84,8.64L591,1151.5C572.08,1121.17,507.39,1107.69,494.32,1100.62Z" fill="#eb1117"/><path d="M477.79,1181.59c-8,.42-20.86,20.58-20,29.06s19.58,19.86,19.58,19.86,22.23-22.51,30.76-23.74C489.44,1200,485.8,1181.17,477.79,1181.59Z" fill="#ef3a47"/><path d="M1439.35,1579c-11.56-3.6-52.28,27.19-83.87,13.63s-55.76-67.14-55.76-67.14l-49.57,44.25c-7.86,34.85,28.73,89.88,33.07,104.09s116.87-25,142.27-44.87S1450.92,1582.64,1439.35,1579Z" fill="#eb1117"/><path d="M802,849c-4.73,6.87-9.52,18.31-14.21,32.95-8.13,25.24-16.09,60-23.32,96.87v.15c-16.41,83.68-29.09,178.56-31.89,199.77-.36,2.84-.54,4.36-.54,4.36s-17.37-3.16-37.45-7.66c-20.89-4.69-44.72-10.9-55.07-16.64-20.3-11.3-76.75-72.25-97-36.14s2.25,151.21,13.55,153.46,33.85-4.5,33.85-4.5c24.81,15.8,196.32,110.57,218.92,103.81,10.75-3.2,61.82-64.47,116.16-151.17,28.66-45.77,58.3-98.66,83.29-153.8,27.28-60,49.07-122.66,58.44-181.79C1066.7,888.64,835.87,799.94,802,849Z" fill="#61046e"/><path d="M800.42,1192.35c-25.58,46.35-52.1,83.45-60.83,89-9.26,5.92-19.63-2.81-28.78-10.52-7.75-6.52-15.07-12.68-21-8.82-3.95,2.56-15.44-9-26.55-20.1-15.18-15.23-34.08-34.19-53.7-41.19-13.06-4.65-24.35-6.44-34.31-8-17.43-2.75-30-4.74-39.32-20.65l-3.13,1.83c10.17,17.4,24.16,19.61,41.88,22.41,9.8,1.55,20.92,3.3,33.66,7.85,18.85,6.72,37.42,25.35,52.35,40.32s24.67,24.75,31.1,20.59c3.7-2.4,10,2.92,16.72,8.55,7.26,6.12,15.86,13.36,24.6,13.36a15.52,15.52,0,0,0,8.48-2.55c10.39-6.64,38.22-47.17,62.05-90.33,18.1-32.8,49.18-94.78,54-141.4l-3.61-.37C849.24,1098.32,818.39,1159.8,800.42,1192.35Z" fill="#731084"/><path d="M733.85,1183.43l-3.57-.69c-13.47,69.82,21.88,138.59,22.24,139.28l3.22-1.68C755.39,1319.66,720.61,1252,733.85,1183.43Z" fill="#731084"/><g opacity="0.59"><path d="M1004.23,1066.33c-11.34-2.94-169.92-143.15-216.42-184.41-8.13,25.24-16.09,60-23.32,96.87v.15c5.49,111,109.77,211.21,160.48,245.29,28.66-45.77,58.3-98.66,83.29-153.8C1007.09,1068.18,1005.75,1066.73,1004.23,1066.33Z" fill="#230e28"/></g><path d="M1329,1535.77s-25.64-11.26-35-106.07-25.21-196.32-45.51-227.92-220.81-317-236.61-328.22-236.64,13.66-236.64,13.66c-.66,136.28,213.72,294.25,326.58,366.46,0,0,.32,12.21,2.68,31.53,3.64,29.86,12,76.72,31.17,121.94,31.56,74.46,59.86,103.81,52.49,128.62s10.68,42.89,10.68,42.89l33.85,22.56s98-22.56,96.36-29.35S1329,1535.77,1329,1535.77Z" fill="#61046e"/><path d="M1233.1,1439c-6.37-22.49-13.58-48-18.9-75.48-4.44-22.92-5.79-40.61-7-56.22-2.28-29.83-4.08-53.39-24.86-95.22-20.42-41.11-97-127.62-164.51-203.95C979.68,965,943.64,924.3,921,895.55l-2.86,2.25c22.72,28.83,58.8,69.6,97,112.76,67.39,76.16,143.77,162.48,164,203.15,20.46,41.21,22.24,64.45,24.49,93.88,1.2,15.71,2.56,33.52,7,56.64,5.35,27.64,12.59,53.21,19,75.78,9.12,32.22,17,60,17.63,85.56,1.1,44.25,15.81,67.72,16.43,68.7l3.06-2c-.14-.24-14.78-23.69-15.86-66.84C1250.21,1499.5,1242.28,1471.48,1233.1,1439Z" fill="#731084"/><path d="M987.9,903.87c10.76,30.8.06,74.2,0,74.64l3.53.88c.45-1.81,11.07-44.88,0-76.72Z" fill="#731084"/><path d="M1356.33,752c-14.7,9.27-24.69,34.82-15.29,37.56a146.14,146.14,0,0,0,19.4,4s-10.74,7.47-4.7,8.43,16.46,0,16.46,0,.58,7.17,10.58,2.47,20.48-24.36,10.58-38.82C1393.36,765.63,1371,742.72,1356.33,752Z" fill="#fec5cb"/><g opacity="0.55"><path d="M1356.33,752c-14.7,9.27-24.69,34.82-15.29,37.56a146.14,146.14,0,0,0,19.4,4s-10.74,7.47-4.7,8.43,16.46,0,16.46,0,.58,7.17,10.58,2.47,20.48-24.36,10.58-38.82C1393.36,765.63,1371,742.72,1356.33,752Z" fill="#f48ca0"/></g><path d="M1404.22,748.66c-8.56-5.46-22.58-17.14-36.6-14.39s-34.26,11.27-59.18,14.39c0,0-32.71,38.15,0,48.43s50.62,1.41,56.07-.1,35.82,3.06,36.6-4-3.12-8.56-9.35-10.9-29.59,0-27.25-6.95,21-9.77,21-9.77l15.58,9.77s6.23,17.85,17.91,20.19,17.91,3.12,10.9-4.67S1412.79,754.11,1404.22,748.66Z" fill="#fec5cb"/><path d="M1319.36,743.35c-3.88-1.31-46.63-9.09-79.07-11.66S1137.89,720,1137.89,720s-29.78-106.32-66.14-158.12l-22,32.37s-38.9,195.7,0,221.64c4,2.69,9.48,4.83,16,6.43,55.65,14.13,188.84-7.74,188.84-7.74s24.63,16.85,32.4,14.28,38.91-25.94,41.48-32.4S1323.25,744.65,1319.36,743.35Z" fill="#7253ec"/><g opacity="0.28"><path d="M1074.15,752l-8.43,70.36c55.65,14.13,188.84-7.74,188.84-7.74s-95.85,5.74-125,7.85S1078.22,803.24,1074.15,752Z" fill="#21201f"/></g><path d="M1100.69,639.41c-7-23.25-14.15-47.29-22.22-63.47l-3.25,1.62c7.93,15.9,15.08,39.79,22,62.89,12.2,40.75,23.72,79.25,40.47,81.36l.45-3.6C1123.73,716.39,1112,677.26,1100.69,639.41Z" fill="#8e7bff"/><path d="M1082.17,605.5c-5.63-63.38-49.29-111.26-90.11-122.55s-95.79-14.06-95.79-14.06C837.1,481.57,758.21,528,717.38,563.26S631.44,652,610.3,671.72c-7,6.53-12.71,13.94-16.16,22.15-7,16.64-4.58,36.44,16.16,58.12,31,32.4,111.3,52.12,114.09,56.37s31,26.74,45.08,21.11c10.46-4.18,21.68-21.51,27.31-35.93h0l.8-2.14.65-1.85a46.48,46.48,0,0,0,2.22-9.37c1.38-14.1-1.42-40.87-1.42-40.87l-49.32-29.56,74.68-42.25s0,67.6-11.26,108.46-25.36,66.18-25.36,66.18-21.14,6-22.55,21.29a27.75,27.75,0,0,0,9.88,23.79s45,12.68,131,15.51,150.7-5.63,160.58-14.09,8.46-32.4,8.46-32.4l-11.29-18.31S1087.84,668.88,1082.17,605.5Z" fill="#7253ec"/><path d="M822.67,711.55,818.19,752c37.72-12,250.94,23.21,250.94,23.21l7.71-48.07S942.46,686.9,822.67,711.55Z" fill="#4d37cc"/><g opacity="0.28"><polygon points="823.24 702.84 885.99 630.59 824.43 667.5 823.24 702.84" fill="#21201f"/></g><path d="M825.35,669l48.07-28.9c-1.13,21.28-7.58,135.72-16.86,166.71-3.57,11.95-10.49,18.71-17.18,25.25-12.54,12.26-24.38,23.84-13.46,65l3.51-.93c-10.38-39.16.22-49.52,12.49-61.51,7-6.86,14.28-14,18.12-26.81,10.32-34.46,16.91-165.41,17.19-171l.17-3.4-53.92,32.41Z" fill="#8e7bff"/><path d="M768.28,560.45c-52.19,39.39-75.92,76.7-91.62,101.38-6.35,10-11.36,17.87-16.38,23s-12.1,8.88-19.63,12.92c-18.41,9.86-39.28,21-32.11,54.66l3.55-.76c-6.6-31,12.15-41,30.27-50.7,7.78-4.17,15.13-8.1,20.51-13.57s10.39-13.4,16.86-23.57c15.56-24.46,39.07-61.44,90.73-100.43,71.9-54.26,133.95-70.14,134.57-70.3l-.88-3.52C903.52,489.68,840.8,505.71,768.28,560.45Z" fill="#8e7bff"/><path d="M867.58,757.77,866.49,754c-1.09-3.81-1.64-13.62-13.08-11.48s-25.1-9.22-28.91-8.13c-1.13.32-2.54,1.78-4.36,3.7-4.32,4.72-10.86,12.21-20.09,12.57.62,9,1.24,21.43.44,29.57s-6.43,21.64-13.77,32.58c4.22.91,8.76,1.6,13.41,2.18,24.15,2.79,51.79.87,58.19-7.56,8.71-11.44,13.07-27.82,13.07-27.82s8.17-1.09,12.53-4.9.55-10.9,0-13.08S867.58,757.77,867.58,757.77Z" fill="#fec5cb"/><path d="M884.58,317.46c-11.3,4.83-21.43,13.29-24.27,20.41-4.54,11.48,13.62,33.42,16.68,38,.43.65,1.41.33,2.79-.73,8.14-6.14,29.75-37.23,29.75-37.23L905,313.75C898.71,312.92,891.44,314.52,884.58,317.46Z" fill="#d5ebfc"/><path d="M884.58,317.46c-7.52,22.45-6.5,46.75-4.8,57.64,8.14-6.14,29.75-37.23,29.75-37.23L905,313.75C898.71,312.92,891.44,314.52,884.58,317.46Z" fill="#b3daf4"/><path d="M1069.13,206.89c-16.92-2.91-25.68,21.32-25.68,21.32s-7.62-24.23-48.81-31-81.84,11.59-62.48,25.17c0,0-32.73,6.43-52.27,20.52-6.68,4.83-11.84,10.57-13.58,17.22-6.8,26.15,36.1,42.75,36.1,42.75s-2.79,30.73-9.77,57.9.07,41.7,16.89,51.36S947,434.42,947,434.42l157.17-139.88c3-7.81,3.63-16.6,2.58-25.5C1103.35,239.76,1082.07,209.11,1069.13,206.89Z" fill="#411f38"/><g opacity="0.46"><path d="M1061.07,284.44C1032.3,289.05,973.24,266,973.24,266s-77.15,19.29-93.35-23c-6.68,4.83-11.84,10.57-13.58,17.22-6.8,26.15,36.1,42.75,36.1,42.75s-2.79,30.73-9.77,57.9.07,41.7,16.89,51.36S947,434.42,947,434.42l157.17-139.88c3-7.81,3.63-16.6,2.58-25.5C1097.25,273.83,1080.07,281.39,1061.07,284.44Z" fill="#191818"/></g><path d="M986.4,309.53C950.6,316.31,947,406.35,947,406.35l-27.43,75.53c18.4,34.86,66.85,28.24,66.85,28.24l16.42-50.51c64.87,12.59,109.41-18.4,104.38-83.42C1107.21,376.19,1022.2,302.75,986.4,309.53Z" fill="#fec5cb"/><path d="M934.09,333.74C931.18,356,953.45,386,959.26,380.21s-7.75-35.35-7.75-35.35S976.69,372.47,986.4,357C998.52,303.83,937,311.47,934.09,333.74Z" fill="#411f38"/><path d="M1065.82,373.28a1.37,1.37,0,0,0-.88,1.73c5.3,16.24,3.16,26.08-6.36,29.26a1.37,1.37,0,1,0,.87,2.6c7.73-2.57,15.41-10.34,8.1-32.71A1.37,1.37,0,0,0,1065.82,373.28Z" fill="#f48ca0"/><path d="M1055.11,417.38c-19.24.37-29.68-16.23-29.78-16.4a1.38,1.38,0,0,0-2.35,1.43c.45.74,11.07,17.72,31.51,17.72h.68a1.39,1.39,0,0,0,1.35-1.4A1.36,1.36,0,0,0,1055.11,417.38Z" fill="#f48ca0"/><path d="M966.7,293.45c-26.58,1.49-61.24,6.43-64.29,9.44-4.07,4.11-10.75,30.33-6.68,35,2.83,3.23,41.59.66,68.83-1.27,12.24-.87,22.12-1.6,25.39-1.6,10.53,0,0-41.66,0-41.66C984.36,292.79,976,292.9,966.7,293.45Z" fill="#d5ebfc"/><path d="M966.7,293.45c-3,8.06-3.37,26.37-2.14,43.15,12.24-.87,22.12-1.6,25.39-1.6,10.53,0,0-41.66,0-41.66C984.36,292.79,976,292.9,966.7,293.45Z" fill="#b3daf4"/><path d="M990,293.32c-10.91,1.1-6.36,76.21,1.69,81.57s98.73,10,106.78-2.78,6.86-65.38.16-72.08S1033,289,990,293.32Z" fill="#55a6d8"/><path d="M1013.77,291.79c-11.28,1.14-8.32,81.15,0,86.7s104,13.18,112.37,0,6.93-72.83,0-79.76S1058.28,287.3,1013.77,291.79Z" fill="#b5daf4"/><path d="M1030.2,300.2c-9.22.93-6.8,66.34,0,70.88s85.06,10.77,91.86,0,5.67-59.54,0-65.21S1066.59,296.53,1030.2,300.2Z" fill="#d5ebfc"/><g opacity="0.41" style="mix-blend-mode:overlay"><path d="M1015.41,379.24c5,1.82,18.13,3.74,33.64,5L1105,293c-8.79-1.2-19.65-2.1-31.38-2.58Z" fill="#fff"/></g><g opacity="0.41" style="mix-blend-mode:overlay"><path d="M1118.64,295.52,1060,385c6,.36,12.06.62,18,.73l50.42-82.24a11.9,11.9,0,0,0-2.32-4.79C1125,297.59,1122.38,296.5,1118.64,295.52Z" fill="#fff"/></g><path d="M997.06,478.42l-2.93,9c-12.77,1.17-43.62-4.11-64.27-34l4.91-13.52c-14.71-5.94-35.42,27-35.42,35s8.89,36.39,45.28,43.67,54.17,5.66,58.52-14.6S997.06,478.42,997.06,478.42Z" fill="#4d37cc"/><g opacity="0.55"><path d="M964.88,440.59s9.87,30.9,31,40.3l6.92-21.28S974.41,451.77,964.88,440.59Z" fill="#f48ca0"/></g><g opacity="0.55"><path d="M1024.16,415.9c-4.56,2.1-6.16,6.36,0,10.5,11.94,8,19.62-3.6,19.62-3.6C1035.51,422.8,1028.71,413.8,1024.16,415.9Z" fill="#f48ca0"/></g><path d="M929.22,354.32c-2.08,19.58,16.5,52.17,35.66,34.33l-3.8-35.19C945.75,326,930.85,339,929.22,354.32Z" fill="#fec5cb"/><g opacity="0.55"><path d="M935.68,359.15c-.52,8.07,11,28.42,18.4,28.31s7.92-4.35,7.92-4.35l-2.47-19.59C950.66,345,936.2,351.09,935.68,359.15Z" fill="#f48ca0"/></g><path d="M938.47,352a6.76,6.76,0,0,0-4.14,7.4,1.37,1.37,0,1,0,2.7-.5,4.06,4.06,0,0,1,2.6-4.41c3.9-1.81,10.68-.2,17,7.5a1.37,1.37,0,0,0,1.94.18,1.37,1.37,0,0,0,.19-1.93C951,350.8,943,349.9,938.47,352Z" fill="#f48ca0"/><path d="M962,381.74h0a1.39,1.39,0,0,0-1.34,1.4c0,.67-.21,2.59-1.36,3.37s-3.2.28-4.66-.32c-5-2.06-11.38-16.76-10.05-25.72.73-4.88,3.5-5.15,4.41-5.23a1.39,1.39,0,0,0,1.24-1.51,1.36,1.36,0,0,0-1.5-1.23c-3.75.36-6.19,3.05-6.87,7.57-1.44,9.63,5.24,26,11.72,28.66a11.17,11.17,0,0,0,4.16.95,5.33,5.33,0,0,0,3.11-.91c2.63-1.8,2.56-5.54,2.55-5.7A1.37,1.37,0,0,0,962,381.74Z" fill="#f48ca0"/><path d="M1064.18,822.22l3.6.44c.07-.57,7.08-57.84,12.49-110.92l-3.62-.37C1071.25,764.41,1064.25,821.65,1064.18,822.22Z" fill="#8e7bff"/><path d="M1235.71,792.22l-2.46,2.67c.12.11,12.18,11.2,27.28,26.53l2.59-2.55C1248,803.47,1235.83,792.33,1235.71,792.22Z" fill="#8e7bff"/><rect x="701.93" y="707.93" width="47.84" height="3.63" fill="#8e7bff"/><g opacity="0.28"><path d="M735.83,783.55c-12.53,0-119.1-52.19-141.69-89.68-7,16.64-4.58,36.44,16.16,58.12,31,32.4,111.3,52.12,114.09,56.37s31,26.74,45.08,21.11c10.46-4.18,21.68-21.51,27.31-35.93C764.42,804.11,749.24,783.55,735.83,783.55Z" fill="#21201f"/></g><g opacity="0.59"><path d="M732.06,1183.07s-17.37-3.16-37.45-7.66c-5.2,33.67,38.32,81.11,38.32,81.11s.91-43.26-.33-77.81C732.24,1181.55,732.06,1183.07,732.06,1183.07Z" fill="#230e28"/></g><g opacity="0.59"><path d="M1101.72,1253.68s.32,12.21,2.68,31.53c54.09-.51,97.57-53.43,98.91-55.1C1201.31,1231,1128.27,1262.8,1101.72,1253.68Z" fill="#230e28"/></g><path d="M1347.91,1588.59c8.6,17.94-2.05,33.92,3.94,39.25s29.3,0,34.63-6.66,0-27.89,0-27.89S1354.85,1593.7,1347.91,1588.59Z" fill="#ef3a47"/><circle cx="659.4" cy="295.52" r="94.47" transform="translate(-15.45 37.22) rotate(-3.2)" fill="#d5ebfc"/><path d="M657.33,279.15c-12.71-23.48-43.5-26.54-49.82,0S657.33,348,657.33,348s56.19-42.28,49.84-68.86S670.06,255.67,657.33,279.15Z" fill="#55a6d8"/><path d="M677.07,299.85a2.7,2.7,0,0,0-2.19-1.1h0a2.72,2.72,0,0,0-2.19,1.09l-4.23,5.67-4.36-8.71a2.73,2.73,0,0,0-5,.32l-6,16.9-8-20a2.72,2.72,0,0,0-2.33-1.7,2.69,2.69,0,0,0-2.56,1.34l-5.32,9.07H611.12v2.88H635a2.74,2.74,0,0,0,2.35-1.34l5.21-8.88,8.06,20.06a2.71,2.71,0,0,0,2.53,1.71h.06a2.72,2.72,0,0,0,2.51-1.82l6-16.95L666,307a2.69,2.69,0,0,0,2.2,1.49,2.72,2.72,0,0,0,2.42-1.08l4.26-5.7,2.18,2.95a2.73,2.73,0,0,0,2.19,1.1h28.42V302.9H679.33Z" fill="#fff"/><circle cx="576.79" cy="944.05" r="68.63" transform="translate(-527.72 1007.14) rotate(-61.85)" fill="#d5ebfc"/><circle cx="576.79" cy="944.05" r="48.16" fill="#55a6d8"/><path d="M576.79,939.3a4.75,4.75,0,1,0,4.75,4.75A4.75,4.75,0,0,0,576.79,939.3Z" fill="#d5ebfc"/><rect x="574.37" y="887.74" width="4.85" height="16.31" fill="#d5ebfc"/><rect x="574.37" y="984.05" width="4.85" height="16.31" fill="#d5ebfc"/><rect x="616.79" y="941.63" width="16.31" height="4.85" fill="#d5ebfc"/><rect x="520.48" y="941.63" width="16.31" height="4.85" fill="#d5ebfc"/><g style="mix-blend-mode:multiply"><path d="M1354.29,636.8l.66-5.23-2.52,5.42Z" fill="#d5ebfc"/><path d="M1191.55,376.88l-38.47,305.54q22.47.26,44.67,0c88.48-.91,165.22-7.53,228.46-18.76l38.46-305.55c-63.24,11.24-140,17.86-228.45,18.77Q1214,377.13,1191.55,376.88Zm143.08,266.31q-17.24,1.54-35.37,2.73-34.74,2.26-72.65,3.15l1.84-14.56q37.88-.87,72.65-3.15h0q18.12-1.18,35.36-2.73Zm13.76-1.31-1.85.19,1.33-10.63-1.43.14.2-1.55c1.31-.18,1.74-.73,2.26-2l1.24-.13Zm8.31-3.37-.85.09-.32,2.55-1.81.19.32-2.55-3.53.36.25-2,4.53-9.75,2-.21-1.18,9.41.85-.09Zm5.75,1.89-5.24.57.22-1.72c.34-1.92.84-2.75,2.36-4.63a9.54,9.54,0,0,0,2.22-3.84c.54-2.83-.59-2.36-1.1-2a1.82,1.82,0,0,0-.62,1.29l-.19,1.5-1.72.18.17-1.35c.71-4.67,4.31-4.15,5-3.09.19.28,1.79,2.88-2.46,8.12-1.39,1.71-1.63,2.11-1.84,3.08l0,.3,3.42-.38Zm7.38-7.2-.39,3.1c-.71,4.67-4.28,4.16-5,3.11a3.86,3.86,0,0,1-.35-2.5l.14-1.16,1.69-.19-.16,1.3c-.21,2,1.32,1,1.33,1a2,2,0,0,0,.53-1.23l.39-3.08c.21-2-1.31-1-1.33-1a2,2,0,0,0-.54,1.24l-.05.41-1.69.19,1.34-8.12c1.59-.17,3.17-.36,4.75-.54l-.25,2-3.13.36c-.17,1-.39,2.34-.56,3.34,1-1.55,2.84-1.6,3.24-.1A5.24,5.24,0,0,1,1369.83,633.2Zm4.41,5.82-1-5.35-.7,1.34-.54,4.29-1.78.21,1.76-14,1.78-.21-.77,6.09,3.08-6.37,1.77-.22-3.25,6.53,1.49,7.42Zm10-1.25-1.63.21,1.26-10-2.48,10.15-1.66.21-.07-9.69-1.24,9.86-1.54.19,1.76-14,2.45-.31.06,9.74,2.42-10.05,2.43-.32Zm11.86-199.19c38.4,64-24.6,184-106.73,165-55.28-12.76-66.69-75.16-56.71-98.09C1253.75,414.47,1362.1,382,1396.05,438.58Z" fill="#d5ebfc"/><polygon points="1301.1 631.36 1299.26 645.92 1301.1 631.36 1301.1 631.36" fill="#d5ebfc"/><path d="M1290.14,526.17a6.15,6.15,0,0,0,1.7-3.85l1.06-8.44c.14-1.38.46-4.61-3-4.45-2.48.22-3.69,1.6-4.18,4.8l-1.06,8.44C1284,529.34,1289.63,526.61,1290.14,526.17Z" fill="#d5ebfc"/><path d="M1314.54,524.79c1.38-1.23,1.75-3.4,1.94-4.57l.55-4.34c.15-1.45.54-5.3-3.1-5.07-2.61.28-3.9,1.88-4.45,5.55l-.55,4.34C1308.11,528.82,1314.47,524.85,1314.54,524.79Z" fill="#d5ebfc"/><path d="M1317.28,503.17a6.71,6.71,0,0,0,1.88-4.23l.33-2.63c.18-1.73.54-5.33-3.09-5.1-2.64.26-3.89,1.82-4.46,5.58l-.33,2.63C1310.9,506.57,1316.72,503.65,1317.28,503.17Z" fill="#d5ebfc"/><path d="M1335.5,509a4,4,0,0,0,1.21-2.64l2-16.05c.08-.81.3-2.95-1.75-2.8-1.5.18-2.2,1.06-2.51,3.13l-2,16.05C1332,511,1335.47,509,1335.5,509Z" fill="#d5ebfc"/><path d="M1352.65,506.05l-2,16.08c-.45,4.38,2.92,2.29,2.95,2.26a4.15,4.15,0,0,0,1.19-2.64l2-16.08c.08-.8.3-2.92-1.7-2.74C1353.64,503.12,1353,504,1352.65,506.05Z" fill="#d5ebfc"/><path d="M1274.35,570.06c48.29,40,121.89-17.46,114.13-89.13-1.42-13.17-7.62-36.7-33.16-46.36h0c-11.62-4.82-12.07-5-22.1-4.1C1255.4,439.86,1227.51,531.25,1274.35,570.06Zm85.55-69.84c1.21,1.65,1,4.1.84,5.41L1358.8,521c-.28,1.87-1.15,7.54-7,8.07-4.08.2-5.69-1.94-5.2-7l1.94-15.41C1350.09,496.72,1358.22,497.93,1359.9,500.22Zm-2.51-18.29c-6.59,14.48-15.36,33.8-22,48.26l-3.84.31c6.64-14.47,15.5-33.75,22.08-48.23Zm-29.06,24.71,1.94-15.39c1.54-10,9.92-8.7,11.66-6.4,1.26,1.68,1,4.12.9,5.43l-1.94,15.39c-.28,1.86-1.16,7.53-7.21,8C1329.49,513.82,1327.84,511.65,1328.33,506.64Zm-26.18,14.66.46-3.68c.72-5,2.28-7.92,5.4-10-2.64-1.7-3.5-4.37-3-9.19l.19-1.5c2.36-15,15.93-14.13,19.36-9.83,2.13,2.67,1.77,6.46,1.58,8.5l-.19,1.49c-.69,4.81-2.23,7.63-5.29,9.72,2.58,1.74,3.42,4.49,2.87,9.49l-.46,3.68c-1.23,7.87-5.23,12.07-11.88,12.49C1304.29,532.61,1301.41,529.07,1302.15,521.3Zm-24.39,1.21,3-24c2.49-16.23,16.5-13.79,19.41-10,2.06,2.68,1.69,6.49,1.49,8.54l-.15,1.22-6.49.34.21-1.66c.69-6.88-5.29-3.74-5.35-3.69-1.6,1.19-2,3.69-2.19,5.19l-1.07,8.55c3.73-6.24,11.34-5.68,12.92-.51a16.24,16.24,0,0,1,.26,6.36l-1.08,8.58c-1.23,7.86-5.24,12-11.9,12.33C1279.92,533.87,1277,530.28,1277.76,522.51Z" fill="#d5ebfc"/><path d="M1335.75,410.6c-40.33,4.85-88.61,32.32-103.14,94.88,5.73-7.79,16.37-7.72,19.62.14,14.2-59.89,68-81.49,99.72-73.54-4.48-6.39-.38-16.71,7.7-19.37A72,72,0,0,0,1335.75,410.6Z" fill="#2f3f5b"/><path d="M1361.46,412.37c-10.42,1.54-14.65,15.54-8.42,20.87a7.28,7.28,0,0,0,2.31,1.33h0c56.17,21.24,35.85,116-17.72,141.76-41.94,20.15-90.61-8.07-84.84-65.68.41-4.17-1.32-11.17-10.48-11-4.39.1-11,4.51-11.88,11.47-4.94,40.51,15.92,77.53,50.71,90,80.83,29,151.93-87,117.86-157.18C1386.28,417.82,1363.63,412.18,1361.46,412.37Z" fill="#55a6d8"/><path d="M1292.92,485.88c-7.34.63-10.85,4.3-12.14,12.66l-3,24c-1.41,15.08,12.68,11.79,16.43,8.58,3.52-3,4.24-7.63,4.55-9.6l1.08-8.58c1.47-14.3-9.18-10.1-11.13-8.41a9.77,9.77,0,0,0-2,2.56l1.07-8.55c1.33-9.09,7-5.09,7-5a5.18,5.18,0,0,1,.51,3.52l-.21,1.66,6.49-.34.15-1.22C1302,494.22,1302.81,485.41,1292.92,485.88Zm-.54,24.48c.77,1,.61,2.59.52,3.52l-1.06,8.44c-.21,1.37-.7,4.58-4.15,4.75-2.49,0-3.34-1.21-3-4.4l1.06-8.44C1286.7,507.9,1291.51,509.21,1292.38,510.36Z" fill="#2f3f5b"/><path d="M1317.24,484.51c-7.08.73-10.79,4.56-12,12.4l-.19,1.5c-.52,4.82.34,7.49,3,9.19-3.12,2.1-4.68,5-5.4,10l-.46,3.68c-1.42,15.08,12.64,11.57,16.38,8.31,3.53-3.07,4.25-7.68,4.56-9.65l.46-3.68c.55-5-.29-7.75-2.87-9.49,3.06-2.09,4.6-4.91,5.29-9.72l.19-1.49C1326.9,487.81,1323.9,484.09,1317.24,484.51Zm-.21,31.37-.55,4.34c-.46,2.76-1.32,5.33-4.43,5.53-2.62.08-3.49-1.34-3.12-5l.55-4.34c1.11-7.44,6.17-5.83,7.06-4.46C1317.31,513.09,1317.13,514.9,1317,515.88Zm2.46-19.57-.33,2.63c-.21,1.35-.76,5-4.39,5.2-2.58.07-3.5-1.3-3.16-4.72l.33-2.63c1.19-7.9,6.39-5.47,7-4.66C1319.8,493.27,1319.61,495.17,1319.49,496.31Z" fill="#2f3f5b"/><path d="M1355.63,498.7h0c-4.13.55-6.31,3-7.09,8.05l-1.94,15.41c-1,9.85,7.47,6.71,9,5.51,2.48-1.95,3-5.11,3.2-6.63l1.94-15.41C1360.92,503.78,1361.48,498.16,1355.63,498.7Zm1.16,7-2,16.08c-.13.81-.45,3-2.44,3.13-1.44.07-1.91-.7-1.7-2.75l2-16.08c.6-4,3.37-3.29,3.86-2.57A3.51,3.51,0,0,1,1356.79,505.67Z" fill="#2f3f5b"/><path d="M1337.6,512.27c2.57-1.92,3.06-5.08,3.29-6.6l1.94-15.39c.18-1.85.73-7.47-5.32-7-4.23.5-6.47,3-7.24,8l-1.94,15.39C1327.32,517.05,1336.57,513,1337.6,512.27Zm-5.15-5.61,2-16.05c.61-4.09,3.46-3.28,4-2.54a3.44,3.44,0,0,1,.29,2.21l-2,16.05c-.12.81-.45,3-2.5,3.13C1332.73,509.51,1332.24,508.73,1332.45,506.66Z" fill="#2f3f5b"/><path d="M1353.64,482.27c-6.61,14.47-15.42,33.77-22.08,48.23l3.84-.31c6.61-14.47,15.43-33.76,22-48.26Z" fill="#2f3f5b"/><path d="M1346.64,630l-.2,1.55,1.43-.14-1.33,10.63,1.85-.19,1.75-14-1.24.13C1348.38,629.3,1348,629.85,1346.64,630Z" fill="#55a6d8"/><path d="M1355.29,627.41l-4.53,9.75-.25,2,3.53-.36-.32,2.55,1.81-.19.32-2.55.85-.09.25-2-.85.09,1.18-9.41Zm-1,9.39-1.86.19,2.52-5.42Z" fill="#55a6d8"/><path d="M1361.7,626.59c-1.83.28-2.8,1.44-3.15,3.78l-.17,1.35,1.72-.18.19-1.5c.3-2,1.61-1.39,1.7-1.29s1.23,1.66-2.2,5.87c-1.52,1.88-2,2.71-2.36,4.63l-.22,1.72,5.24-.57.25-2-3.42.38c0-1.07.52-1.74,1.86-3.38C1365.36,630.19,1364.49,626.28,1361.7,626.59Z" fill="#55a6d8"/><path d="M1364.39,634.39l1.69-.19.05-.41c.29-1.92,1.59-1.49,1.75-1.24a1.73,1.73,0,0,1,.12,1l-.39,3.08c-.29,1.92-1.57,1.48-1.74,1.23a1.58,1.58,0,0,1-.12-1l.16-1.3-1.69.19-.14,1.16c-.46,4.58,3.25,3.05,3.92,2.48a4.93,4.93,0,0,0,1.44-3.09l.39-3.1c.47-4.53-2.64-2.54-2.67-2.51a2.7,2.7,0,0,0-.62.73l.56-3.34,3.13-.36.25-2c-1.58.18-3.16.37-4.75.54Z" fill="#55a6d8"/><path d="M1376,625.07l-3.08,6.37.77-6.09-1.78.21-1.76,14,1.78-.21.54-4.29.7-1.34,1,5.35,1.81-.22-1.49-7.42,3.25-6.53Z" fill="#55a6d8"/><path d="M1381.1,634.19l-.06-9.74-2.45.31-1.76,14,1.54-.19,1.24-9.86.07,9.69,1.66-.21,2.48-10.15-1.26,10,1.63-.21,1.76-13.95-2.43.32Z" fill="#55a6d8"/><path d="M1226.61,649.07q37.89-.87,72.65-3.15l1.84-14.56q-34.75,2.26-72.65,3.15Z" fill="#55a6d8"/><polygon points="1301.1 631.36 1301.1 631.36 1301.1 631.36 1301.1 631.36" fill="#55a6d8"/><path d="M1299.26,645.92q18.12-1.18,35.37-2.73l1.83-14.56q-17.24,1.54-35.36,2.73Z" fill="#2f3f5b"/><path d="M1637.5,428.11l0-.24-.2.9.1-.14Z" fill="#d5ebfc"/><path d="M1504.29,344.9l-39.81,316.23c50-12.94,154.19-39.86,164.32-104.18l39.81-316.23C1663,285,1605.09,321.74,1504.29,344.9Zm140.89-2.36-.13.5c-.67.82-1.35,1.64-2.06,2.46l0-.28.14-.52c.71-.82,1.39-1.64,2.06-2.46Zm-2.43-26.05c.79-.81,1.57-1.61,2.32-2.42l0,.31-.14.49c-.76.81-1.53,1.62-2.32,2.42l-.05-.29Zm-1.81,31-.14.48c-.75.82-1.52,1.62-2.32,2.43l0-.29.14-.52c.8-.8,1.57-1.61,2.32-2.42Zm-3.2-26.21c.88-.79,1.74-1.58,2.57-2.37l0,.31-.15.49c-.83.79-1.69,1.58-2.57,2.37l-.06-.29Zm2.15,30.23a89.77,89.77,0,0,0,8.53-10.49l-2.27,18q-2.19,3.18-4.77,6.27a103.73,103.73,0,0,1-9.88,10.24l1-8.2a163.3,163.3,0,0,1-30.13,21.2l-2.09,16.61.79-.45.11.32-.21.48-.79.45-3.71,29.4.8-.45.11.32-.21.48-.8.45-3.7,29.39.8-.45.11.3-.21.5-.8.45-1.09,8.67c-.06.2-.14.48-.19.68l-.45-.33,1.1-8.66-2.36,1.3-.12-.33.22-.48,2.36-1.29,3.7-29.4c-.78.44-1.57.87-2.36,1.3l-.12-.3.22-.5c.79-.43,1.58-.86,2.36-1.3l3.7-29.39-2.36,1.29-.12-.29.22-.51c.8-.43,1.58-.86,2.36-1.3l2.29-18.21a164.71,164.71,0,0,0,30.77-21.55l1-8.22Q1637,354.52,1639.89,351.48Zm7.31,35.88v.3l-.1.5c-.41.87-.84,1.74-1.29,2.6v-.27l.12-.53C1646.37,389.1,1646.79,388.23,1647.2,387.36Zm-4.35,8.54,0-.28.13-.53c.53-.84,1-1.69,1.54-2.55v.3l-.11.5C1643.9,394.2,1643.39,395.05,1642.85,395.9Zm.55,21.93-.1.53c-.41.87-.84,1.73-1.29,2.6v-.3l.1-.51c.45-.86.88-1.72,1.29-2.59Zm-.22-47.09,0-.27.13-.53c.62-.83,1.22-1.67,1.8-2.51l0,.31-.12.5C1644.4,369.08,1643.8,369.91,1643.18,370.74Zm-1.94,2.5c-.66.82-1.34,1.64-2,2.46l0-.28.15-.53c.71-.81,1.39-1.63,2.06-2.46l0,.31Zm.06,24.7-.12.49c-.58.84-1.18,1.68-1.8,2.51l0-.28.14-.52c.62-.83,1.22-1.67,1.8-2.51Zm-5.81,7.15c.7-.81,1.39-1.63,2-2.46l0,.31-.14.49c-.66.83-1.35,1.65-2,2.46l-.05-.28Zm-.81-24.53,0-.29.15-.51c.8-.8,1.57-1.61,2.32-2.42l0,.32-.14.48C1636.25,379,1635.48,379.76,1634.68,380.56ZM1631,410c.79-.81,1.57-1.61,2.32-2.42l0,.31-.14.49c-.75.81-1.53,1.62-2.32,2.42l-.05-.29Zm-1.3-24.64-.06-.29.16-.51c.87-.79,1.73-1.58,2.57-2.37l.05.32-.15.48C1631.41,383.75,1630.55,384.54,1629.68,385.32Zm2,50c.7-.82,1.39-1.64,2-2.46l0,.28-.14.52c-.66.82-1.35,1.64-2.05,2.46l0-.31ZM1626,414.72c.87-.79,1.73-1.58,2.56-2.37l0,.31-.15.49c-.83.79-1.69,1.58-2.57,2.37l0-.29ZM1624.17,390l-.07-.29.17-.51c1-.77,1.9-1.54,2.82-2.32l.06.32-.16.48C1626.07,388.44,1625.13,389.21,1624.17,390Zm-3.7,29.4c1-.77,1.9-1.55,2.82-2.32l.06.32-.16.48c-.92.78-1.86,1.55-2.82,2.32l-.07-.29Zm-2.3-24.84-.09-.29.19-.51c1-.76,2.06-1.51,3.06-2.27l.07.32-.17.48C1620.23,393,1619.21,393.79,1618.17,394.54Zm-3,1.76-.19.48c-1.08.74-2.18,1.48-3.3,2.21l-.1-.29.2-.51c1.12-.73,2.22-1.47,3.3-2.21Zm-14.39,36.94.21-.51c1.2-.71,2.39-1.43,3.55-2.15l.1.32-.2.48c-1.16.72-2.35,1.44-3.55,2.15Zm.06,27.83-.2.51c-1.17.72-2.35,1.44-3.55,2.15l-.11-.32.21-.48c1.2-.72,2.39-1.43,3.55-2.16Zm3.74-58,.21-.51c1.21-.71,2.39-1.43,3.55-2.15l.1.32-.2.48c-1.16.72-2.34,1.44-3.55,2.16Zm3.4,25.35c1.12-.73,2.22-1.47,3.3-2.21l.09.32-.19.48c-1.08.74-2.18,1.48-3.3,2.21l-.1-.29Zm-14.58-19.54.12.32-.22.48q-2,1-4,2.05l-.12-.31.22-.49C1590.72,410.22,1592.06,409.53,1593.39,408.85Zm-.46-27.65.22-.5c1.37-.68,2.71-1.36,4-2.05l.12.33-.22.47c-1.33.69-2.67,1.37-4,2.05ZM1589.59,439l.12.33-.22.48c-1.33.68-2.68,1.37-4,2l-.12-.31.22-.5C1586.91,440.42,1588.26,439.73,1589.59,439Zm46.61-86.77-.15.48c-.84.8-1.69,1.59-2.57,2.38l-.06-.3.16-.51c.88-.78,1.73-1.57,2.57-2.37Zm-4-26.36c1-.77,1.9-1.55,2.82-2.32l.06.32-.16.48c-.92.78-1.86,1.55-2.82,2.32l-.07-.29ZM1631,357l-.16.49c-.92.77-1.86,1.55-2.82,2.32l-.07-.3.17-.51c1-.77,1.9-1.54,2.82-2.32Zm-4.72-26.52c1-.75,2.07-1.5,3.07-2.26l.07.32-.17.48c-1,.76-2,1.51-3.07,2.27L1626,331Zm-1,31.13-.17.48c-1,.77-2,1.52-3.07,2.27l-.09-.29.19-.51c1-.75,2.06-1.51,3.07-2.27Zm-5.47-26.67c1.12-.74,2.22-1.47,3.3-2.21l.09.31-.19.49c-1.08.74-2.18,1.48-3.31,2.21l-.09-.29ZM1619,366.1l-.19.49c-1.09.74-2.19,1.47-3.31,2.21l-.1-.3.2-.51c1.12-.73,2.23-1.47,3.31-2.21Zm-6.22-26.84c1.2-.71,2.39-1.43,3.55-2.15l.1.32-.2.48c-1.17.72-2.35,1.44-3.55,2.15l-.11-.29Zm-.52,31.24-.2.48c-1.16.73-2.34,1.45-3.55,2.16l-.1-.29.21-.51q1.8-1.08,3.54-2.16Zm-7-27c1.28-.7,2.55-1.4,3.79-2.1l.11.32-.21.48-3.79,2.1-.12-.3Zm-.26,31.29-.22.48c-1.24.71-2.5,1.41-3.79,2.11l-.12-.3.22-.51c1.29-.69,2.55-1.39,3.79-2.1Zm-7.71-27.17c1.37-.67,2.72-1.36,4-2.05l.12.33-.22.48c-1.33.68-2.68,1.37-4,2.05l-.11-.31Zm-8.43,4q2.17-1,4.29-2l.11.33-.22.47q-2.1,1-4.28,2l-.12-.3Zm.12,31.08.12.34-.22.47c-1.41.67-2.83,1.33-4.28,2l-.13-.31.23-.49C1586.17,384.05,1587.59,383.38,1589,382.71Zm-8.18,33-.13-.31.23-.5q2.16-1,4.28-2l.12.33-.22.47Q1583,414.72,1580.82,415.71Zm.7,27.73-.22.47q-2.11,1-4.28,2l-.13-.3.23-.5q2.16-1,4.28-2ZM1580,355.52c1.53-.64,3-1.28,4.52-1.93l.13.33-.23.47c-1.49.65-3,1.29-4.52,1.93l-.14-.31Zm-4.16,33.07c1.52-.63,3-1.28,4.51-1.93l.13.34-.23.47c-1.48.64-3,1.29-4.51,1.93l-.14-.31Zm-5.21-29.3,4.75-1.87.14.33-.24.47c-1.56.63-3.15,1.25-4.75,1.87l-.15-.31Zm-4.16,33.07q2.4-.93,4.75-1.87l.14.34-.24.46c-1.57.63-3.15,1.26-4.76,1.88l-.14-.32Zm-5.68-29.43c1.68-.59,3.34-1.2,5-1.81l.15.34-.25.47c-1.65.6-3.31,1.21-5,1.8l-.17-.3ZM1556.61,396q2.52-.9,5-1.81l.15.34-.25.46q-2.46.92-5,1.81l-.17-.31Zm-6.13-29.56q2.63-.85,5.19-1.74l.18.34-.28.46q-2.57.89-5.2,1.75l-.18-.32Zm-4.17,33.08,5.2-1.74.17.34-.27.46c-1.71.59-3.45,1.17-5.2,1.74L1546,400Zm-6.59-29.68,5.43-1.68.18.34-.28.46c-1.79.57-3.6,1.12-5.43,1.68l-.19-.32Zm-4.16,33.07q2.73-.82,5.42-1.68l.19.35-.29.46-5.42,1.68-.19-.32Zm-7-29.81c1.91-.53,3.79-1.07,5.66-1.61l.19.34-.29.46c-1.87.54-3.75,1.08-5.66,1.61l-.2-.32ZM1505.24,558l-.2-.34.3-.46c1.9-.53,3.79-1.07,5.65-1.61l.2.32-.3.48C1509,556.9,1507.14,557.44,1505.24,558Zm2.15,28.1-.3.49q-2.8.81-5.65,1.61l-.2-.34.3-.46c1.9-.53,3.79-1.07,5.65-1.61Zm1.65-58.29-.2-.35.3-.46q2.86-.79,5.65-1.61l.2.32-.3.48C1512.83,526.71,1510.94,527.25,1509,527.78Zm3.8-30.2-.19-.35.29-.45c1.91-.54,3.79-1.07,5.66-1.62l.19.32-.29.49C1516.63,496.51,1514.75,497.05,1512.84,497.58Zm3.81-30.2-.21-.32.31-.48q2.85-.79,5.65-1.61l.19.34-.29.46Q1519.5,466.58,1516.65,467.38Zm3.8-30.19-.2-.32.3-.49q2.85-.79,5.65-1.61l.19.34-.29.46C1524.23,436.12,1522.35,436.65,1520.45,437.19Zm3.8-30.2-.2-.32.3-.49c1.9-.53,3.79-1.06,5.65-1.61l.19.35-.29.46C1528,405.92,1526.15,406.46,1524.25,407Zm-4.48-31.51,3-.79.21.35-.31.46-3,.78-.2-.32Zm-4.17,33.08,3-.79.2.35-.3.45-3,.79-.19-.32Zm-3.8,30.19,3-.78.2.34-.3.46-3,.79-.19-.33ZM1508,469l3-.79.2.35-.31.46-3,.78-.19-.32Zm-3.8,30.2,3-.79.21.32-.31.48-3,.79-.19-.35Zm-3.8,30.2,3-.79.21.32-.31.48-3,.79-.18-.35Zm-8.54,90.6-3,.79-.19-.35.29-.45,3-.79.2.32Zm3.8-30.2-3,.79-.19-.35.29-.45,3-.79.2.32Zm.64-29.76.29-.45,3-.78.2.31-.3.49-3,.79Zm7,56.77q-2.8.81-5.65,1.61l-.2-.35.3-.45c1.9-.54,3.78-1.07,5.65-1.62l.19.32Zm11-3.33-5.43,1.68-.18-.35.28-.46q2.74-.82,5.43-1.67l.19.31ZM1524.8,610q-2.58.88-5.2,1.74l-.18-.34.28-.46,5.2-1.74.17.31Zm10.08-3.59q-2.46.92-5,1.81l-.17-.33.27-.47q2.52-.9,5-1.81l.15.31Zm9.6-3.7c-1.56.62-3.14,1.25-4.75,1.87l-.14-.34.24-.47q2.42-.93,4.75-1.87l.15.31Zm9.14-3.83c-1.49.65-3,1.29-4.52,1.93l-.13-.34.23-.46q2.29-1,4.52-1.94l.13.31Zm8.67-4q-2.11,1-4.28,2l-.13-.34.23-.46q2.16-1,4.28-2l.12.31Zm8.19-4.07q-2,1-4,2l-.12-.33.22-.47q2-1,4-2.05l.12.3Zm7.71-4.17c-1.24.7-2.51,1.4-3.79,2.1l-.12-.33.22-.48c1.28-.69,2.55-1.39,3.79-2.1l.12.3Zm7.23-4.29c-1.16.72-2.35,1.44-3.55,2.15l-.1-.32.2-.48c1.21-.72,2.39-1.44,3.55-2.16l.11.29Zm6.74-4.4c-1.08.74-2.18,1.47-3.3,2.21l-.1-.32.2-.49c1.12-.73,2.22-1.47,3.3-2.21l.1.29Zm6.26-4.51c-1,.76-2,1.51-3.07,2.26l-.08-.31.19-.49c1-.75,2.06-1.51,3.06-2.27l.08.3Zm5.76-4.61c-.92.77-1.86,1.55-2.82,2.32l-.07-.33.17-.48c1-.77,1.9-1.54,2.82-2.32l.06.29Zm5.25-4.71c-.83.79-1.69,1.58-2.56,2.37l-.06-.32.16-.49c.87-.78,1.73-1.57,2.57-2.37l0,.29Zm4.76-4.81c-.75.81-1.53,1.61-2.32,2.42l0-.32.14-.49c.8-.8,1.57-1.61,2.32-2.42l0,.29Zm4.24-4.91c-.66.82-1.35,1.64-2,2.46l0-.31.14-.49c.7-.82,1.39-1.64,2.06-2.46l0,.28Zm3.74-5c-.58.84-1.18,1.68-1.8,2.51l0-.31.13-.5c.62-.83,1.22-1.66,1.8-2.5l0,.27Zm3.22-5.09c-.49.85-1,1.7-1.54,2.55l0-.3.12-.5c.53-.85,1-1.7,1.54-2.55v.27Zm2.7-5.18c-.41.87-.84,1.73-1.28,2.6v-.31l.11-.5c.45-.86.87-1.72,1.28-2.59v.27Zm2.27-5.8-.09.53c-.32.88-.66,1.76-1,2.64v-.3l.1-.5c.36-.88.7-1.76,1-2.65ZM1632,528l-.08.53c-.23.9-.49,1.79-.76,2.68l0-.3.08-.5c.27-.89.53-1.79.76-2.69Zm.88-4.09-.07.54c-.08.46-.17.92-.27,1.37l0-.3.07-.5q.15-.69.27-1.38Zm1.23-12.4c-9.26,37.26-56.51,68.72-135.8,90.67L1524.89,391l.59-.93.38.66-26.38,209.56c78.71-21.94,125.61-53.3,134.84-90.4C1634.26,510.39,1634.2,511,1634.11,511.51Zm1.69-13.71-.08.53c-.23.9-.48,1.79-.76,2.69l0-.31.08-.5c.28-.89.53-1.78.76-2.68Zm.88-4.09-.07.54q-.12.69-.27,1.38l0-.31.08-.5c.09-.45.18-.91.26-1.37Zm2.92-26.1-.08.52c-.23.9-.48,1.8-.76,2.69l0-.31.08-.49c.28-.89.53-1.79.76-2.69Zm.89-4.09-.08.53c-.08.46-.17.92-.26,1.38l0-.3.07-.5c.09-.46.18-.92.26-1.38Zm2.91-26.11-.08.52c-.23.9-.48,1.8-.76,2.69l0-.3.08-.5c.28-.89.53-1.79.76-2.69Zm.89-4.09-.08.53c-.08.46-.17.92-.26,1.38l0-.3.07-.5.27-1.38Zm2.92-26.11-.08.53c-.24.9-.49,1.79-.76,2.69v-.31l.09-.5c.27-.89.53-1.79.76-2.69Zm-6.81,50.24L1635,500.71c-.25.78-.51,1.55-.78,2.32v.12l-.09.53c-.32.88-.66,1.77-1,2.64V506l0-.22c-.34.83-.71,1.67-1.1,2.49v.12l-.11.53c-.41.87-.83,1.74-1.28,2.6v-.3l.05-.22q-.64,1.23-1.35,2.46v.11l-.12.53c-.49.86-1,1.71-1.54,2.55l0-.3,0-.21c-.51.8-1,1.61-1.59,2.41v.12l-.13.52c-.58.84-1.18,1.68-1.8,2.51l0-.31.06-.21c-.6.79-1.21,1.58-1.84,2.37l0,.12-.14.52c-.67.83-1.35,1.65-2.06,2.46l0-.3.06-.22c-.68.78-1.37,1.56-2.08,2.33v.12l-.14.52c-.75.81-1.52,1.62-2.32,2.42l0-.32.06-.21c-.75.77-1.53,1.53-2.32,2.28l0,.13-.15.51c-.84.79-1.7,1.58-2.57,2.37l-.06-.32.07-.21c-.84.75-1.69,1.49-2.56,2.23l0,.13-.16.51c-.92.78-1.86,1.55-2.82,2.32l-.07-.32.08-.21c-.92.73-1.85,1.46-2.8,2.18l0,.13-.18.51c-1,.76-2,1.51-3.06,2.27l-.09-.32.08-.21c-1,.71-2,1.43-3,2.13l0,.13-.2.51c-1.08.74-2.18,1.48-3.3,2.21l-.1-.32.09-.21c-1.07.7-2.16,1.39-3.27,2.08l0,.13-.21.51c-1.16.72-2.34,1.44-3.55,2.15l-.1-.32.09-.21c-1.15.69-2.32,1.36-3.5,2l0,.13-.22.51c-1.24.7-2.5,1.4-3.79,2.1l-.11-.33.09-.2c-1.22.66-2.47,1.32-3.73,2l.06.13-.23.51c-1.33.68-2.67,1.37-4,2l-.12-.33.1-.2q-2,1-4,1.92l0,.13-.22.5q-2.11,1-4.28,2l-.13-.33.1-.2L1557.6,568l.06.13-.24.5c-1.48.65-3,1.29-4.51,1.93l-.14-.34.1-.2q-2.17.91-4.4,1.81l.06.14-.25.49q-2.34.94-4.75,1.87l-.14-.34.11-.2q-2.3.88-4.63,1.75l.06.14-.25.48c-1.64.61-3.3,1.22-5,1.81l-.17-.33.11-.2c-1.59.57-3.21,1.13-4.84,1.69l.08.13-.28.49q-2.58.88-5.2,1.75l-.18-.34.12-.2-5.06,1.63.08.13-.29.49-5.42,1.68-.19-.34.12-.2-4.85,1.44,12.43-98.67,6.8-54c9.88-7.77,23.27-17.89,32.84-26.05l5.53,14.37,9.64-32.09,0,28.21,1.6-.69.13.34-.23.46-1.5.65-.12,29.59,7.44,22.93.1.16c1.16-.58,2.31-1.16,3.44-1.75l.12.3-.22.5c-1,.51-2,1-3,1.52,3.67,6.19,8.7,14.36,12.17,20.67l2-1.26.08.24,6.43-14.69,4.12-19.83-.19.49c-1.08.74-2.18,1.47-3.3,2.21l-.1-.32.2-.49c1.12-.73,2.22-1.46,3.3-2.21l.09.29c2.4-11.71,5.61-27.31,8-39l.74,5,1.24-.93.07.32-.17.48-1,.78c1,7.68,2.48,17.9,3.38,25.59l8-22.38c1.43,7.23,3.46,16.85,4.59,24.12l4.92-21.81c-.55.79-1.12,1.58-1.7,2.37l0-.31.13-.49c.62-.84,1.22-1.67,1.8-2.51v0l2.74-12.16,2.06,9,2.25-9.62,0-.13v0l3.06-14.87Zm7.69-54.33-.07.54-.27,1.37,0-.3.07-.5c.1-.46.18-.92.27-1.38Zm-1.43-37.42,0-.28.13-.52c.53-.85,1-1.7,1.54-2.56v.31l-.11.5C1647.71,364,1647.19,364.85,1646.66,365.7Zm2.71,16.69-.09.5c-.32.88-.66,1.77-1,2.65v-.28l.1-.53c.37-.87.71-1.76,1-2.64Zm.24-22.1.11-.53c.45-.86.87-1.73,1.28-2.6v.3l-.1.51c-.41.87-.83,1.73-1.28,2.59Zm-.21-6.17.34-2.69.41-.72-.34,2.68ZM1651,377l-.07.5c-.23.9-.49,1.79-.76,2.69V380l.09-.52c.27-.9.53-1.79.76-2.69Zm.89-4.09-.07.51q-.12.69-.27,1.38l0-.28.07-.53c.1-.45.19-.91.27-1.37Zm0-23.52-.11,0A14.56,14.56,0,0,1,1652,346l.18-1.41c.31-2.42.62-4.84.91-7.25l.08-.58c.55-4.31,1-5.58,1.29-5.88.09.1.22.24-.18,3.48l-.07.58c-.31,2.42-.61,4.83-.91,7.25l-.18,1.41a25.2,25.2,0,0,1-1.11,5.66A1,1,0,0,1,1651.9,349.43Zm1.27,2.77-.09.49c-.32.89-.66,1.77-1,2.65v-.27l.1-.53c.36-.88.7-1.77,1-2.65Zm-.37-4.85.27-2.16c.63-4.81,2.19-9.47,2.21-14.38-.1.08-.2.16-.46,2.17l-.24,1.91c-.1.24-.2.48-.31.72l.22-1.74c.56-4.3,1-5.54,1.18-5.82.15.45-.15,4.1-1.59,12-.41,2.26-.48,2.81-.59,3.64l0,.38c.2-.49.4-1,.59-1.46l-.32,2.52C1653.42,345.86,1653.12,346.61,1652.8,347.35Zm2-.51-.08.5c-.23.9-.49,1.8-.76,2.69v-.28l.09-.52c.28-.9.53-1.79.76-2.69Zm.88-4.08-.07.5q-.12.69-.27,1.38l0-.28.07-.52q.15-.69.27-1.38Zm2.92-26.11-.08.5c-.23.89-.48,1.79-.76,2.68l0-.27.08-.53c.28-.89.53-1.79.76-2.69Zm4.74-35.56.07-.53c.1-.45.18-.91.27-1.37l0,.29-.07.51-.27,1.38Zm-1.4,5.39.09-.52c.27-.9.52-1.79.76-2.69l0,.3-.07.5c-.24.9-.49,1.79-.76,2.69Zm-1.93,5.31.1-.53c.37-.88.71-1.76,1-2.64l0,.3-.08.5c-.32.88-.66,1.77-1,2.65Zm-.84,22.38.08-.53c.09-.46.18-.92.26-1.38l0,.3-.07.51c-.08.46-.17.91-.26,1.37Zm-1.5-17.68c.45-.86.88-1.73,1.29-2.6v.3l-.1.5c-.41.87-.84,1.74-1.29,2.6V297ZM1657,322l-.09.49c-.32.89-.66,1.77-1,2.65v-.27l.1-.53c.36-.88.7-1.76,1-2.65Zm-2.25-20.38c.54-.84,1-1.7,1.55-2.55v.3l-.11.5c-.5.86-1,1.71-1.55,2.55l0-.27Zm-1.2,27.94c.45-.86.88-1.72,1.28-2.59v.3l-.1.5c-.4.87-.83,1.73-1.28,2.6v-.28Zm-1.85,15.31c-.53,2.59-.62,3.08-.79,4.32l0,.38c.25-.48.5-1,.74-1.44l-.32,2.52c-.37.73-.75,1.47-1.15,2.19l.27-2.15c.33-2.46.54-3.57,1.12-6.4,1.27-6.16,1.24-7.94,1.24-8s-.27.15-.52,2.15l-.24,1.91-.39.72.22-1.75c.45-3.45.9-5.4,1.34-5.79C1653.46,333.94,1652.93,338.67,1651.67,344.87Zm-.42-38.2c.62-.83,1.22-1.67,1.8-2.51l0,.31-.12.49c-.58.84-1.18,1.68-1.8,2.51l0-.28Zm-.69,28c.54-.85,1-1.7,1.54-2.55v.3l-.11.5c-.49.85-1,1.7-1.54,2.55l0-.27Zm-.59,4.45c.48-.74.93-1.49,1.37-2.24l-.31,2.43-2.58,16.38c-.15.25-.3.5-.46.75l2.58-16.29c-.3.5-.6,1-.91,1.49Zm-2.71-27.53c.7-.81,1.39-1.64,2-2.46l0,.31-.14.49c-.66.83-1.35,1.65-2.06,2.46l0-.28Zm-.18,28.12c.62-.83,1.22-1.66,1.8-2.5l0,.3-.13.5c-.58.84-1.18,1.68-1.8,2.51l0-.28Z" fill="#d5ebfc"/><path d="M1595.79,493.92l.94-2.09-1.55.95Z" fill="#d5ebfc"/><path d="M1653.81,336.21l.12-1c.19-1.48.16-1.63.11-1.67a.35.35,0,0,0,0,.08h0a11,11,0,0,0-.46,2.46l-.13,1c-.16,1.34-.13,1.47-.08,1.51A7.57,7.57,0,0,0,1653.81,336.21Z" fill="#d5ebfc"/><path d="M1653.12,341l-.07.07h0a11.85,11.85,0,0,0-.45,2.43l-.21,1.66c-.18,1.46-.15,1.6-.1,1.64a8.53,8.53,0,0,0,.5-2.51l.21-1.66A6.54,6.54,0,0,0,1653.12,341Z" fill="#d5ebfc"/><path d="M1659.18,314.17l0,.27c.09-.46.18-.91.26-1.37l.07-.51,0-.3c-.08.46-.17.92-.26,1.38Z" fill="#e7f4fd"/><path d="M1584.72,384.71l-.23.49.13.31c1.45-.66,2.87-1.32,4.28-2l.22-.47-.12-.34C1587.59,383.38,1586.17,384.05,1584.72,384.71Z" fill="#e7f4fd"/><path d="M1593.15,380.7l-.22.5.12.3c1.37-.68,2.71-1.36,4-2.05l.22-.47-.12-.33C1595.86,379.34,1594.52,380,1593.15,380.7Z" fill="#e7f4fd"/><path d="M1601.11,376.57l-.22.51.12.3c1.29-.7,2.55-1.4,3.79-2.11l.22-.48-.12-.32C1603.66,375.18,1602.4,375.88,1601.11,376.57Z" fill="#e7f4fd"/><path d="M1575.82,388.59l-.24.5.14.31c1.52-.64,3-1.29,4.51-1.93l.23-.47-.13-.34C1578.85,387.31,1577.34,388,1575.82,388.59Z" fill="#e7f4fd"/><path d="M1524.35,406.18l-.3.49.2.32c1.9-.53,3.79-1.07,5.65-1.61l.29-.46-.19-.35C1528.14,405.12,1526.25,405.65,1524.35,406.18Z" fill="#e7f4fd"/><path d="M1608.59,372.34l-.21.51.1.29c1.21-.71,2.39-1.43,3.55-2.16l.2-.48-.1-.32Q1610.39,371.26,1608.59,372.34Z" fill="#e7f4fd"/><path d="M1535.56,402.92l-.29.49.19.32,5.42-1.68.29-.46-.19-.35Q1538.3,402.1,1535.56,402.92Z" fill="#e7f4fd"/><path d="M1556.61,396l-.27.49.17.31q2.52-.9,5-1.81l.25-.46-.15-.34Q1559.13,395.12,1556.61,396Z" fill="#e7f4fd"/><path d="M1546.31,399.53l-.28.49.18.31c1.75-.57,3.49-1.15,5.2-1.74l.27-.46-.17-.34Z" fill="#e7f4fd"/><path d="M1566.45,392.36l-.25.49.14.32c1.61-.62,3.19-1.25,4.76-1.88l.24-.46-.14-.34Q1568.85,391.44,1566.45,392.36Z" fill="#e7f4fd"/><path d="M1622.07,363.54l-.19.51.09.29c1-.75,2.06-1.5,3.07-2.27l.17-.48-.07-.32C1624.13,362,1623.11,362.79,1622.07,363.54Z" fill="#e7f4fd"/><path d="M1650.56,334.7l-.12.53,0,.27c.53-.85,1-1.7,1.54-2.55l.11-.5v-.3C1651.61,333,1651.1,333.85,1650.56,334.7Z" fill="#e7f4fd"/><path d="M1653.52,329.56l-.11.53v.28c.45-.87.88-1.73,1.28-2.6l.1-.5V327C1654.4,327.84,1654,328.7,1653.52,329.56Z" fill="#e7f4fd"/><path d="M1655.86,324.87v.27c.36-.88.7-1.76,1-2.65l.09-.49v-.31c-.32.89-.66,1.77-1,2.65Z" fill="#e7f4fd"/><path d="M1657.79,319.56l0,.27c.28-.89.53-1.79.76-2.68l.08-.5,0-.31c-.23.9-.48,1.8-.76,2.69Z" fill="#e7f4fd"/><path d="M1647.08,339.74l-.13.53,0,.28c.62-.83,1.22-1.67,1.8-2.51l.13-.5,0-.3C1648.3,338.08,1647.7,338.91,1647.08,339.74Z" fill="#e7f4fd"/><path d="M1633.58,354.32l-.16.51.06.3c.88-.79,1.73-1.58,2.57-2.38l.15-.48,0-.32C1635.31,352.75,1634.46,353.54,1633.58,354.32Z" fill="#e7f4fd"/><path d="M1643.09,344.7l-.14.52,0,.28c.71-.82,1.39-1.64,2.06-2.46l.13-.5,0-.3C1644.48,343.06,1643.8,343.88,1643.09,344.7Z" fill="#e7f4fd"/><path d="M1615.57,368l-.2.51.1.3c1.12-.74,2.22-1.47,3.31-2.21l.19-.49-.09-.32C1617.8,366.52,1616.69,367.26,1615.57,368Z" fill="#e7f4fd"/><path d="M1628.07,359l-.17.51.07.3c1-.77,1.9-1.55,2.82-2.32l.16-.49-.06-.32C1630,357.44,1629,358.21,1628.07,359Z" fill="#e7f4fd"/><path d="M1638.58,349.56l-.14.52,0,.29c.8-.81,1.57-1.61,2.32-2.43l.14-.48,0-.32C1640.15,348,1639.38,348.76,1638.58,349.56Z" fill="#e7f4fd"/><path d="M1515.6,408.56l-.29.48.19.32,3-.79.3-.45-.2-.35Z" fill="#e7f4fd"/><path d="M1663.35,281.09l0,.28.27-1.38.07-.51,0-.29c-.09.46-.17.92-.27,1.37Z" fill="#e7f4fd"/><path d="M1597.31,347.62l-.21.5.11.31c1.37-.68,2.72-1.37,4-2.05l.22-.48-.12-.33C1600,346.26,1598.68,347,1597.31,347.62Z" fill="#e7f4fd"/><path d="M1580,355.52l-.24.49.14.31c1.53-.64,3-1.28,4.52-1.93l.23-.47-.13-.33C1583,354.24,1581.51,354.88,1580,355.52Z" fill="#e7f4fd"/><path d="M1588.88,351.63l-.22.5.12.3q2.17-1,4.28-2l.22-.47-.11-.33Q1591.05,350.65,1588.88,351.63Z" fill="#e7f4fd"/><path d="M1612.75,339.26l-.21.51.11.29c1.2-.71,2.38-1.43,3.55-2.15l.2-.48-.1-.32C1615.14,337.83,1614,338.55,1612.75,339.26Z" fill="#e7f4fd"/><path d="M1605.28,343.5l-.22.5.12.3,3.79-2.1.21-.48-.11-.32C1607.83,342.1,1606.56,342.8,1605.28,343.5Z" fill="#e7f4fd"/><path d="M1560.77,362.93l-.27.5.17.3c1.68-.59,3.34-1.2,5-1.8l.25-.47-.15-.34C1564.11,361.73,1562.45,362.34,1560.77,362.93Z" fill="#e7f4fd"/><path d="M1528.51,373.11l-.3.48.2.32c1.91-.53,3.79-1.07,5.66-1.61l.29-.46-.19-.34C1532.3,372,1530.42,372.58,1528.51,373.11Z" fill="#e7f4fd"/><path d="M1539.72,369.85l-.29.48.19.32c1.83-.56,3.64-1.11,5.43-1.68l.28-.46-.18-.34Z" fill="#e7f4fd"/><path d="M1619.74,334.92l-.2.51.09.29c1.13-.73,2.23-1.47,3.31-2.21l.19-.49-.09-.31C1622,333.45,1620.86,334.18,1619.74,334.92Z" fill="#e7f4fd"/><path d="M1570.61,359.29l-.25.49.15.31c1.6-.62,3.19-1.24,4.75-1.87l.24-.47-.14-.33Z" fill="#e7f4fd"/><path d="M1550.48,366.45l-.29.49.18.32q2.64-.87,5.2-1.75l.28-.46-.18-.34Q1553.11,365.6,1550.48,366.45Z" fill="#e7f4fd"/><path d="M1657.68,296.49l-.11.52v.28c.45-.86.88-1.73,1.29-2.6l.1-.5v-.3C1658.56,294.76,1658.13,295.63,1657.68,296.49Z" fill="#e7f4fd"/><path d="M1654.72,301.62l-.12.53,0,.27c.54-.84,1.05-1.69,1.55-2.55l.11-.5v-.3C1655.77,299.92,1655.26,300.78,1654.72,301.62Z" fill="#e7f4fd"/><path d="M1626.23,330.46l-.19.52.09.29c1-.76,2.07-1.51,3.07-2.27l.17-.48-.07-.32C1628.3,329,1627.28,329.71,1626.23,330.46Z" fill="#e7f4fd"/><path d="M1662,286.48v.28c.27-.9.52-1.79.76-2.69l.07-.5,0-.3c-.24.9-.49,1.79-.76,2.69Z" fill="#e7f4fd"/><path d="M1660,291.79v.28c.37-.88.71-1.77,1-2.65l.08-.5,0-.3c-.32.88-.66,1.76-1,2.64Z" fill="#e7f4fd"/><path d="M1651.25,306.67l-.14.52,0,.28c.62-.83,1.22-1.67,1.8-2.51l.12-.49,0-.31C1652.47,305,1651.87,305.84,1651.25,306.67Z" fill="#e7f4fd"/><path d="M1637.74,321.25l-.16.51.06.29c.88-.79,1.74-1.58,2.57-2.37l.15-.49,0-.31C1639.48,319.67,1638.62,320.46,1637.74,321.25Z" fill="#e7f4fd"/><path d="M1632.24,325.91l-.17.51.07.29c1-.77,1.9-1.54,2.82-2.32l.16-.48-.06-.32C1634.14,324.36,1633.2,325.14,1632.24,325.91Z" fill="#e7f4fd"/><path d="M1642.75,316.49l-.15.51.05.29c.79-.8,1.56-1.61,2.32-2.42l.14-.49,0-.31C1644.32,314.88,1643.54,315.68,1642.75,316.49Z" fill="#e7f4fd"/><path d="M1647.26,311.62l-.15.52,0,.28c.71-.81,1.4-1.63,2.06-2.46l.14-.49,0-.31C1648.65,310,1648,310.81,1647.26,311.62Z" fill="#e7f4fd"/><path d="M1519.77,375.48l-.3.48.2.32,3-.78.31-.46-.21-.35Z" fill="#e7f4fd"/><path d="M1655.38,344.36l0,.28q.15-.69.27-1.38l.07-.5,0-.3q-.12.69-.27,1.38Z" fill="#e7f4fd"/><polygon points="1601.1 404.67 1601.1 404.67 1601.1 404.67 1601.1 404.67" fill="#e7f4fd"/><path d="M1618.27,393.74l-.19.51.09.29c1-.75,2.06-1.51,3.06-2.27l.17-.48-.07-.32C1620.33,392.23,1619.31,393,1618.27,393.74Z" fill="#e7f4fd"/><path d="M1600.31,405.12l-.1.8.79-.45.21-.48-.11-.32Z" fill="#e7f4fd"/><path d="M1604.78,402.53l-.21.51.11.3c1.21-.72,2.39-1.44,3.55-2.16l.2-.48-.1-.32C1607.17,401.1,1606,401.82,1604.78,402.53Z" fill="#e7f4fd"/><path d="M1611.77,398.19l-.2.51.1.29c1.12-.73,2.22-1.47,3.3-2.21l.19-.48-.09-.32C1614,396.72,1612.89,397.46,1611.77,398.19Z" fill="#e7f4fd"/><path d="M1597.09,407.28l.12.29,2.36-1.29.1-.81c-.78.44-1.56.87-2.36,1.3Z" fill="#e7f4fd"/><path d="M1589.35,410.9l-.22.49.12.31q2-1,4-2.05l.22-.48-.12-.32C1592.06,409.53,1590.72,410.22,1589.35,410.9Z" fill="#e7f4fd"/><path d="M1526.2,434.77q-2.81.81-5.65,1.61l-.3.49.2.32c1.9-.54,3.78-1.07,5.65-1.62l.29-.46-.19-.34Z" fill="#e7f4fd"/><path d="M1574.93,417.55v.76l1.5-.65.23-.46-.13-.34Z" fill="#e7f4fd"/><path d="M1580.92,414.9l-.23.5.13.31q2.16-1,4.28-2l.22-.47-.12-.33Q1583.09,413.92,1580.92,414.9Z" fill="#e7f4fd"/><polygon points="1651 357.16 1651 357.16 1651 357.16 1651 357.16" fill="#e7f4fd"/><path d="M1649.72,359.76l-.11.53v.27c.45-.86.87-1.72,1.28-2.59l.1-.51v-.3C1650.59,358,1650.17,358.9,1649.72,359.76Z" fill="#e7f4fd"/><path d="M1646.76,364.9l-.13.52,0,.28c.53-.85,1-1.7,1.54-2.55l.11-.5v-.31C1647.81,363.2,1647.29,364.05,1646.76,364.9Z" fill="#e7f4fd"/><path d="M1624.27,389.18l-.17.51.07.29c1-.77,1.9-1.54,2.82-2.32l.16-.48-.06-.32C1626.17,387.64,1625.23,388.41,1624.27,389.18Z" fill="#e7f4fd"/><path d="M1652.06,355.07v.27c.36-.88.7-1.76,1-2.65l.09-.49v-.31c-.32.88-.66,1.77-1,2.65Z" fill="#e7f4fd"/><path d="M1654,349.75V350c.27-.89.53-1.79.76-2.69l.08-.5,0-.3c-.23.9-.48,1.79-.76,2.69Z" fill="#e7f4fd"/><path d="M1634.78,379.76l-.15.51,0,.29c.8-.8,1.57-1.61,2.32-2.42l.14-.48,0-.32C1636.35,378.15,1635.58,379,1634.78,379.76Z" fill="#e7f4fd"/><path d="M1629.78,384.52l-.16.51.06.29c.87-.78,1.73-1.57,2.57-2.37l.15-.48-.05-.32C1631.51,382.94,1630.65,383.73,1629.78,384.52Z" fill="#e7f4fd"/><path d="M1639.29,374.89l-.15.53,0,.28c.71-.82,1.39-1.64,2-2.46l.14-.5,0-.31C1640.68,373.26,1640,374.08,1639.29,374.89Z" fill="#e7f4fd"/><path d="M1643.28,369.94l-.13.53,0,.27c.62-.83,1.22-1.66,1.8-2.5l.12-.5,0-.31C1644.5,368.27,1643.9,369.11,1643.28,369.94Z" fill="#e7f4fd"/><path d="M1511.8,438.75l-.29.48.19.33,3-.79.3-.46-.2-.34Z" fill="#e7f4fd"/><path d="M1651.58,374.56l0,.28q.15-.69.27-1.38l.07-.51,0-.29c-.08.46-.17.92-.27,1.37Z" fill="#e7f4fd"/><path d="M1620.47,419.38l-.17.51.07.29c1-.77,1.9-1.54,2.82-2.32l.16-.48-.06-.32C1622.37,417.83,1621.43,418.61,1620.47,419.38Z" fill="#e7f4fd"/><path d="M1608,428.39l-.2.51.1.29c1.12-.73,2.22-1.47,3.3-2.21l.19-.48-.09-.32C1610.19,426.92,1609.09,427.66,1608,428.39Z" fill="#e7f4fd"/><path d="M1596.5,435.32l-.1.8.8-.45.21-.48-.11-.32Z" fill="#e7f4fd"/><path d="M1601,432.73l-.21.51.11.29c1.2-.71,2.39-1.43,3.55-2.15l.2-.48-.1-.32C1603.37,431.3,1602.18,432,1601,432.73Z" fill="#e7f4fd"/><path d="M1577.12,445.1l-.23.5.13.3q2.16-1,4.28-2l.22-.47-.12-.33Q1579.29,444.11,1577.12,445.1Z" fill="#e7f4fd"/><path d="M1516.75,466.58l-.31.48.21.32q2.85-.79,5.65-1.61l.29-.46-.19-.34Q1519.59,465.78,1516.75,466.58Z" fill="#e7f4fd"/><path d="M1585.55,441.09l-.22.5.12.31c1.36-.68,2.71-1.37,4-2l.22-.48-.12-.33C1588.26,439.73,1586.91,440.42,1585.55,441.09Z" fill="#e7f4fd"/><path d="M1593.29,437.47l.12.3c.79-.43,1.58-.86,2.36-1.3l.1-.8c-.78.44-1.57.87-2.36,1.3Z" fill="#e7f4fd"/><path d="M1616.29,422.6l.1.65,1-.78.17-.48-.07-.32Z" fill="#e7f4fd"/><path d="M1643,395.09l-.13.53,0,.28c.54-.85,1.05-1.7,1.55-2.56l.11-.5v-.3C1644,393.4,1643.49,394.25,1643,395.09Z" fill="#e7f4fd"/><path d="M1645.92,390l-.12.53v.27c.45-.86.88-1.73,1.29-2.6l.1-.5v-.3C1646.79,388.23,1646.37,389.1,1645.92,390Z" fill="#e7f4fd"/><path d="M1648.25,385.26v.28c.37-.88.71-1.77,1-2.65l.09-.5v-.3c-.32.88-.66,1.77-1,2.64Z" fill="#e7f4fd"/><path d="M1650.18,380v.28c.27-.9.53-1.79.76-2.69l.07-.5,0-.3c-.23.9-.49,1.79-.76,2.69Z" fill="#e7f4fd"/><path d="M1626,414.72l-.16.51,0,.29c.88-.79,1.74-1.58,2.57-2.37l.15-.49,0-.31C1627.71,413.14,1626.85,413.93,1626,414.72Z" fill="#e7f4fd"/><path d="M1631,410l-.15.51.05.29c.79-.8,1.57-1.61,2.32-2.42l.14-.49,0-.31C1632.55,408.35,1631.77,409.15,1631,410Z" fill="#e7f4fd"/><path d="M1635.49,405.09l-.15.52.05.28c.7-.81,1.39-1.63,2-2.46l.14-.49,0-.31C1636.88,403.46,1636.19,404.28,1635.49,405.09Z" fill="#e7f4fd"/><path d="M1639.48,400.14l-.14.52,0,.28c.62-.83,1.22-1.67,1.8-2.51l.12-.49,0-.31C1640.7,398.47,1640.1,399.31,1639.48,400.14Z" fill="#e7f4fd"/><path d="M1508,469l-.29.48.19.32,3-.78.31-.46-.2-.35Z" fill="#e7f4fd"/><path d="M1647.78,404.73l0,.3.27-1.37.07-.54,0-.27c-.09.46-.17.92-.27,1.38Z" fill="#e7f4fd"/><path d="M1592.7,465.51l-.1.8.8-.45.21-.5-.11-.3Z" fill="#e7f4fd"/><path d="M1597.18,462.93l-.21.48.11.32c1.2-.71,2.38-1.43,3.55-2.15l.2-.51-.1-.3C1599.57,461.5,1598.38,462.21,1597.18,462.93Z" fill="#e7f4fd"/><path d="M1589.49,467.64l.12.33,2.36-1.3.1-.8-2.36,1.29Z" fill="#e7f4fd"/><path d="M1604.17,458.58l-.2.49.1.32c1.12-.74,2.22-1.47,3.3-2.21l.19-.49v0l-.09-.29C1606.39,457.12,1605.29,457.85,1604.17,458.58Z" fill="#e7f4fd"/><path d="M1512.94,496.78l-.29.45.19.35c1.91-.53,3.79-1.07,5.66-1.61l.29-.49-.19-.32C1516.73,495.71,1514.85,496.24,1512.94,496.78Z" fill="#e7f4fd"/><path d="M1582.35,471l.36.57c1-.5,2-1,3-1.52l.22-.5-.12-.3C1584.66,469.83,1583.51,470.41,1582.35,471Z" fill="#e7f4fd"/><path d="M1631.69,435.29l-.15.49,0,.31c.7-.82,1.39-1.64,2.05-2.46l.14-.52,0-.28C1633.08,433.65,1632.39,434.47,1631.69,435.29Z" fill="#e7f4fd"/><path d="M1644.53,415.06l0-.15v0Z" fill="#e7f4fd"/><path d="M1646.38,410.12v.31c.27-.9.52-1.79.76-2.69l.08-.53,0-.28c-.23.9-.49,1.8-.76,2.69Z" fill="#e7f4fd"/><path d="M1635.68,430.34l-.13.49,0,.31c.62-.83,1.22-1.67,1.8-2.51l.12-.52,0-.28C1636.9,428.67,1636.3,429.5,1635.68,430.34Z" fill="#e7f4fd"/><path d="M1642.11,420.15l-.1.51v.3c.45-.87.88-1.73,1.29-2.6l.1-.53v-.27C1643,418.43,1642.56,419.29,1642.11,420.15Z" fill="#e7f4fd"/><path d="M1504.2,499.15l-.29.45.19.35,3-.79.31-.48-.21-.32Z" fill="#e7f4fd"/><path d="M1644,434.93l0,.3c.09-.46.18-.92.26-1.38l.08-.53,0-.27-.27,1.38Z" fill="#e7f4fd"/><path d="M1594.88,492.23l.3.55,1.55-.95.28-.62-.08-.24Z" fill="#e7f4fd"/><path d="M1509.14,527l-.3.46.2.35c1.9-.53,3.79-1.07,5.65-1.62l.3-.48-.2-.32Q1512,526.17,1509.14,527Z" fill="#e7f4fd"/><path d="M1642.58,440.32l0,.3c.28-.89.53-1.79.76-2.69l.08-.52,0-.28c-.23.9-.48,1.8-.76,2.69Z" fill="#e7f4fd"/><path d="M1500.4,529.35l-.29.45.18.35,3-.79.31-.48-.21-.32Z" fill="#e7f4fd"/><path d="M1640.18,465.13l0,.3c.09-.46.18-.92.26-1.38l.08-.53,0-.27c-.08.46-.17.92-.26,1.38Z" fill="#e7f4fd"/><path d="M1505.34,557.17l-.3.46.2.34c1.9-.53,3.79-1.07,5.65-1.61l.3-.48-.2-.32C1509.13,556.1,1507.24,556.64,1505.34,557.17Z" fill="#e7f4fd"/><path d="M1638.78,470.51l0,.31c.28-.89.53-1.79.76-2.69l.08-.52,0-.28c-.23.9-.48,1.8-.76,2.69Z" fill="#e7f4fd"/><path d="M1496.59,559.54l-.29.45.19.36,3-.79.3-.49-.2-.31Z" fill="#e7f4fd"/><path d="M1636.37,495.32l0,.31q.15-.69.27-1.38l.07-.54,0-.26c-.08.46-.17.92-.26,1.37Z" fill="#e7f4fd"/><path d="M1570.22,562.15l-.1.2.12.33c1.37-.67,2.71-1.36,4-2l.23-.51-.06-.13Q1572.36,561.08,1570.22,562.15Z" fill="#e7f4fd"/><path d="M1561.78,566.16l-.1.2.13.33q2.16-1,4.28-2l.22-.5,0-.13Q1564.05,565.12,1561.78,566.16Z" fill="#e7f4fd"/><path d="M1578.18,558l-.09.2.11.33c1.29-.7,2.55-1.4,3.79-2.1l.22-.51,0-.13C1580.85,556.56,1579.53,557.3,1578.18,558Z" fill="#e7f4fd"/><path d="M1552.87,570l-.1.2.14.34c1.52-.64,3-1.28,4.51-1.93l.24-.5-.06-.13C1556,568.7,1554.47,569.37,1552.87,570Z" fill="#e7f4fd"/><path d="M1533.64,577.46l-.11.2.17.33c1.68-.59,3.34-1.2,5-1.81l.25-.48-.06-.14Q1536.29,576.52,1533.64,577.46Z" fill="#e7f4fd"/><path d="M1512.58,584.37l-.12.2.18.34,5.43-1.68.29-.49-.08-.13Q1515.46,583.5,1512.58,584.37Z" fill="#e7f4fd"/><path d="M1543.5,573.81l-.11.2.14.34q2.42-.93,4.75-1.87l.25-.49-.06-.14Q1546,572.84,1543.5,573.81Z" fill="#e7f4fd"/><path d="M1501.54,587.37l-.3.46.2.34q2.85-.79,5.65-1.61l.3-.49-.2-.31C1505.33,586.3,1503.44,586.84,1501.54,587.37Z" fill="#e7f4fd"/><path d="M1523.34,581l-.12.2.18.34q2.63-.87,5.2-1.75l.28-.49-.08-.13Z" fill="#e7f4fd"/><path d="M1585.66,553.79l-.09.21.1.32c1.21-.71,2.39-1.43,3.55-2.15l.21-.51,0-.13C1588.16,552.29,1586.92,553.05,1585.66,553.79Z" fill="#e7f4fd"/><path d="M1599.15,545l-.08.21.09.32c1-.76,2.06-1.51,3.06-2.27l.18-.51,0-.13C1601.32,543.42,1600.25,544.21,1599.15,545Z" fill="#e7f4fd"/><path d="M1624.2,521.21l-.06.21,0,.31c.62-.83,1.22-1.67,1.8-2.51l.13-.52v-.12C1625.48,519.46,1624.85,520.34,1624.2,521.21Z" fill="#e7f4fd"/><path d="M1629.3,513.49c-.52.89-1.06,1.79-1.62,2.68l0,.21,0,.3c.53-.84,1-1.69,1.54-2.55l.12-.53v-.11Z" fill="#e7f4fd"/><path d="M1592.65,549.45l-.09.21.1.32c1.12-.73,2.22-1.47,3.3-2.21l.2-.51,0-.13C1595,547.91,1593.83,548.68,1592.65,549.45Z" fill="#e7f4fd"/><path d="M1633.05,506v.29c.36-.87.7-1.76,1-2.64l.09-.53V503c-.34.93-.7,1.86-1.08,2.78Z" fill="#e7f4fd"/><path d="M1635,500.71l0,.31c.28-.9.53-1.79.76-2.69l.08-.53,0-.27c-.23.9-.48,1.79-.76,2.68Z" fill="#e7f4fd"/><path d="M1632,508.3c-.42.92-.87,1.83-1.34,2.73l-.05.22v.3c.45-.86.87-1.73,1.28-2.6l.11-.53v-.11Z" fill="#e7f4fd"/><path d="M1610.68,535.78l-.07.21.06.32c.87-.79,1.73-1.58,2.57-2.37l.15-.51,0-.13C1612.49,534.13,1611.6,535,1610.68,535.78Z" fill="#e7f4fd"/><path d="M1620.2,526.16l-.06.22,0,.3c.71-.81,1.39-1.63,2.06-2.46l.14-.52,0-.12C1621.66,524.44,1620.94,525.31,1620.2,526.16Z" fill="#e7f4fd"/><path d="M1605.17,540.44l-.08.21.07.32c1-.77,1.9-1.54,2.82-2.32l.16-.51,0-.13C1607.16,538.83,1606.17,539.64,1605.17,540.44Z" fill="#e7f4fd"/><path d="M1615.69,531l-.06.21,0,.32c.8-.8,1.57-1.61,2.32-2.42l.14-.52v-.12C1617.33,529.34,1616.52,530.18,1615.69,531Z" fill="#e7f4fd"/><path d="M1492.79,589.74l-.29.45.19.35,3-.79.3-.48-.2-.32Z" fill="#e7f4fd"/><path d="M1632.57,525.52l0,.3c.1-.45.19-.91.27-1.37l.07-.54,0-.27q-.12.69-.27,1.38Z" fill="#e7f4fd"/><path d="M1558.11,596.09l-.23.46.13.34q2.16-1,4.28-2l.22-.5-.12-.31Q1560.28,595.1,1558.11,596.09Z" fill="#e7f4fd"/><path d="M1566.54,592.08l-.22.47.12.33q2-1,4-2l.22-.5-.12-.3Q1568.59,591.07,1566.54,592.08Z" fill="#e7f4fd"/><path d="M1582,583.72l-.2.48.1.32c1.2-.71,2.39-1.43,3.55-2.15l.21-.52-.11-.29C1584.36,582.28,1583.18,583,1582,583.72Z" fill="#e7f4fd"/><path d="M1549.2,600l-.23.46.13.34c1.53-.64,3-1.28,4.52-1.93l.23-.5-.13-.31Q1551.5,599,1549.2,600Z" fill="#e7f4fd"/><path d="M1574.5,588l-.22.48.12.33c1.28-.7,2.55-1.4,3.79-2.1l.22-.51-.12-.3C1577.05,586.56,1575.78,587.26,1574.5,588Z" fill="#e7f4fd"/><path d="M1539.83,603.74l-.24.47.14.34c1.61-.62,3.19-1.25,4.75-1.87l.25-.5-.15-.31Q1542.24,602.82,1539.83,603.74Z" fill="#e7f4fd"/><path d="M1508.94,614.3l-.28.46.18.35,5.43-1.68.29-.49-.19-.31Q1511.69,613.47,1508.94,614.3Z" fill="#e7f4fd"/><path d="M1497.74,617.57l-.3.45.2.35q2.85-.79,5.65-1.61l.29-.49-.19-.32C1501.52,616.5,1499.64,617,1497.74,617.57Z" fill="#e7f4fd"/><path d="M1519.7,610.91l-.28.46.18.34q2.63-.86,5.2-1.74l.27-.49-.17-.31Z" fill="#e7f4fd"/><path d="M1589,579.37l-.2.49.1.32c1.12-.74,2.22-1.47,3.3-2.21l.2-.52-.1-.29C1591.18,577.9,1590.08,578.64,1589,579.37Z" fill="#e7f4fd"/><path d="M1530,607.39l-.27.47.17.33q2.52-.9,5-1.81l.25-.49-.15-.31Q1532.52,606.5,1530,607.39Z" fill="#e7f4fd"/><path d="M1612,560.94l-.14.49,0,.32c.79-.81,1.57-1.61,2.32-2.42l.14-.52,0-.29C1613.54,559.33,1612.77,560.14,1612,560.94Z" fill="#e7f4fd"/><path d="M1624,546.08l-.12.5,0,.3c.53-.85,1.05-1.7,1.54-2.55l.11-.53v-.27C1625,544.38,1624.48,545.23,1624,546.08Z" fill="#e7f4fd"/><path d="M1620.47,551.12l-.13.5,0,.31c.62-.83,1.22-1.67,1.8-2.51l.13-.53,0-.27C1621.69,549.46,1621.09,550.29,1620.47,551.12Z" fill="#e7f4fd"/><path d="M1626.91,540.94l-.11.5v.31c.44-.87.87-1.73,1.28-2.6l.1-.53v-.27C1627.78,539.22,1627.36,540.08,1626.91,540.94Z" fill="#e7f4fd"/><path d="M1629.25,536.22v.3c.37-.88.71-1.76,1-2.64l.09-.53v-.28c-.32.89-.66,1.77-1,2.65Z" fill="#e7f4fd"/><path d="M1631.18,530.91l0,.3c.27-.89.53-1.78.76-2.68l.08-.53,0-.28c-.23.9-.49,1.8-.76,2.69Z" fill="#e7f4fd"/><path d="M1616.48,556.08l-.14.49,0,.31c.7-.82,1.39-1.64,2-2.46l.14-.52,0-.28C1617.87,554.44,1617.18,555.26,1616.48,556.08Z" fill="#e7f4fd"/><polygon points="1618.54 553.62 1618.54 553.62 1618.54 553.62 1618.54 553.62" fill="#e7f4fd"/><path d="M1607,565.7l-.16.49,0,.32c.88-.79,1.74-1.58,2.57-2.37l.16-.52,0-.29C1608.7,564.13,1607.84,564.92,1607,565.7Z" fill="#e7f4fd"/><path d="M1601.46,570.36l-.17.48.07.33c1-.77,1.9-1.55,2.82-2.32l.16-.52-.06-.29C1603.36,568.82,1602.42,569.59,1601.46,570.36Z" fill="#e7f4fd"/><path d="M1595.46,574.92l-.19.49.08.31c1.05-.75,2.07-1.5,3.07-2.26l.18-.51-.08-.3C1597.52,573.41,1596.5,574.17,1595.46,574.92Z" fill="#e7f4fd"/><path d="M1489,619.94l-.29.45.19.35,3-.79.3-.48-.2-.32Z" fill="#e7f4fd"/><path d="M1613.37,533.3c.43-.41.85-.83,1.27-1.25-.63.62-1.27,1.24-1.93,1.86Z" fill="#2f3f5b"/><path d="M1612.71,533.91l-1.17,1.08Z" fill="#2f3f5b"/><path d="M1610.68,535.78l.86-.79-2,1.74Z" fill="#2f3f5b"/><path d="M1615.69,531c.67-.68,1.32-1.36,2-2-.73.78-1.48,1.55-2.25,2.32A3.83,3.83,0,0,0,1615.69,531Z" fill="#2f3f5b"/><path d="M1618.07,528.53l-.42.45Z" fill="#2f3f5b"/><path d="M1595.13,547.79l-1.5,1Z" fill="#2f3f5b"/><path d="M1615.4,531.3c-.24.25-.5.5-.76.75C1614.9,531.8,1615.16,531.55,1615.4,531.3Z" fill="#2f3f5b"/><path d="M1599.15,545c.72-.51,1.41-1,2.1-1.55-.85.63-1.7,1.26-2.58,1.89Z" fill="#2f3f5b"/><path d="M1598.67,545.34l-1.09.76Z" fill="#2f3f5b"/><path d="M1596.12,547.13c.5-.34,1-.68,1.46-1-.81.57-1.62,1.13-2.45,1.69Z" fill="#2f3f5b"/><path d="M1618.12,528.49c.71-.77,1.4-1.55,2.08-2.33l.25-.3c-.77.9-1.56,1.79-2.38,2.67Z" fill="#2f3f5b"/><path d="M1602.37,542.62c1-.72,1.88-1.45,2.8-2.18l.24-.2c-1.05.84-2.11,1.68-3.21,2.51Z" fill="#2f3f5b"/><path d="M1606.45,539.39l-1,.85Z" fill="#2f3f5b"/><path d="M1602.2,542.75l-1,.7Z" fill="#2f3f5b"/><path d="M1608.12,538l.51-.45c-.71.61-1.45,1.22-2.18,1.83Z" fill="#2f3f5b"/><path d="M1609.59,536.73c-.32.28-.63.56-1,.83C1609,537.29,1609.27,537,1609.59,536.73Z" fill="#2f3f5b"/><path d="M1629.44,513.24l-.12.21Z" fill="#2f3f5b"/><path d="M1632,508.3c.11-.23.21-.47.31-.7-.28.64-.59,1.28-.9,1.91C1631.6,509.11,1631.81,508.71,1632,508.3Z" fill="#2f3f5b"/><path d="M1632.74,506.62l-.44,1Z" fill="#2f3f5b"/><path d="M1630.65,511l.2-.4q-.67,1.31-1.41,2.61C1629.85,512.5,1630.26,511.77,1630.65,511Z" fill="#2f3f5b"/><path d="M1631.4,509.51c-.18.37-.36.75-.55,1.12C1631,510.26,1631.22,509.88,1631.4,509.51Z" fill="#2f3f5b"/><path d="M1634.17,503c.27-.77.53-1.54.78-2.32-.3.94-.63,1.88-1,2.82C1634,503.37,1634.11,503.2,1634.17,503Z" fill="#2f3f5b"/><path d="M1633.09,505.81c.16-.37.29-.75.44-1.12-.26.64-.52,1.29-.79,1.93C1632.85,506.35,1633,506.08,1633.09,505.81Z" fill="#2f3f5b"/><path d="M1634,503.53c-.14.39-.29.77-.44,1.16C1633.68,504.3,1633.83,503.92,1634,503.53Z" fill="#2f3f5b"/><path d="M1622.36,523.58l.44-.57c-.49.62-1,1.24-1.52,1.87Z" fill="#2f3f5b"/><path d="M1623.51,522.09c-.23.31-.47.61-.71.92C1623,522.7,1623.28,522.4,1623.51,522.09Z" fill="#2f3f5b"/><path d="M1627.68,516.17c.56-.89,1.1-1.79,1.62-2.68l0,0c-.56,1-1.15,1.95-1.77,2.92Z" fill="#2f3f5b"/><path d="M1621.28,524.88c-.28.33-.55.66-.83,1C1620.73,525.54,1621,525.21,1621.28,524.88Z" fill="#2f3f5b"/><path d="M1624.2,521.21c.23-.31.45-.63.68-1-.45.61-.9,1.22-1.37,1.83C1623.74,521.8,1624,521.51,1624.2,521.21Z" fill="#2f3f5b"/><path d="M1627.55,516.37l-.46.69Z" fill="#2f3f5b"/><path d="M1625.68,519.14l-.8,1.12Z" fill="#2f3f5b"/><path d="M1626.09,518.58l1-1.52c-.46.7-.92,1.39-1.41,2.08C1625.82,519,1626,518.77,1626.09,518.58Z" fill="#2f3f5b"/><path d="M1557.06,568.25l-1.84.79Z" fill="#2f3f5b"/><path d="M1533.59,577.48l-.51.18Z" fill="#2f3f5b"/><path d="M1551.81,570.48l-1.72.71Z" fill="#2f3f5b"/><path d="M1528,579.41l-2.28.77Z" fill="#2f3f5b"/><path d="M1528.8,579.15l4.28-1.49q-2.5.89-5.07,1.75Z" fill="#2f3f5b"/><path d="M1533.64,577.46q2.65-.94,5.23-1.9l.36-.14q-2.79,1-5.64,2.06Z" fill="#2f3f5b"/><path d="M1592.65,549.45l1-.66c-.84.56-1.69,1.11-2.55,1.66Z" fill="#2f3f5b"/><path d="M1546.68,572.56l-2.14.84Z" fill="#2f3f5b"/><path d="M1543.5,573.81l1-.41-3.92,1.5C1541.58,574.54,1542.55,574.18,1543.5,573.81Z" fill="#2f3f5b"/><path d="M1540.62,574.9l-1.39.52Z" fill="#2f3f5b"/><path d="M1565.33,421.43l-5.53-14.37c-9.82,7.85-22.73,18.57-32.84,26.05l-6.8,54c5,7.76,11.71,18.06,16.55,25.92C1550.56,469.48,1553.06,461.63,1565.33,421.43Z" fill="#2f3f5b"/><path d="M1644.53,415.06l-2.25,9.62-2.06-9-7.86,34.87c-1.32-7.24-3-16.93-4.59-24.12l-8,22.38c-1-7.68-2.25-17.93-3.38-25.59l-.1-.65-.74-5c-2.4,11.71-5.57,27.32-8,39v0l-4.12,19.83L1597,491.21l-.28.62-.94,2.09-.61-1.14-.3-.55c-3.63-6.22-8.35-14.57-12.17-20.67l-.36-.57-.1-.16-7.44-22.93c-.31,42.68-.32,44.34-.66,71.73l12.46-8.1,8.3,2.91,15.55-33.86,6.28,17.36,8.13-17.62,1.13,17.06c4-15.7,9.33-36.63,12.91-52.44l1.49,12.51,7.22-57.41-3.06,14.87Z" fill="#2f3f5b"/><path d="M1523.34,581l2.39-.8c-1.26.42-2.52.84-3.8,1.25Z" fill="#2f3f5b"/><path d="M1512.58,584.37l1-.31c-1.93.59-3.87,1.17-5.84,1.75Z" fill="#2f3f5b"/><path d="M1521.93,581.43l-2,.66Z" fill="#2f3f5b"/><path d="M1518.28,582.61l1.6-.52L1516,583.3Z" fill="#2f3f5b"/><path d="M1516,583.3l-2.45.76Z" fill="#2f3f5b"/><path d="M1548.47,571.85l1.62-.66-3.41,1.37Z" fill="#2f3f5b"/><path d="M1581.83,556c-.46.27-.94.53-1.41.79C1580.89,556.53,1581.37,556.27,1581.83,556Z" fill="#2f3f5b"/><path d="M1577.42,558.43l-1.39.73Z" fill="#2f3f5b"/><path d="M1582.16,555.82c1.18-.67,2.35-1.34,3.5-2l.18-.11c-1.31.78-2.65,1.56-4,2.32Z" fill="#2f3f5b"/><path d="M1578.18,558c.76-.41,1.49-.83,2.24-1.24-1,.55-2,1.1-3,1.64Z" fill="#2f3f5b"/><path d="M1591.08,550.45l-1.17.75Z" fill="#2f3f5b"/><path d="M1589.38,551.53l.53-.33c-1,.61-2,1.21-3,1.81C1587.77,552.52,1588.59,552,1589.38,551.53Z" fill="#2f3f5b"/><path d="M1587,553l-1.11.67Z" fill="#2f3f5b"/><path d="M1566.26,564.07l.47-.23c-1.33.64-2.68,1.27-4,1.9Z" fill="#2f3f5b"/><path d="M1552.87,570l2.35-1-3.41,1.44Z" fill="#2f3f5b"/><path d="M1562.68,565.74l-.82.38Z" fill="#2f3f5b"/><path d="M1557.6,568l4.18-1.86.08,0q-2.37,1.08-4.8,2.13Z" fill="#2f3f5b"/><path d="M1573.08,560.7l-1.81.91Z" fill="#2f3f5b"/><path d="M1574.45,560c.54-.27,1.06-.56,1.58-.84-1,.52-2,1-3,1.54C1573.54,560.46,1574,560.24,1574.45,560Z" fill="#2f3f5b"/><path d="M1568.06,563.2l-1.33.64Z" fill="#2f3f5b"/><path d="M1570.22,562.15l1-.54c-1.06.54-2.13,1.06-3.21,1.59Z" fill="#2f3f5b"/><path d="M1626,497.38l-1.13-17.06-8.13,17.62-6.28-17.36-15.55,33.86-8.3-2.91-12.46,8.1c.46-40.7.49-44,.66-71.73l.12-29.59v-.76l0-28.21-9.64,32.09c-13.38,43.6-15.79,51.45-28.62,91.63-5-7.79-11.46-18.23-16.55-25.92l-12.43,98.67c72.34-21.14,116.38-50.53,127.22-85.1l5.45-43.26-1.49-12.51C1635.16,460.71,1630.16,481.73,1626,497.38Z" fill="#55a6d8"/><path d="M1599.67,405.47l-.1.81-3.7,29.39-.1.8-3.7,29.4-.1.8-1.1,8.66c0,.18,0,.42.06.59a2.1,2.1,0,0,0,.58-.94l1.09-8.67.1-.8,3.7-29.39.1-.8,3.71-29.4.1-.8,2.09-16.61a163.3,163.3,0,0,0,30.13-21.2l.2-1.6A164.71,164.71,0,0,1,1602,387.26Z" fill="#fff"/><path d="M1633.77,357.49l-1,8.22-.2,1.6-1,8.2c2.18-2,4.21-4,6.13-6l2.26-18Q1637,354.53,1633.77,357.49Z" fill="#fff"/><path d="M1637.63,369.5l1-1.1c-.32.36-.66.72-1,1.07Z" fill="#fff"/><path d="M1638.62,368.4c.23-.24.46-.49.68-.74C1639.08,367.91,1638.85,368.16,1638.62,368.4Z" fill="#fff"/><path d="M1639.3,367.66c.71-.79,1.41-1.59,2.08-2.39C1640.71,366.07,1640,366.87,1639.3,367.66Z" fill="#fff"/><path d="M1637.63,369.5q2-2.1,3.75-4.23,2.58-3.09,4.77-6.27l2.27-18h0a89.77,89.77,0,0,1-8.53,10.49Z" fill="#2f3f5b"/><path d="M1499.48,600.31l26.38-209.56-.38-.66-.59.93-26.58,211.16c79.29-21.95,126.54-53.41,135.8-90.67.08-.48.17-1.12.21-1.6C1625.09,547,1578.19,578.37,1499.48,600.31Z" fill="#fff"/><path d="M1649.66,341.67c.31-.49.61-1,.91-1.49L1648,356.47c.16-.25.31-.5.46-.75l2.58-16.38.31-2.43c-.44.75-.89,1.5-1.37,2.24Z" fill="#fff"/><path d="M1649.4,354.12l.41-.73.34-2.68-.41.72Z" fill="#fff"/><path d="M1653,333.78a22.67,22.67,0,0,0-1.16,5.58l-.22,1.75.39-.72.24-1.91a7,7,0,0,1,.44-2.17c.14.14-.06,2.63-1.16,8-.58,2.83-.79,3.94-1.12,6.4l-.27,2.15c.4-.72.78-1.46,1.15-2.19l.32-2.52c-.24.48-.49,1-.74,1.44.16-1.38.33-2.23.83-4.7,1.26-6.2,1.79-10.93,1.48-11.3A.91.91,0,0,0,1653,333.78Z" fill="#fff"/><path d="M1654.31,331.08a25.54,25.54,0,0,0-1.13,5.65l-.08.58c-.29,2.41-.6,4.83-.91,7.25L1652,346c-.39,3.24-.25,3.39-.15,3.49.4-.41.81-2.34,1.27-5.89l.18-1.41c.3-2.42.6-4.83.91-7.25l.07-.58c.4-3.24.27-3.38.18-3.48A.73.73,0,0,0,1654.31,331.08ZM1653,342.6l-.21,1.66a11.72,11.72,0,0,1-.45,2.43c0,.06,0,.06-.07.08a6.17,6.17,0,0,1,.12-1.64l.21-1.66a10.68,10.68,0,0,1,.5-2.5C1653.15,341,1653.19,341.05,1653,342.6Zm.93-7.39-.12,1a11.39,11.39,0,0,1-.44,2.28c0,.07,0,.07-.07.09a5.56,5.56,0,0,1,.1-1.51l.13-1a9,9,0,0,1,.53-2.54A6.23,6.23,0,0,1,1653.93,335.21Z" fill="#fff"/><path d="M1655.64,328.07a1.86,1.86,0,0,0-.1.2,30.28,30.28,0,0,0-1,5.6l-.22,1.74c.11-.24.21-.48.31-.72l.24-1.91a10.13,10.13,0,0,1,.4-2.18c.1.27-.2,3-1.12,8-.53,2.9-.71,4-1,6.41l-.27,2.16c.32-.74.62-1.49.91-2.23l.32-2.52c-.19.49-.39,1-.59,1.46.15-1.23.29-2.08.64-4,1.76-9.69,1.64-11.9,1.64-11.91Z" fill="#fff"/><path d="M1272.23,296.18c32,29.18,85.22-5.35,82.55-53.55-1.28-23.27-17.81-38.8-40.18-37.74C1262.93,210,1242.58,269.13,1272.23,296.18Zm51.57-67.87,5.34-.31.74-5.81,2.37-.14-.73,5.81,5.31-.34-.33,2.6-5.3.34-.74,5.83-2.38.14.74-5.83-5.35.31Zm-23.55,8.17c8.91-9.58,22.67-5.93,23,6.11.25,8.92-7.21,17.4-15.66,17.81C1295.66,260.77,1291.18,246.24,1300.25,236.48Zm-16.7,38,.43-3.38a10.71,10.71,0,0,1,7.52-8.76l6.46-1.9a13.5,13.5,0,0,0,9.32,2.88,17.77,17.77,0,0,0,10-3.8c8.22,1.86,11.61,2.63,10.87,9.47l-.42,3.38a5.32,5.32,0,0,1-4.58,4.67q-17.49,1.05-35.88,1.71A3.6,3.6,0,0,1,1283.55,274.5Z" fill="#d5ebfc"/><path d="M1219.57,164.59l-23.38,185.76q19.92.22,39.59,0c55.74-.57,106.17-3.73,150.72-9.11l23.38-185.75h0c-44.55,5.38-95,8.53-150.71,9.11Q1239.5,164.82,1219.57,164.59Zm54.84,52.24c37.88-34.79,87.62-17.57,85.86,29.72C1359,281,1331.85,311.33,1301,312.79,1247.46,312.37,1237.91,250.36,1274.41,216.83Z" fill="#d5ebfc"/><path d="M1315.37,198.74c-58,5.74-80.87,72-47.58,102.28,35.73,32.53,95.34-6.2,92.44-60.06C1358.8,214.51,1340.78,197.54,1315.37,198.74Zm39.46,48.89c-1.13,30.68-25.42,57.7-53,59-47.48-.37-56-55.67-23.63-85.58C1312,189.81,1356.38,205.2,1354.83,247.63Z" fill="#55a6d8"/><path d="M1299.54,257.72c9.25,7.92,24.53-2.14,23.71-15.6-.42-6.84-5.33-11.4-11.94-11.08C1297.88,231.9,1290.07,249.61,1299.54,257.72Z" fill="#2f3f5b"/><path d="M1323.06,260.85l-5.81-1.31c-6.55,4.77-13.76,5.11-19.29.92-8.92,2.62-13,3.82-14,10.66l-.43,3.38a3.57,3.57,0,0,0,3.69,4.27q18.39-.66,35.88-1.71a5.31,5.31,0,0,0,4.58-4.67l.42-3.38C1328.57,264.84,1326.63,261.72,1323.06,260.85Z" fill="#2f3f5b"/><path d="M1323.47,230.91l5.35-.31.32-2.6-5.34.31Z" fill="#2f3f5b"/><path d="M1331.2,230.46l5.3-.34.33-2.6-5.31.34Z" fill="#2f3f5b"/><path d="M1329.14,228l-.32,2.6-.74,5.83,2.38-.14.74-5.83.32-2.6.73-5.81-2.37.14Z" fill="#2f3f5b"/></g><g style="mix-blend-mode:multiply"><path d="M618.7,683.64c0-.35-.07-1.06-.83-1.14-.56,0-.76.23-.74,1l.26,5.76c.1,1.6,1.26,1.11,1.39,1a1.26,1.26,0,0,0,.18-.8Z" fill="#d5ebfc"/><path d="M601.45,643.48l-.13-3c0-.5-.12-1.67-1.28-1.8-.87-.06-1.2.37-1.18,1.54l.14,3c.15,2.25,1.85,1.88,2.18,1.49A1.84,1.84,0,0,0,601.45,643.48Z" fill="#d5ebfc"/><path d="M624.59,648a1.27,1.27,0,0,0,.18-.79l-.26-5.8c0-.29-.07-1.06-.84-1.13-.55,0-.76.25-.74,1l.25,5.8C623.29,648.58,624.43,648.18,624.59,648Z" fill="#d5ebfc"/><path d="M412.78,500.07c-31.37-16-46.68-33.66-47.48-51.73l12.52,283.2c.8,18.07,16.11,35.77,47.48,51.73,54,27.47,145.5,44.66,250.36,50.33L663.14,550.4C558.29,544.72,466.77,527.54,412.78,500.07Zm215.46,190.7.24,5.51c0,1.81-.72,2.66-2.22,2.53h0c-1.59-.21-2.36-1.11-2.5-2.95l-.24-5.51c0-3.62,3.22-2.43,3.86-1.82A3.44,3.44,0,0,1,628.24,690.77Zm-4.31-9.09,1.43.13L620,698.12l-1.42-.14Zm-5.65,10.22c-1.59-.22-2.33-1.09-2.47-2.92l-.24-5.52c-.05-3.67,3.19-2.42,3.85-1.79a3.33,3.33,0,0,1,.86,2.24l.24,5.51C620.53,690.09,620.56,692.11,618.28,691.9Zm6.93-52.48a3.43,3.43,0,0,1,.86,2.22l.24,5.55c0,1.79-.72,2.62-2.22,2.49s-2.36-1.1-2.49-2.9l-.25-5.56C621.3,637.74,624.39,638.64,625.21,639.42Zm-2-6.74L617.8,649l-1.42-.14,5.37-16.29Zm-5.94-.12a3.32,3.32,0,0,1,.86,2.22l.24,5.56c0,1.78-.72,2.61-2.24,2.47s-2.33-1.11-2.47-2.92l-.24-5.55C613.35,630.86,616.44,631.77,617.25,632.56Zm-5.42-.94.1,2.33-2.88,14.18-2.41-.24,2.88-14.1-4.81-.49-.11-2.41ZM434.05,661.05c-3.71,9-9.91,24.18-31.66,56.87-.14-.26-14.57-30.24-24.14-97-.45-.72-.87-1.44-1.27-2.16l-.23-5.18c.23.41.47.82.71,1.23-2.86-23.67-6.18-65.11-.44-70.27,5.93.92,14.39,25.46,19.68,49.22,7.56-37.16,26.27-18.66,32.23-9.25,9.19,14.51,17.81,38.79,6.73,72.11l6.88,2.75.23,5.23Q438.3,662.86,434.05,661.05Zm39.33-54.79a646.33,646.33,0,0,0,69.91,15.55h0c13.24,2.25,27,4.25,41.21,6l.78,17.64q-21.31-2.64-41.21-6a645.8,645.8,0,0,1-69.91-15.55Zm2.18,49.12c11.33,3.26,23.38,6.28,36.05,9,23.11,5,48.31,9.22,75.06,12.53l.78,17.65c-25.75-3.19-50.05-7.19-72.44-12-13.64-2.91-26.56-6.11-38.67-9.6Zm93.09,85.47C535.44,736,505,729.74,478.5,722.11l-.77-17.6c26.51,7.63,56.94,13.9,90.15,18.74q10.3,1.5,21,2.82l.78,17.6Q579,742.35,568.65,740.85Zm28-98.07-.38-8.62c-.11-6.26,5.16-3.63,5.89-2.89a5.51,5.51,0,0,1,1.29,3.52l0,.44-2.28-.24,0-.61c-.17-2.53-2-1.72-2.16-1.59a2.61,2.61,0,0,0-.36,1.72l.14,3.06c.9-2,3.78-1.49,4.6.87a7.42,7.42,0,0,1,.35,2l.14,3.1c0,2.81-1.11,4.11-3.42,3.86S596.83,645.63,596.61,642.78Zm1.71,47.65,3.81-10.91,2.61.28.51,11.39,1.1.12.11,2.41-1.11-.12.14,3.06-2.35-.25-.14-3.06-4.57-.51Zm6.37,55.2c-2.47-.37-3.67-1.81-3.88-4.66l-.06-1.3c0-1.82.33-2.8,1.31-3.39-1-.75-1.51-1.78-1.62-3.56l0-.52c-.07-5.44,4.79-4,6.08-2.71a5.36,5.36,0,0,1,1.37,3.52l0,.53c0,1.72-.35,2.69-1.32,3.23a4.59,4.59,0,0,1,1.63,3.71l0,1.31C608.29,744.6,607.09,745.89,604.69,745.63Zm2.5-52.81-.06-1.35c0-1.78.34-2.76,1.32-3.36a4.25,4.25,0,0,1-1.62-3.54l0-.53c-.07-5.47,4.86-4,6.15-2.75a5.27,5.27,0,0,1,1.38,3.51l0,.54c0,1.72-.34,2.66-1.34,3.24a4.41,4.41,0,0,1,1.65,3.66l.06,1.34c0,2.79-1.17,4.08-3.57,3.84S607.4,695.6,607.19,692.82Zm3.68,52.62a5.54,5.54,0,0,1-1.29-3.51l-.06-1.39,2.25.23.07,1.56c.16,2.32,1.95,1.79,2.21,1.49a2,2,0,0,0,.28-1.24l-.17-3.72c-.16-2.3-1.94-1.78-2.2-1.48a1.83,1.83,0,0,0-.28,1.23l0,.53-2.25-.23,0-9.76,6.38.65.1,2.4c-1.4-.13-2.8-.27-4.19-.42,0,1.21,0,2.82,0,4,.88-1.68,3.68-1.33,4.52,1.07a7.3,7.3,0,0,1,.35,2l.17,3.75C616.82,748.2,612.11,746.7,610.87,745.44ZM618,738.1l-.24-5.55c0-3.48,3-2.56,3.85-1.78a3.33,3.33,0,0,1,.86,2.23l.25,5.55c0,1.78-.73,2.62-2.24,2.47S618.12,739.91,618,738.1Zm2.74,9,5.38-16.3,1.43.12-5.39,16.31Zm7.71.82c-1.61-.2-2.36-1.07-2.49-2.9l-.25-5.56c-.05-3.48,3-2.58,3.86-1.8a3.43,3.43,0,0,1,.86,2.22l.24,5.56C630.66,746.07,630.69,748.09,628.43,747.89Z" fill="#d5ebfc"/><polygon points="625.85 689.38 625.84 689.38 625.84 689.38 625.85 689.38" fill="#d5ebfc"/><path d="M605.19,735.16a1.9,1.9,0,0,0,.33-1.35l0-.93c-.07-1-.29-2-1.45-2.11-.91-.07-1.26.44-1.23,1.81l0,.94C603,736.12,605,735.41,605.19,735.16Z" fill="#d5ebfc"/><path d="M625.1,690.37l.25,5.76c.11,1.59,1.28,1.1,1.41.94a1.27,1.27,0,0,0,.18-.8l-.26-5.76c0-.29-.07-1.07-.84-1.13C625.29,689.35,625.08,689.63,625.1,690.37Z" fill="#d5ebfc"/><polygon points="544.07 639.45 543.29 621.81 543.29 621.81 544.07 639.45" fill="#d5ebfc"/><path d="M611.63,687a2.09,2.09,0,0,0,.33-1.36l0-.94c0-.63-.14-1.93-1.43-2.06-1-.06-1.31.44-1.28,1.78l0,.94C609.42,687.7,611.22,687.4,611.63,687Z" fill="#d5ebfc"/><path d="M612.3,693.26l-.07-1.59c0-.56-.13-1.88-1.42-2-.93-.06-1.32.46-1.29,1.73l.07,1.6c.19,2.74,2.15,2,2.38,1.72A2.21,2.21,0,0,0,612.3,693.26Z" fill="#d5ebfc"/><path d="M600.48,690.67l2.41.27-.28-6.33Z" fill="#d5ebfc"/><path d="M628.85,739.59c0-.29-.07-1.06-.84-1.13-.55,0-.76.25-.74,1l.26,5.8c.1,1.54,1.24,1.14,1.4.93a1.25,1.25,0,0,0,.18-.79Z" fill="#d5ebfc"/><path d="M604.35,737.83c-.91-.06-1.27.46-1.24,1.78l.07,1.55c.2,2.84,2.1,2.05,2.34,1.77a2.42,2.42,0,0,0,.34-1.48l-.07-1.55C605.75,739.37,605.66,738,604.35,737.83Z" fill="#d5ebfc"/><path d="M616.61,641.1a1.25,1.25,0,0,0,.18-.79l-.26-5.8c0-.29-.07-1.06-.83-1.13h0c-.55,0-.76.24-.74,1l.26,5.79C615.32,641.7,616.45,641.31,616.61,641.1Z" fill="#d5ebfc"/><path d="M621.13,738.52l-.26-5.79c0-.3-.07-1.07-.83-1.14-.55,0-.76.25-.74,1l.26,5.8c.1,1.53,1.23,1.14,1.39.93A1.25,1.25,0,0,0,621.13,738.52Z" fill="#d5ebfc"/><path d="M415.5,652.17a5.34,5.34,0,0,1-1.94-3l-2.16-6.71c-.9,2.77-1.38,6.82-3,9.2-1.07,1.54-2.16-.28-2.57-1.13a10.94,10.94,0,0,1-.76-2.29l-3.81-17.6c-2.89,29.27-2.89,29.27-3.54,29.94l-.62-.1,0,0c-.65-.69-1.18-1.45-1.71-4.29-1.9-12-4.41-28.12-6.24-40.18-2.06,14-2.06,14-2.34,14.66l-.52.21-.17-.13a60.25,60.25,0,0,1-7.78-9.78c2.24,15.58,8.17,57,23.95,97.27,21.78-32.6,28.33-48.57,31.85-57.15-5.07-2.17-9.9-4.42-14.45-6.74Q417.5,653.25,415.5,652.17Z" fill="#2f3f5b"/><path d="M417.44,573c-13.62-5.8-18.36,9.07-20.74,20.77C389.19,560,379.39,540.1,376,545.49c-2.32,3.67-3.85,25.17,1.49,69.33a59,59,0,0,0,8.34,10.71c1.95-14.32,1.95-14.32,2.27-15l.57-.2c.55.56,1.17,1.19,1.72,4.44,1.88,12,4.43,28,6.4,40,2.63-29.22,2.63-29.22,3.66-29.91.69.28,1.55.63,2.39,4l3.94,17.82c.92-2.68,1.36-6.71,3.16-8.89.9-1.09,2.12,0,2.86,1.61.14.3.29.72.4,1l2.2,6.7c6.07,2.9,14.1,6.89,20.29,9.51C451.64,608.58,425.81,577.14,417.44,573Z" fill="#2f3f5b"/><path d="M435.66,656.63c-6.11-2.81-14.33-6.4-20.29-9.51-2.67-8.14-4-12.22-5.62-9.07a3.65,3.65,0,0,0-.14.35l-2.86,8.26c-4.09-18.5-4.09-18.5-4.31-19.15-.79-2.41-2-3.38-2.69-2.16a4.82,4.82,0,0,0-.44,1.67c-.78,8.31-1.82,19.39-2.55,27.7-7.11-43.61-7.11-43.61-7.92-44.3-.43-.26-.87-.37-1.15,1.26l-1.89,13.85a59,59,0,0,1-8.34-10.71c-.24-.41-.48-.82-.71-1.23l.23,5.18c.4.72.82,1.44,1.27,2.16a60.25,60.25,0,0,0,7.78,9.78l.33.18c.33-.19.52-.3.71-1.43l2-13.49c6.59,43.29,6.59,43.29,7.95,44.47l0,0c.42.16,1.19.46,1.47-2.06.79-8.34,1.85-19.45,2.69-27.78,3.94,18.23,3.94,18.23,4.14,18.83.88,2.58,2.2,3.54,3,2.19a2.45,2.45,0,0,0,.22-.5l2.83-8.7c2.86,8.9,2.86,8.9,4.1,9.72s2.7,1.43,4.1,2.14c4.55,2.32,9.38,4.57,14.45,6.74q4.24,1.82,8.72,3.56l-.23-5.23Z" fill="#55a6d8"/><path d="M603.7,640.47c-.34-5.11-3.83-4.45-4.62-3.48a2.17,2.17,0,0,0-.33.58l-.14-3.06c-.08-3.18,2-1.59,2.06-1.56a2.35,2.35,0,0,1,.46,1.43l0,.61,2.28.24,0-.44c-.07-1.06-.31-4.26-3.75-4.63-2.49-.18-3.48,1-3.43,4l.38,8.62c.41,5.41,5.12,5.31,6.43,3.82a4.41,4.41,0,0,0,.8-3ZM600.32,645h0c-.87-.13-1.24-.63-1.32-1.77l-.14-3c0-2.46,1.82-1.34,2-1.17a2.33,2.33,0,0,1,.47,1.43l.13,3C601.46,644,601.48,645.1,600.32,645Z" fill="#55a6d8"/><path d="M604.6,630.89l.11,2.41,4.81.49-2.88,14.1,2.41.24L611.93,634l-.1-2.33Z" fill="#55a6d8"/><path d="M618.35,640.34l-.24-5.56c-.13-1.79-1-2.77-2.48-2.91s-2.26.67-2.23,2.47l.24,5.55c.27,3.59,3.47,3.19,4.2,2.38A2.77,2.77,0,0,0,618.35,640.34Zm-2.3,1c-.55-.07-.78-.39-.83-1.14l-.26-5.79c0-1.56,1.17-.86,1.27-.75a1.39,1.39,0,0,1,.3.89l.26,5.8C616.79,640.6,616.81,641.37,616.05,641.3Z" fill="#55a6d8"/><path d="M621.75,632.56l-5.37,16.29,1.42.14,5.39-16.31Z" fill="#55a6d8"/><path d="M623.61,638.74c-1.59-.08-2.28.69-2.26,2.48l.25,5.56c.27,3.6,3.47,3.17,4.2,2.35a2.81,2.81,0,0,0,.51-1.94l-.24-5.55C625.93,639.85,625.1,638.87,623.61,638.74Zm.41,9.43c-.55-.07-.79-.38-.84-1.13l-.25-5.8c0-1.55,1.17-.85,1.28-.75a1.39,1.39,0,0,1,.3.89l.26,5.8C624.77,647.47,624.79,648.24,624,648.17Z" fill="#55a6d8"/><path d="M543.29,621.81a646.33,646.33,0,0,1-69.91-15.55l.78,17.64a645.8,645.8,0,0,0,69.91,15.55l-.78-17.64Z" fill="#55a6d8"/><path d="M543.29,621.81l.78,17.64q19.86,3.38,41.21,6l-.78-17.64C570.3,626.06,556.53,624.06,543.29,621.81Z" fill="#2f3f5b"/><path d="M606.35,691.31l-1.1-.12-.51-11.39-2.61-.28-3.81,10.91.11,2.41,4.57.51.14,3.06,2.35.25-.14-3.06,1.11.12Zm-5.87-.64,2.13-6.06.28,6.33Z" fill="#55a6d8"/><path d="M614.66,692.24a4.41,4.41,0,0,0-1.65-3.66c1-.58,1.39-1.52,1.34-3.24l0-.54c-.22-2.82-1.54-4.37-3.94-4.62h0c-2.52-.15-3.62,1-3.59,3.86l0,.53a4.25,4.25,0,0,0,1.62,3.54c-1,.6-1.37,1.58-1.32,3.36l.06,1.35c.41,5.37,5.33,5.25,6.69,3.77a4.27,4.27,0,0,0,.84-3Zm-5.45-7.87c-.06-2.93,2.13-1.42,2.15-1.4a2.64,2.64,0,0,1,.56,1.68l0,.94c0,.49,0,1.79-1.26,1.66-.93-.13-1.36-.71-1.45-1.94ZM611,695c-.95-.13-1.36-.7-1.45-2l-.07-1.6c0-2.73,2.07-1.42,2.09-1.4a2.45,2.45,0,0,1,.62,1.68l.07,1.59C612.31,693.87,612.33,695.14,611,695Z" fill="#55a6d8"/><path d="M620.52,689.42l-.24-5.51A2.75,2.75,0,0,0,617.8,681c-1.59-.09-2.26.65-2.23,2.47l.24,5.52c.27,3.57,3.47,3.2,4.2,2.39A2.81,2.81,0,0,0,620.52,689.42Zm-2.3,1c-.57-.08-.78-.38-.83-1.14l-.26-5.76c0-1.63,1.26-.77,1.27-.76a1.39,1.39,0,0,1,.3.91l.26,5.76C619,689.74,619,690.46,618.22,690.39Z" fill="#55a6d8"/><path d="M625.78,687.86c-1.61-.07-2.28.67-2.26,2.49l.24,5.51c.28,3.65,3.48,3.22,4.21,2.39a2.88,2.88,0,0,0,.51-2l-.24-5.51A2.73,2.73,0,0,0,625.78,687.86Zm.41,9.4c-.57-.07-.79-.37-.84-1.13l-.25-5.76c0-1.56,1.18-.86,1.28-.75a1.39,1.39,0,0,1,.3.89l.26,5.76C626.94,696.61,627,697.33,626.19,697.26Z" fill="#55a6d8"/><path d="M623.93,681.68,618.55,698l1.42.14,5.39-16.31Z" fill="#55a6d8"/><path d="M512.39,682.06l2.62.56-2.62-.57Z" fill="#55a6d8"/><path d="M475.56,655.38l.78,17.64c11.33,3.26,23.38,6.27,36.05,9l-.78-17.64C498.94,661.66,486.89,658.64,475.56,655.38Z" fill="#55a6d8"/><path d="M511.61,664.41l.78,17.65,2.62.56c22.39,4.78,46.69,8.78,72.44,12l-.78-17.65C559.92,673.63,534.72,669.45,511.61,664.41Z" fill="#2f3f5b"/><path d="M608.2,740.48a4.59,4.59,0,0,0-1.63-3.71c1-.54,1.36-1.51,1.32-3.23l0-.53c-.22-2.82-1.54-4.39-3.94-4.65s-3.55,1-3.51,3.84l0,.52c.11,1.78.58,2.81,1.62,3.56-1,.59-1.36,1.57-1.31,3.39l.06,1.3c.42,5.63,5.47,5.1,6.61,3.85a4.29,4.29,0,0,0,.83-3Zm-5.4-7.9c-.06-3,2.1-1.44,2.12-1.42a2.73,2.73,0,0,1,.56,1.72l0,.93c0,.53,0,1.75-1.28,1.61-.92-.13-1.31-.66-1.4-1.9Zm1.78,10.64c-1.05-.15-1.32-.93-1.4-2.06l-.07-1.55c-.06-2.85,2-1.46,2-1.44a2.55,2.55,0,0,1,.63,1.73l.07,1.55C605.86,742.44,605.7,743.35,604.58,743.22Z" fill="#55a6d8"/><path d="M616.57,738.9c-.34-5.1-3.88-4.28-4.53-3.59a2,2,0,0,0-.34.5v-4c1.39.15,2.79.29,4.19.42l-.1-2.4-6.38-.65,0,9.76,2.25.23,0-.53c0-2.36,1.84-1.3,2-1.14a2.16,2.16,0,0,1,.48,1.39l.17,3.72c0,2.51-2,1.17-2,1.15a2.14,2.14,0,0,1-.49-1.4l-.07-1.56-2.25-.23.06,1.39c.42,5.67,5.28,5.05,6.38,3.77a4.53,4.53,0,0,0,.78-3.05Z" fill="#55a6d8"/><path d="M622.7,738.55l-.25-5.55c-.13-1.8-1-2.78-2.48-2.92s-2.26.67-2.23,2.47l.24,5.55c.27,3.59,3.47,3.19,4.2,2.38A2.84,2.84,0,0,0,622.7,738.55Zm-2.31,1c-.55-.07-.78-.39-.83-1.13l-.26-5.8c0-1.56,1.17-.85,1.27-.75a1.4,1.4,0,0,1,.3.9l.26,5.79C621.13,738.81,621.15,739.58,620.39,739.51Z" fill="#55a6d8"/><path d="M628,737h0c-1.59-.07-2.28.69-2.26,2.48l.25,5.56c.26,3.58,3.47,3.18,4.2,2.37a2.83,2.83,0,0,0,.51-2l-.24-5.56C630.27,738.06,629.45,737.08,628,737Zm.41,9.43c-.55-.07-.78-.38-.83-1.13l-.26-5.8c0-1.55,1.18-.85,1.28-.75a1.39,1.39,0,0,1,.3.89l.26,5.8C629.11,745.68,629.13,746.45,628.36,746.38Z" fill="#55a6d8"/><path d="M626.1,730.77l-5.38,16.3,1.42.13,5.39-16.31Z" fill="#55a6d8"/><path d="M477.73,704.51l.77,17.6c26.52,7.63,56.94,13.9,90.15,18.74l-.77-17.6C534.67,718.41,504.24,712.14,477.73,704.51Z" fill="#55a6d8"/><path d="M567.88,723.25l.77,17.6q10.32,1.5,21,2.82l-.78-17.6Q578.19,724.75,567.88,723.25Z" fill="#2f3f5b"/></g><rect x="1270.65" y="970.29" width="178.87" height="178.87" fill="#d5ebfc"/><path d="M1360.08,992.37a56.58,56.58,0,1,0,56.58,56.58A56.65,56.65,0,0,0,1360.08,992.37Zm0,101.53a44.95,44.95,0,1,1,45-45A45,45,0,0,1,1360.08,1093.9Z" fill="#2f3f5b"/><path d="M1379.7,995a6.61,6.61,0,1,0-4.52,12.42,44.16,44.16,0,1,1-59.25,41.5,6.61,6.61,0,1,0-13.22,0,57.38,57.38,0,1,0,77-53.92Z" fill="#55a6d8"/><rect x="1310.72" y="1121.33" width="44.87" height="8.52" fill="#55a6d8"/><rect x="1355.59" y="1121.33" width="23.4" height="8.52" fill="#2f3f5b"/></g></g></svg>