<svg xmlns="http://www.w3.org/2000/svg" width="74.826" height="64.871" viewBox="0 0 74.826 64.871">
  <g id="cloud-computing" transform="translate(0 -31.925)">
    <g id="Group_2931" data-name="Group 2931" transform="translate(0 31.925)">
      <g id="Group_2930" data-name="Group 2930">
        <path id="Path_9354" data-name="Path 9354" d="M61.865,47.494h0A19.942,19.942,0,0,0,25.13,41.915h-.186A16.247,16.247,0,0,0,9.005,55.225a13.72,13.72,0,0,0,4.714,26.6h1.247V79.334H13.719a11.226,11.226,0,0,1-3.243-21.971,1.247,1.247,0,0,0,.873-1.033,13.74,13.74,0,0,1,13.6-11.92c.19,0,.374.014.564.026l.264.016a1.264,1.264,0,0,0,1.175-.665,17.449,17.449,0,0,1,32.623,4.958,1.247,1.247,0,0,0,.964,1,14.968,14.968,0,0,1-3.161,29.591v2.495a17.462,17.462,0,0,0,4.49-34.334Z" transform="translate(0 -31.925)" fill="#8b8a8a"/>
      </g>
    </g>
    <g id="Group_2933" data-name="Group 2933" transform="translate(17.461 59.377)">
      <g id="Group_2932" data-name="Group 2932" transform="translate(0 0)">
        <path id="Path_9355" data-name="Path 9355" d="M130.7,208a18.71,18.71,0,1,0,18.71,18.71A18.71,18.71,0,0,0,130.7,208Zm0,34.924a16.215,16.215,0,1,1,16.215-16.215A16.215,16.215,0,0,1,130.7,242.924Z" transform="translate(-111.991 -208)" fill="#8b8a8a"/>
      </g>
    </g>
    <g id="Group_2935" data-name="Group 2935" transform="translate(28.232 70.149)">
      <g id="Group_2934" data-name="Group 2934">
        <path id="Path_9356" data-name="Path 9356" d="M196.955,278.852l-1.764-1.764-6.174,6.174-6.174-6.174-1.764,1.764,6.174,6.174-6.174,6.174,1.764,1.764,6.174-6.174,6.174,6.174,1.764-1.764-6.174-6.174Z" transform="translate(-181.079 -277.088)" fill="#8b8a8a"/>
      </g>
    </g>
  </g>
</svg>
