<svg xmlns="http://www.w3.org/2000/svg" width="18.609" height="18.422" viewBox="0 0 18.609 18.422">
  <g id="notification_3_" data-name="notification (3)" transform="matrix(0.899, 0.438, -0.438, 0.899, 5.981, 0)">
    <path id="Path_21" data-name="Path 21" d="M189.427,468.4a2.345,2.345,0,0,0,2.146-1.4h-4.291A2.345,2.345,0,0,0,189.427,468.4Z" transform="translate(-182.402 -452.419)" fill="#005d8d"/>
    <path id="Path_22" data-name="Path 22" d="M42.863,7.739V6.713a4.848,4.848,0,0,0-3.434-4.631V1.4a1.4,1.4,0,1,0-2.81,0v.677a4.848,4.848,0,0,0-3.434,4.631V7.739a7.354,7.354,0,0,1-2.055,5.113.468.468,0,0,0,.338.792H44.58a.468.468,0,0,0,.338-.792,7.354,7.354,0,0,1-2.055-5.113ZM38.492,1.9c-.154-.015-.31-.023-.468-.023s-.314.008-.468.023V1.4a.468.468,0,1,1,.937,0Z" transform="translate(-30.999 0)" fill="#005d8d"/>
    <path id="Path_23" data-name="Path 23" d="M391.413,56.611a.468.468,0,1,0,.937,0,6.979,6.979,0,0,0-2.058-4.967.468.468,0,1,0-.662.662,6.048,6.048,0,0,1,1.783,4.305Z" transform="translate(-378.3 -49.899)" fill="#005d8d"/>
    <path id="Path_24" data-name="Path 24" d="M31.468,57.08a.468.468,0,0,0,.468-.468,6.049,6.049,0,0,1,1.783-4.305.468.468,0,0,0-.662-.662A6.979,6.979,0,0,0,31,56.612.468.468,0,0,0,31.468,57.08Z" transform="translate(-31 -49.899)" fill="#005d8d"/>
  </g>
</svg>
