<?xml version="1.0" encoding="UTF-8"?>
<svg xmlns="http://www.w3.org/2000/svg" width="24" height="24" viewBox="0 0 512 512"><g><path d="M409.7,136.25l11.44-11.45,11.32,11.31a7.979,7.979,0,0,0,11.31,0l16.97-16.97a8,8,0,0,0,0-11.31L404.17,51.26a8,8,0,0,0-11.31,0L375.89,68.23a7.985,7.985,0,0,0,0,11.31L387.2,90.86l-14.99,14.99A213.682,213.682,0,0,0,280,73.33V56h24a8,8,0,0,0,8-8V16a8,8,0,0,0-8-8H208a8,8,0,0,0-8,8V48a8,8,0,0,0,8,8h24V73.33A216.013,216.013,0,0,0,103.26,440.74,216,216,0,0,0,409.7,136.25ZM398.51,68.23l45.26,45.26-5.66,5.65L392.86,73.89Zm0,33.94,11.32,11.32-11.79,11.78q-6.075-5.31-12.48-10.14ZM216,40V24h80V40Zm48,16V72H248V56Zm-8,432C145.72,488,56,398.28,56,288S145.72,88,256,88s200,89.72,200,200S366.28,488,256,488Z"/><path d="M256,120c-92.64,0-168,75.36-168,168s75.36,168,168,168,168-75.36,168-168S348.64,120,256,120Zm0,16c81.13,0,147.62,63.89,151.79,144H380.06a65.447,65.447,0,0,0-107.63-68.77L256,225.87l-16.43-14.64A65.49,65.49,0,0,0,131.89,280H104.21C108.38,199.89,174.87,136,256,136Zm61.77,144-14.18-42.53a8,8,0,0,0-14.75-1.05L256,302.11l-24.84-49.69a8,8,0,0,0-13.56-1.22L196,280H149.31a49.455,49.455,0,0,1,79.11-57.28c.11.11.23.21.34.31l21.92,19.53a8,8,0,0,0,10.64,0l21.92-19.53c.11-.1.22-.2.33-.31A49.45,49.45,0,0,1,362.67,280Zm32.36,16L256,389.04,161.88,296H200a8.009,8.009,0,0,0,6.4-3.2l16.23-21.64,26.21,52.42a8.009,8.009,0,0,0,14.32,0l31.36-62.73,9.89,29.68A8,8,0,0,0,312,296ZM256,440c-81.13,0-147.62-63.89-151.79-144H140.4a66.711,66.711,0,0,0,6.81,8L250.37,405.98a8,8,0,0,0,11.25,0L364.8,304a.138.138,0,0,0,.03-.04,65.055,65.055,0,0,0,6.78-7.96h36.18C403.62,376.11,337.13,440,256,440Z"/></g></svg>
