<svg xmlns="http://www.w3.org/2000/svg" width="26.886" height="26.886" viewBox="0 0 26.886 26.886">
  <g id="Group_3020" data-name="Group 3020" transform="translate(-3242.539 -1764.518)">
    <g id="Group_2664" data-name="Group 2664" transform="translate(3242.539 1764.518)">
      <path id="Path_8771" data-name="Path 8771" d="M13.443,0A13.443,13.443,0,1,1,0,13.443,13.443,13.443,0,0,1,13.443,0Z" transform="translate(0 0)" fill="#f7617d"/>
    </g>
    <g id="blood-pressure_1_" data-name="blood-pressure (1)" transform="translate(3249.554 1769.779)">
      <path id="Path_8795" data-name="Path 8795" d="M11.376,14.4a.675.675,0,0,1-.562-.3l-1.15-1.725H8.675a.675.675,0,0,1,0-1.351h1.351a.676.676,0,0,1,.562.3l.7,1.057L12.8,9.373A.676.676,0,0,1,13.376,9a.667.667,0,0,1,.605.327l1.829,3.05h.968a.675.675,0,0,1,0,1.351H15.428a.674.674,0,0,1-.579-.328l-1.393-2.322-1.475,2.952a.676.676,0,0,1-.563.372Z" transform="translate(-3.948 -2.929)" fill="#fff"/>
      <path id="Path_8796" data-name="Path 8796" d="M13.48,12.158a2.032,2.032,0,0,1-1.735-.986l-.128-.209-.378.75a2,2,0,0,1-1.681,1.114l-.128.007a2.021,2.021,0,0,1-1.688-.9l-.75-1.121H6.727a2.026,2.026,0,0,1,0-4.052H8.077a1.988,1.988,0,0,1,.986.257l.581-1.161a2.012,2.012,0,0,1,2.566-.972A31.411,31.411,0,0,0,8.435.152a.523.523,0,0,0-.716,0C7.483.388,2,5.966,2,10.085a6.072,6.072,0,0,0,11.8,2.073Z" transform="translate(-2 -0.01)" fill="#fff"/>
    </g>
  </g>
</svg>
