<svg id="Capa_1" enable-background="new 0 0 495.071 495.071" height="512" viewBox="0 0 495.071 495.071" width="512" xmlns="http://www.w3.org/2000/svg"><g><path d="m136.025 431.089-53.033-53.033-38.05 101.689c6.374 5.138 13.069 9.892 20.063 14.211 2.956 1.825 6.786 1.367 9.242-1.09z" fill="#ffc40f"/><path d="m63.984 359.048-61.78 61.78c-2.453 2.453-2.917 6.277-1.096 9.229 11.696 18.964 26.559 35.763 43.835 49.689l69.869-69.869z" fill="#ffd959"/><path d="m490.678 4.395c-5.858-5.858-15.355-5.858-21.213 0l-180.313 180.312 21.213 21.213 180.313-180.312c5.858-5.858 5.858-15.355 0-21.213z" fill="#fff8e3"/><path d="m331.579 205.921c5.858-5.858 5.858-15.355 0-21.213l-10.607-10.607-103.095 60.669 42.426 42.426z" fill="#ffc40f"/><path d="m310.365 163.494c-5.858-5.858-15.355-5.858-21.213 0l-71.275 71.275 21.213 21.213 81.882-81.882z" fill="#ffd959"/><path d="m262.673 232.4-190.919 190.919c52.721 52.721 138.198 52.721 190.919 0s52.721-138.198 0-190.919z" fill="#49f5e8"/><path d="m241.459 402.106c52.721-52.721 62.218-128.701 21.213-169.706-52.721-52.721-138.198-52.721-190.919 0s-52.721 138.198 0 190.919c41.006 41.005 116.986 31.507 169.706-21.213z" fill="#9bfef7"/><path d="m220.246 274.827-106.066 106.066c29.289 29.289 76.777 29.289 106.066 0 29.29-29.29 29.29-76.777 0-106.066z" fill="#4ad6cf"/><path d="m199.033 359.679c29.289-29.289 38.787-67.279 21.213-84.853-29.289-29.289-76.777-29.289-106.066 0s-29.289 76.777 0 106.066c17.574 17.574 55.564 8.077 84.853-21.213z" fill="#49f5e8"/></g></svg>