<svg id="Capa_1" enable-background="new 0 0 512.215 512.215" height="512" viewBox="0 0 512.215 512.215" width="512" xmlns="http://www.w3.org/2000/svg"><g><path d="m507.007 175.065-41.998 36.206-115.419 73.762-64.636 81.059-70.266 60.973-4.423.565-125.054-125.935.155-3.95 66.426-77.054 90.126-60.593 56.795-109.835 38.653-44.838c5.68-6.6 15.79-6.99 21.96-.82l148.5 148.5c6.14 6.14 5.81 16.25-.819 21.96z" fill="#7cd6f4"/><path d="m506.835 174.894-41.69 35.94-97.862 60.264-85.448 97.766-67.32 58.03-4.42.57-62.51-62.95c-.158.158 277.639-277.629 285.83-285.82l74.24 74.24c6.14 6.14 5.81 16.25-.82 21.96z" fill="#37afe2"/><path d="m214.47 426.849-.84.73c-5.262 4.51-4.428 2.197-77.54 17.5-4.728.965-9.893-.445-13.56-4.1l-51.51-51.51c-3.55-3.55-5.09-8.64-4.1-13.56 15.294-73.069 12.987-72.274 17.5-77.54l.73-.84z" fill="#f3f4ff"/><path d="m214.47 426.849-.84.73c-5.16 4.43-4.46 2.28-73.54 16.67-1.31.27-2.64.55-4 .83-4.73.96-9.89-.45-13.56-4.1l-25.75-25.75c-.737.739 9.9-9.89 53.04-53.03z" fill="#e3e8ff"/><path d="m465.1 210.789-183.31 158.03c-66.88-12.889-125.705-71.646-138.61-138.61l158.03-183.31z" fill="#f3f4ff"/><path d="m465.1 210.789-183.31 158.03c-33.44-6.45-64.88-24.36-89.56-49.04l190.93-190.93z" fill="#e3e8ff"/><path d="m298.303 234.909 10.607-10.607c5.858-5.858 5.858-15.355 0-21.213-5.857-5.857-15.355-5.858-21.213 0l-10.606 10.607-10.606-10.607c-5.856-5.857-15.354-5.858-21.213 0-5.858 5.858-5.858 15.355 0 21.213l10.607 10.607-10.607 10.607c-5.858 5.858-5.858 15.355 0 21.213 5.857 5.857 15.355 5.858 21.213 0l10.606-10.607 10.606 10.607c5.857 5.858 15.354 5.858 21.213 0 5.858-5.858 5.858-15.355 0-21.213z" fill="#ff6d66"/><path d="m308.91 245.519c5.86 5.86 5.86 15.35 0 21.21s-15.36 5.86-21.21 0l-10.61-10.61-10.61 10.61c-5.85 5.86-15.34 5.86-21.2.01 20.48-20.48 42.33-42.34 63.63-63.64 5.86 5.86 5.86 15.35 0 21.2l-10.61 10.61z" fill="#dd335a"/><path d="m140.11 444.269-72.78 63.99c-5.948 5.236-14.927 4.934-20.51-.65l-42.43-42.43c-5.59-5.59-5.88-14.57-.65-20.51l63.99-72.78z" fill="#ff6d66"/><path d="m140.11 444.269-72.78 63.99c-5.95 5.24-14.93 4.93-20.51-.65l-21.21-21.21c1.253-1.252-11.452 11.45 78.32-78.31l36.16 36.16z" fill="#dd335a"/></g></svg>