<svg xmlns="http://www.w3.org/2000/svg" width="22.172" height="22.172" viewBox="0 0 22.172 22.172">
  <g id="check-box-with-check-sign" transform="translate(0)">
    <path id="Path_9432" data-name="Path 9432" d="M18.669,0H3.5A3.507,3.507,0,0,0,0,3.5V18.669a3.507,3.507,0,0,0,3.5,3.5H18.669a3.507,3.507,0,0,0,3.5-3.5V3.5A3.507,3.507,0,0,0,18.669,0Zm1.168,18.669a1.169,1.169,0,0,1-1.168,1.168H3.5a1.169,1.169,0,0,1-1.168-1.168V3.5A1.169,1.169,0,0,1,3.5,2.336H18.669A1.169,1.169,0,0,1,19.836,3.5V18.669Z" transform="translate(0 0)" fill="#005d8d"/>
    <path id="Path_9433" data-name="Path 9433" d="M97.292,106.585a1.4,1.4,0,0,0-1,.413l-5.218,5.226-1.391-1.391a1.41,1.41,0,1,0-1.994,1.994l2.388,2.388a1.41,1.41,0,0,0,1.994,0l6.214-6.223a1.41,1.41,0,0,0-1-2.407Z" transform="translate(-81.904 -100.021)" fill="#005d8d"/>
  </g>
</svg>
