<svg xmlns="http://www.w3.org/2000/svg" width="28.829" height="28.829" viewBox="0 0 28.829 28.829">
  <g id="temperature" transform="translate(-22 -510.329)">
    <path id="Path_8771" data-name="Path 8771" d="M14.415,0A14.415,14.415,0,1,1,0,14.415,14.415,14.415,0,0,1,14.415,0Z" transform="translate(22 510.329)" fill="#005d8d"/>
    <path id="heat" d="M25.992,7.342v.824H22.8V7.342Zm-1.34,1.8H22.8v.824h1.855ZM22.8,11.76h3.194v-.824H22.8Zm1.855.973H22.8v.824h1.855ZM22.8,15.354h3.194v-.824H22.8Zm.5,4.7a4.173,4.173,0,1,1-6.286-3.6V6.993a2.112,2.112,0,0,1,4.225,0v9.461a4.152,4.152,0,0,1,2.061,3.6Zm-.824,0a3.334,3.334,0,0,0-1.835-2.984l-.225-.115V6.994a1.288,1.288,0,0,0-2.576,0v9.958l-.225.115a3.348,3.348,0,1,0,4.863,2.984Zm-.687,0a2.662,2.662,0,1,1-3.347-2.569l.153-.041V8.278h1.065v9.163l.153.041a2.662,2.662,0,0,1,1.977,2.569Zm-2.53-1.774a.533.533,0,0,0-.636-.4A2.188,2.188,0,0,0,16.9,20.021a.532.532,0,1,0,1.063,0,1.144,1.144,0,0,1,.885-1.109A.534.534,0,0,0,19.254,18.277Z" transform="translate(16.454 509.6)" fill="#fff"/>
  </g>
</svg>
