<svg xmlns="http://www.w3.org/2000/svg" width="27.282" height="27.281" viewBox="0 0 27.282 27.281">
  <g id="Group_2957" data-name="Group 2957" transform="translate(-162 -418)">
    <g id="Group_2664" data-name="Group 2664" transform="translate(162 418)">
      <path id="Path_8771" data-name="Path 8771" d="M13.641,0A13.641,13.641,0,1,1,0,13.641,13.641,13.641,0,0,1,13.641,0Z" transform="translate(0 0)" fill="#fecd54"/>
    </g>
    <g id="Group_2956" data-name="Group 2956" transform="translate(168.022 423.396)">
      <g id="Group_2719" data-name="Group 2719" transform="translate(0 1.722)">
        <g id="Group_2718" data-name="Group 2718">
          <path id="Path_8791" data-name="Path 8791" d="M20.777,65.517a5.606,5.606,0,0,1-3.135-10.254q-.259-.019-.523-.019a7.119,7.119,0,1,0,6.769,9.33A5.579,5.579,0,0,1,20.777,65.517Z" transform="translate(-10 -55.244)" fill="#fff"/>
        </g>
      </g>
      <g id="Group_2721" data-name="Group 2721" transform="translate(11.742)">
        <g id="Group_2720" data-name="Group 2720">
          <path id="Path_8792" data-name="Path 8792" d="M388.318,2.931,390.063,0h-3.194V.935h1.549l-1.746,2.931h3.6V2.931Z" transform="translate(-386.672)" fill="#fff"/>
        </g>
      </g>
      <g id="Group_2723" data-name="Group 2723" transform="translate(7.723 3.562)">
        <g id="Group_2722" data-name="Group 2722">
          <path id="Path_8793" data-name="Path 8793" d="M260.728,114.257H257.84v.935h1.243l-1.347,2.261H260.7v-.935h-1.316Z" transform="translate(-257.735 -114.257)" fill="#fff"/>
        </g>
      </g>
      <g id="Group_2725" data-name="Group 2725" transform="translate(10.81 7.446)">
        <g id="Group_2724" data-name="Group 2724">
          <path id="Path_8794" data-name="Path 8794" d="M358.427,240.274l.853-1.431h-2.413v.935h.768l-.853,1.431h2.532v-.935Z" transform="translate(-356.781 -238.843)" fill="#fff"/>
        </g>
      </g>
    </g>
  </g>
</svg>
