<svg xmlns="http://www.w3.org/2000/svg" xmlns:xlink="http://www.w3.org/1999/xlink" width="17" height="16" viewBox="0 0 17 16">
  <defs>
    <clipPath id="clip-path">
      <rect id="Rectangle_59" data-name="Rectangle 59" width="17" height="16" transform="translate(30 289)" fill="#005d8d"/>
    </clipPath>
  </defs>
  <g id="Mask_Group_37" data-name="Mask Group 37" transform="translate(-30 -289)" clip-path="url(#clip-path)">
    <g id="smart-watch" transform="translate(30.5 289)">
      <path id="Path_9308" data-name="Path 9308" d="M12.041,5.484h.847a.531.531,0,0,1,.531.531V7.441a.531.531,0,0,1-.531.531h-.513Z" fill="#6a808c"/>
      <g id="Group_2895" data-name="Group 2895">
        <path id="Path_9309" data-name="Path 9309" d="M9.673,0H5.284a.979.979,0,0,0-.956.765l-.45,2,3.864.472,3.335-.472-.45-2A.979.979,0,0,0,9.673,0Z" fill="#005d8d"/>
        <path id="Path_9310" data-name="Path 9310" d="M10.628.765A.979.979,0,0,0,9.673,0H8.9a.979.979,0,0,1,.956.765l.45,2h.773Z" fill="#005d8d"/>
        <path id="Path_9311" data-name="Path 9311" d="M9.673,16H5.284a.979.979,0,0,1-.956-.765l-.45-2L7.5,12.615l3.575.621-.45,2A.979.979,0,0,1,9.673,16Z" fill="#005d8d"/>
        <path id="Path_9312" data-name="Path 9312" d="M10.305,13.236l-.45,2A.979.979,0,0,1,8.9,16h.773a.979.979,0,0,0,.956-.765l.45-2Z" fill="#005d8d"/>
      </g>
      <path id="Path_9313" data-name="Path 9313" d="M11.132,13.236H3.824A1.244,1.244,0,0,1,2.58,11.991V4.009A1.244,1.244,0,0,1,3.824,2.764h7.308a1.244,1.244,0,0,1,1.244,1.244v7.983A1.244,1.244,0,0,1,11.132,13.236Z" fill="#005d8d"/>
      <path id="Path_9314" data-name="Path 9314" d="M11.132,2.764h-.708a1.217,1.217,0,0,1,1.212,1.244v7.983a1.217,1.217,0,0,1-1.212,1.244h.708a1.244,1.244,0,0,0,1.244-1.244V4.009A1.244,1.244,0,0,0,11.132,2.764Z" fill="#1a4358"/>
      <path id="Path_9315" data-name="Path 9315" d="M11.41,4.2V11.8a.467.467,0,0,1-.467.467H4.013a.467.467,0,0,1-.467-.467V4.2a.467.467,0,0,1,.467-.467h6.93a.467.467,0,0,1,.467.467Z" fill="#fff"/>
      <path id="Path_9316" data-name="Path 9316" d="M10.943,3.73h-.773a.467.467,0,0,1,.467.467V11.8a.467.467,0,0,1-.467.467h.773a.467.467,0,0,0,.467-.467V4.2a.467.467,0,0,0-.467-.467Z" fill="#347292"/>
      <path id="Path_9317" data-name="Path 9317" d="M11.41,7.109V11.8a.467.467,0,0,1-.467.467H4.013a.467.467,0,0,1-.467-.467V7.109Z" fill="#fff"/>
      <path id="Path_9318" data-name="Path 9318" d="M10.638,7.109V11.8a.467.467,0,0,1-.467.467h.773a.467.467,0,0,0,.467-.467V7.109Z" fill="#347292"/>
      <path id="Path_9319" data-name="Path 9319" d="M9.556,10.05H8.188a.445.445,0,0,1,0-.89H9.556a.445.445,0,0,1,0,.89Z" fill="#c9f772"/>
      <path id="Path_9320" data-name="Path 9320" d="M9.556,9.16H8.69a.445.445,0,0,1,0,.89h.866a.445.445,0,0,0,0-.89Z" fill="#bbec6c"/>
      <g id="Group_2896" data-name="Group 2896">
        <path id="Path_9321" data-name="Path 9321" d="M8.006,1.378H6.951a.241.241,0,0,1,0-.483H8.006a.241.241,0,1,1,0,.483Z" fill="#eaf6ff"/>
      </g>
      <g id="Group_2898" data-name="Group 2898">
        <g id="Group_2897" data-name="Group 2897">
          <path id="Path_9322" data-name="Path 9322" d="M5.809,11.4a1.106,1.106,0,0,1-1.1-.952.241.241,0,0,1,.478-.067.623.623,0,1,0,.617-.71.928.928,0,0,0-.453.09l-.026.012a.242.242,0,0,1-.348-.254l.21-1.27a.241.241,0,0,1,.238-.2H6.493a.241.241,0,1,1,0,.483H5.635l-.112.678a1.855,1.855,0,0,1,.286-.019,1.111,1.111,0,0,1,.8.345,1.1,1.1,0,0,1,.3.82A1.109,1.109,0,0,1,5.831,11.4Z" fill="#005d8d"/>
        </g>
      </g>
      <g id="Group_2899" data-name="Group 2899">
        <path id="Path_9323" data-name="Path 9323" d="M9.237,8.485H8A.241.241,0,0,1,8,8H9.237a.241.241,0,0,1,0,.483Z" fill="#005d8d"/>
      </g>
      <g id="Group_2900" data-name="Group 2900">
        <path id="Path_9324" data-name="Path 9324" d="M9.479,5.484a.242.242,0,0,1-.241.241H6.813a.242.242,0,0,1-.2-.108l-.191-.286-.387.9a.242.242,0,0,1-.205.146H5.813a.242.242,0,0,1-.207-.117l-.66-1.089-.255.395a.241.241,0,0,1-.2.11H3.546V5.2h.81l.393-.608a.241.241,0,0,1,.409.006l.617,1.018.377-.879a.241.241,0,0,1,.423-.039l.367.549H9.237a.241.241,0,0,1,.241.241Z" fill="#da0010"/>
      </g>
      <circle id="Ellipse_84" data-name="Ellipse 84" cx="0.263" cy="0.263" r="0.263" transform="translate(7.802 10.901)" fill="#99e6fc"/>
      <circle id="Ellipse_85" data-name="Ellipse 85" cx="0.263" cy="0.263" r="0.263" transform="translate(8.931 10.901)" fill="#99e6fc"/>
      <path id="Path_9325" data-name="Path 9325" d="M10.409,5.058a.379.379,0,0,0-.466-.208l-.28.092a.128.128,0,0,1-.08,0L9.3,4.849a.379.379,0,0,0-.466.208.39.39,0,0,0,.082.433l.613.61a.128.128,0,0,0,.18,0l.613-.61a.391.391,0,0,0,.082-.433Z" fill="#da0010"/>
    </g>
  </g>
</svg>
