<svg xmlns="http://www.w3.org/2000/svg" xmlns:xlink="http://www.w3.org/1999/xlink" width="73" height="59" viewBox="0 0 73 59">
  <defs>
    <clipPath id="clip-path">
      <rect id="Rectangle_2140" data-name="Rectangle 2140" width="73" height="59" transform="translate(51 221)" fill="#bbbaba"/>
    </clipPath>
  </defs>
  <g id="Notes" transform="translate(-51 -221)" clip-path="url(#clip-path)">
    <g id="pencil" transform="translate(58 221)">
      <path id="Path_8946" data-name="Path 8946" d="M11.8,11.5V55.067A3.933,3.933,0,0,0,15.735,59H53.1a3.933,3.933,0,0,0,3.933-3.933V11.5Z" fill="#f9f5f3"/>
      <path id="Path_8947" data-name="Path 8947" d="M54.3,11.5V55.067A3.933,3.933,0,0,1,50.371,59H53.1a3.933,3.933,0,0,0,3.933-3.933V11.5Z" fill="#f9eae0"/>
      <g id="Group_2769" data-name="Group 2769">
        <path id="Path_8948" data-name="Path 8948" d="M25.869,45.872l-15.35-15.35L4.957,36.085l15.35,15.35a.95.95,0,0,0,.34.218c.105.039.22-.054.334-.054l.845.114,4.321-4.321-.386-.773c0-.252.286-.568.107-.746Z" fill="#a0c8ff"/>
        <path id="Path_8949" data-name="Path 8949" d="M25.869,45.872l-15.35-15.35L9.157,31.884,25.041,47.769a.949.949,0,0,1,.256.472l.85-.85-.141-.83c0-.115.12-.245.08-.351A.946.946,0,0,0,25.869,45.872Z" fill="#91b2fa"/>
        <g id="Group_2768" data-name="Group 2768">
          <g id="Group_2767" data-name="Group 2767">
            <path id="Path_8950" data-name="Path 8950" d="M27.538,53.994a.887.887,0,0,1-.63-.261L23.73,50.554A.89.89,0,0,1,24.989,49.3l3.178,3.178a.89.89,0,0,1-.63,1.52Z" fill="#868eaf"/>
          </g>
        </g>
        <path id="Path_8951" data-name="Path 8951" d="M14.842,30.5h1.78V52.084h-1.78Z" transform="translate(-24.595 23.223) rotate(-45)" fill="#91b2fa"/>
        <path id="Path_8952" data-name="Path 8952" d="M26.147,50.763v-4.22a.948.948,0,0,0-.061-.332l-5.44,5.44a.948.948,0,0,0,.332.061H25.2A.95.95,0,0,0,26.147,50.763Z" fill="#f9eae0"/>
        <path id="Path_8953" data-name="Path 8953" d="M5.322,28.106,2.541,30.888a1.967,1.967,0,0,0,0,2.781L5.322,36.45l5.563-5.563L8.1,28.106a1.967,1.967,0,0,0-2.781,0Z" fill="#fa8ebb"/>
        <path id="Path_8954" data-name="Path 8954" d="M5.351,28.081l.028.026L9.523,32.25l1.362-1.362L8.1,28.106a1.966,1.966,0,0,0-2.753-.026Z" fill="#f57fb0"/>
      </g>
      <g id="Group_2771" data-name="Group 2771">
        <g id="Group_2770" data-name="Group 2770">
          <path id="Path_8955" data-name="Path 8955" d="M50.152,20.557H18.685a.89.89,0,1,1,0-1.781H50.152a.89.89,0,1,1,0,1.781Z" fill="#868eaf"/>
        </g>
      </g>
      <g id="Group_2773" data-name="Group 2773">
        <g id="Group_2772" data-name="Group 2772">
          <path id="Path_8956" data-name="Path 8956" d="M50.152,26.457H18.685a.89.89,0,0,1,0-1.781H50.152a.89.89,0,0,1,0,1.781Z" fill="#868eaf"/>
        </g>
      </g>
      <g id="Group_2775" data-name="Group 2775">
        <g id="Group_2774" data-name="Group 2774">
          <path id="Path_8957" data-name="Path 8957" d="M50.152,32.357H18.685a.89.89,0,1,1,0-1.781H50.152a.89.89,0,1,1,0,1.781Z" fill="#868eaf"/>
        </g>
      </g>
      <g id="Group_2777" data-name="Group 2777">
        <g id="Group_2776" data-name="Group 2776">
          <path id="Path_8958" data-name="Path 8958" d="M50.152,38.257H18.685a.89.89,0,0,1,0-1.781H50.152a.89.89,0,0,1,0,1.781Z" fill="#868eaf"/>
        </g>
      </g>
      <g id="Group_2779" data-name="Group 2779">
        <g id="Group_2778" data-name="Group 2778">
          <path id="Path_8959" data-name="Path 8959" d="M50.152,44.157H29.5a.89.89,0,0,1,0-1.781h20.65a.89.89,0,1,1,0,1.781Z" fill="#868eaf"/>
        </g>
      </g>
      <path id="Path_8960" data-name="Path 8960" d="M53.1,3.933H15.735A3.933,3.933,0,0,0,11.8,7.867v5.9H57.035v-5.9A3.933,3.933,0,0,0,53.1,3.933Z" fill="#ffce69"/>
      <path id="Path_8961" data-name="Path 8961" d="M53.1,3.933h-2.73A3.933,3.933,0,0,1,54.3,7.867v5.9h2.73v-5.9A3.933,3.933,0,0,0,53.1,3.933Z" fill="#ffbd61"/>
      <g id="Group_2780" data-name="Group 2780">
        <path id="Path_8962" data-name="Path 8962" d="M17.7,5.9a1.967,1.967,0,1,0,3.933,0V1.967a1.967,1.967,0,0,0-3.933,0Z" fill="#bdd3dd"/>
        <path id="Path_8963" data-name="Path 8963" d="M47.2,5.9a1.967,1.967,0,1,0,3.933,0V1.967a1.967,1.967,0,1,0-3.933,0Z" fill="#bdd3dd"/>
        <path id="Path_8964" data-name="Path 8964" d="M27.535,5.9a1.967,1.967,0,1,0,3.933,0V1.967a1.967,1.967,0,0,0-3.933,0Z" fill="#bdd3dd"/>
        <path id="Path_8965" data-name="Path 8965" d="M37.368,5.9a1.967,1.967,0,1,0,3.933,0V1.967a1.967,1.967,0,1,0-3.933,0Z" fill="#bdd3dd"/>
      </g>
      <path id="Path_8966" data-name="Path 8966" d="M49.168,0A1.959,1.959,0,0,0,47.8.553a1.96,1.96,0,0,1,.6,1.414V5.9a1.96,1.96,0,0,1-.6,1.414A1.965,1.965,0,0,0,51.135,5.9V1.967A1.967,1.967,0,0,0,49.168,0Z" fill="#abc4d6"/>
      <path id="Path_8967" data-name="Path 8967" d="M39.335,0A1.959,1.959,0,0,0,37.97.553a1.96,1.96,0,0,1,.6,1.414V5.9a1.96,1.96,0,0,1-.6,1.414A1.965,1.965,0,0,0,41.3,5.9V1.967A1.967,1.967,0,0,0,39.335,0Z" fill="#abc4d6"/>
      <path id="Path_8968" data-name="Path 8968" d="M29.5,0a1.959,1.959,0,0,0-1.365.553,1.96,1.96,0,0,1,.6,1.414V5.9a1.96,1.96,0,0,1-.6,1.414A1.965,1.965,0,0,0,31.468,5.9V1.967A1.967,1.967,0,0,0,29.5,0Z" fill="#abc4d6"/>
      <path id="Path_8969" data-name="Path 8969" d="M19.668,0A1.959,1.959,0,0,0,18.3.553a1.96,1.96,0,0,1,.6,1.414V5.9a1.96,1.96,0,0,1-.6,1.414A1.965,1.965,0,0,0,21.635,5.9V1.967A1.967,1.967,0,0,0,19.668,0Z" fill="#abc4d6"/>
    </g>
  </g>
</svg>
