<svg xmlns="http://www.w3.org/2000/svg" width="174.613" height="78.264" viewBox="0 0 174.613 78.264">
  <path id="Shape_1" data-name="Shape 1" d="M652,997.843h52.384s1.94,3.162,4.85-6.037l4.85-13.8s2.264-14.948,3.88,0l7.761,38.807s5.5,32.77,11.641-12.936l7.761-43.981s4.2-19.835,5.82,7.761l.97,14.66s1.294,20.7,6.79,5.174c0,0,3.88-11.5,4.851,6.037,0,0,4.2,36.22,12.611,0,0,0,4.527-23.859,6.79-6.9l1.94,6.9s.323,5.232,10.671,4.312h31.042" transform="translate(-652 -951.458)" fill="none" stroke="#f46363" stroke-width="3"/>
</svg>
