<svg id="Layer_1" enable-background="new 0 0 512 512" height="512" viewBox="0 0 512 512" width="512" xmlns="http://www.w3.org/2000/svg"><g><path d="m446 100h-150c-11.046 0-20 8.954-20 20v192c0 22.091-17.909 40-40 40h-40c-11.046 0-20 8.954-20 20v110c0 11.046 8.954 20 20 20h110c13.812 0 27.215-1.75 40-5.041 56.224-14.471 100.488-58.735 114.959-114.959 3.291-12.785 5.041-26.188 5.041-40v-222c0-11.046-8.954-20-20-20z" fill="#bedaff"/><path d="m436 100h-130v-70c0-11.046 8.954-20 20-20h90c11.046 0 20 8.954 20 20z" fill="#faf7f5"/><path d="m107 395-12 16c-5.666 7.554-14.557 12-24 12h-25v50h130v-90h-45c-9.443 0-18.334 4.446-24 12z" fill="#faf7f5"/><path d="m346 422v74.959c56.224-14.471 100.488-58.735 114.959-114.959h-74.959c-22.091 0-40 17.909-40 40z" fill="#a0e4a5"/><g><circle cx="466" cy="307.52" r="10"/><path d="m467.112 98.891c-5.432-5.445-12.901-8.891-21.112-8.891v-60c0-16.542-13.458-30-30-30h-90c-16.542 0-30 13.458-30 30v60c-8.01 0-15.55 3.12-21.21 8.79-5.609 5.599-8.79 13.281-8.79 21.21v192c-.03 16.51-13.49 29.97-30 30 0 0-39.904 0-40 0-16.218 0-30 13.853-30 30v1h-35c-12.523 0-24.486 5.981-32 16l-12 16c-3.757 5.009-9.738 8-16 8h-25c-5.523 0-10 4.477-10 10v50c0 5.523 4.477 10 10 10h120.024c.249 7.644 3.332 14.786 8.766 20.21 5.66 5.67 13.19 8.79 21.21 8.79h110c14.359 0 28.628-1.794 42.401-5.339.031-.008.061-.01.092-.018 59.923-15.423 106.728-62.229 122.151-122.151.008-.032.011-.064.019-.095 2.617-10.171 4.289-20.679 4.977-31.238.36-5.5-3.83-10.27-9.33-10.62-.22-.02-.44-.02-.66-.02-5.25 0-9.63 4.1-9.97 9.35-.442 6.765-1.346 13.507-2.686 20.13h-66.994c-27.57 0-50 22.43-50 50v66.985c-9.833 1.99-19.889 3.015-30 3.015h-110c-5.5-.01-9.99-4.5-10-10v-109.999c.01-5.5 4.5-9.99 10-10h40c10.183 0 19.761-3.211 28.303-8.644 8.826 8.954 17.736 17.826 26.626 26.716 1.953 1.953 4.512 2.929 7.071 2.929s5.119-.976 7.071-2.929c3.905-3.905 3.905-10.237 0-14.143 0 0-26.95-26.95-26.968-26.969 5.531-7.23 7.897-18.15 7.897-26.96 0-.001 0-152 0-152h40c5.51 0 10-4.49 10-10s-4.49-10-10-10h-40v-20c.01-5.5 4.5-9.99 10-10h150c5.5.01 9.99 4.5 10 10v142.52c0 5.52 4.49 10 10 10s10-4.48 10-10c0 0 0-142.48 0-142.52 0-8.082-3.407-15.614-8.888-21.109zm-81.112 293.109h61.459c-.091.257-.178.516-.27.773-14.059 39.19-45.2 71.77-83.615 87.782-2.244.935-4.512 1.813-6.801 2.634-.257.092-.516.18-.773.271v-61.46c0-16.542 13.458-30 30-30zm-330 41h15c12.523 0 24.486-5.981 32-16l12-16c3.757-5.009 9.738-8 16-8h35v70h-110zm260-343v-60c0-5.514 4.486-10 10-10h90c5.514 0 10 4.486 10 10v60z"/><circle cx="371" cy="150" r="10"/></g></g></svg>