<svg xmlns="http://www.w3.org/2000/svg" width="27.098" height="27.098" viewBox="0 0 27.098 27.098">
  <g id="Group_2953" data-name="Group 2953" transform="translate(-29 -418)">
    <g id="Group_2664" data-name="Group 2664" transform="translate(29 418)">
      <path id="Path_8771" data-name="Path 8771" d="M13.549,0A13.549,13.549,0,1,1,0,13.549,13.549,13.549,0,0,1,13.549,0Z" transform="translate(0)" fill="#f46363"/>
    </g>
    <g id="Group_2717" data-name="Group 2717" transform="translate(34.303 425.071)">
      <g id="Group_2702" data-name="Group 2702" transform="translate(0.666 0)">
        <path id="Path_8783" data-name="Path 8783" d="M235.013,30.039l-.144,0-.047,0-.071,0-.026,0-.054,0-.09.008-.055.006-.09.011-.052.007-.1.016-.04.006-.137.027-.032.007-.105.024-.05.013-.086.023-.054.015-.082.025-.053.017-.084.029-.048.017-.1.039-.028.011-.126.053-.041.019-.085.039-.049.024-.075.038-.05.026-.073.04-.048.027-.077.046-.041.025c-.038.024-.076.048-.114.073l-.019.013-.094.065-.04.029-.07.052-.044.034-.065.052-.043.035-.065.055-.039.034-.073.066-.028.026q-.049.047-.1.095l-.025.026-.069.073-.034.037-.058.065-.034.041-.054.067-.032.041-.055.073-.027.037-.009.011-.008-.011-.027-.037-.055-.073-.033-.041-.054-.066-.035-.041-.057-.065-.034-.038-.069-.072-.026-.027q-.047-.048-.1-.095l-.029-.027-.072-.066-.04-.035-.064-.055L230.79,31l-.064-.051-.044-.034-.069-.051-.041-.03-.093-.064-.02-.014-.114-.072-.042-.025-.077-.045-.049-.027-.073-.04-.051-.027-.075-.037-.05-.024-.084-.038-.042-.019-.126-.053-.028-.011-.1-.038-.048-.017-.084-.028-.053-.017-.082-.025-.054-.015-.086-.023-.05-.013-.105-.024-.032-.007-.137-.027-.04-.006-.1-.016-.052-.007-.09-.011-.055-.006-.09-.008-.054,0-.1-.005-.047,0-.144,0a4.127,4.127,0,0,0-4.219,4.018c0,1.474,1.263,3.556,3.753,6.188a47.716,47.716,0,0,0,3.685,3.475l.017.013.011.008.032.02.011.005.025.012.014.005.023.009.014,0,.024.006.014,0,.027,0s.008-.02.012-.019.026-.019.039-.019h-.052v.046a.449.449,0,0,0,.258-.074c.01-.007.033-.015.042-.023a47.244,47.244,0,0,0,3.691-3.476c2.49-2.632,3.756-4.714,3.756-6.188A4.124,4.124,0,0,0,235.013,30.039Z" transform="translate(-223.832 -30.039)" fill="#fff"/>
      </g>
      <path id="Path_8789" data-name="Path 8789" d="M299.471,191.62l-.46.8h-1.353l-1.294,2.291a.6.6,0,0,1-.593.322.559.559,0,0,1-.52-.4l-1.058-2.687-.89,1.764a.739.739,0,0,1-.645.372.661.661,0,0,1-.52-.52l-.841-4.809-1.015,7.92a.569.569,0,0,1-.57.52h-.024a.657.657,0,0,1-.595-.5l-1.163-6.113-.718,1.51a.613.613,0,0,1-.544.321h-2.5v-.8h2.1l1.287-2.475a.621.621,0,0,1,.619-.346.607.607,0,0,1,.52.495l.891,3.96,1.069-7.22a.547.547,0,0,1,.57-.495.609.609,0,0,1,.619.495l1.107,6.106.743-1.732a.587.587,0,0,1,.57-.372.622.622,0,0,1,.568.4l1.064,3.144.866-1.633a.578.578,0,0,1,.52-.322Z" transform="translate(-284.168 -185.253)" fill="#f7617d"/>
    </g>
  </g>
</svg>
