<svg xmlns="http://www.w3.org/2000/svg" xmlns:xlink="http://www.w3.org/1999/xlink" width="51" height="51" viewBox="0 0 51 51">
  <defs>
    <filter id="Ellipse_7" x="0" y="0" width="51" height="51" filterUnits="userSpaceOnUse">
      <feOffset dy="3" input="SourceAlpha"/>
      <feGaussianBlur stdDeviation="3" result="blur"/>
      <feFlood flood-opacity="0.161"/>
      <feComposite operator="in" in2="blur"/>
      <feComposite in="SourceGraphic"/>
    </filter>
  </defs>
  <g id="Group_3009" data-name="Group 3009" transform="translate(9.158 6.158)">
    <g transform="matrix(1, 0, 0, 1, -9.16, -6.16)" filter="url(#Ellipse_7)">
      <circle id="Ellipse_7-2" data-name="Ellipse 7" cx="16.5" cy="16.5" r="16.5" transform="translate(9 6)" fill="#fff"/>
    </g>
    <g id="photo-camera-interface-symbol-for-button_1_" data-name="photo-camera-interface-symbol-for-button (1)" transform="translate(8.842 6.8)">
      <path id="Path_9431" data-name="Path 9431" d="M10.668,11.017a2.6,2.6,0,1,1-2.6-2.6A2.6,2.6,0,0,1,10.668,11.017Zm5.465-3.695v7.39A1.784,1.784,0,0,1,14.349,16.5H1.784A1.784,1.784,0,0,1,0,14.712V7.322A1.784,1.784,0,0,1,1.784,5.538H3.978V4.921A1.561,1.561,0,0,1,5.539,3.36h5.055a1.561,1.561,0,0,1,1.561,1.561v.617h2.194A1.785,1.785,0,0,1,16.133,7.322Zm-4.127,3.695a3.94,3.94,0,1,0-3.94,3.94A3.944,3.944,0,0,0,12.006,11.017Z" fill="#6a6a6a"/>
    </g>
  </g>
</svg>
