<svg xmlns="http://www.w3.org/2000/svg" xmlns:xlink="http://www.w3.org/1999/xlink" width="21" height="21" viewBox="0 0 21 21">
  <defs>
    <clipPath id="clip-path">
      <rect id="Rectangle_2190" data-name="Rectangle 2190" width="21" height="21" transform="translate(212 765.4)" fill="#646363"/>
    </clipPath>
  </defs>
  <g id="Mask_Group_52" data-name="Mask Group 52" transform="translate(-212 -765.4)" clip-path="url(#clip-path)">
    <path id="lightbulb" d="M10.113,0A7.684,7.684,0,0,0,2.266,7.491,7.228,7.228,0,0,0,3.3,11.209,7.691,7.691,0,0,0,5.722,13.7v6.728h8.783V13.7a7.69,7.69,0,0,0,2.422-2.49,7.228,7.228,0,0,0,1.034-3.718A7.684,7.684,0,0,0,10.113,0ZM6.976,15.636h6.276v1.2H6.976ZM7.6,8.09a.6.6,0,1,1,.628-.6A.615.615,0,0,1,7.6,8.09Zm3.138,1.2v5.152H9.485V9.287ZM12,7.491a.629.629,0,1,1,.628.6A.615.615,0,0,1,12,7.491ZM6.976,19.23v-1.2h6.276v1.2Zm8.864-8.617a6.485,6.485,0,0,1-2.288,2.249l-.3.175v1.4H12V9.287h.628a1.843,1.843,0,0,0,1.882-1.8,1.884,1.884,0,0,0-3.764,0,1.714,1.714,0,0,0,.108.6H9.377a1.715,1.715,0,0,0,.108-.6A1.843,1.843,0,0,0,7.6,5.694a1.843,1.843,0,0,0-1.882,1.8A1.843,1.843,0,0,0,7.6,9.287h.628v5.152H6.976v-1.4l-.3-.175a6.485,6.485,0,0,1-2.288-2.249A6.072,6.072,0,0,1,3.52,7.491,6.456,6.456,0,0,1,10.113,1.2a6.456,6.456,0,0,1,6.594,6.294A6.072,6.072,0,0,1,15.839,10.614Z" transform="translate(212.587 765.973)" fill="#646363"/>
  </g>
</svg>
