<svg id="Capa_1" enable-background="new 0 0 512 512" height="24" viewBox="0 0 512 512" width="24" xmlns="http://www.w3.org/2000/svg"><g><path d="m358.034 81.499-15.287-54.763c-4.393-15.742-18.875-26.736-35.219-26.736h-103.056c-16.344 0-30.826 10.994-35.219 26.735l-15.287 54.764c-40.582 2.961-72.701 36.901-72.701 78.225v192.551c0 41.322 32.117 75.262 72.697 78.225l15.293 54.764c4.388 15.741 18.868 26.736 35.215 26.736h66.78c4.143 0 7.5-3.358 7.5-7.5s-3.357-7.5-7.5-7.5h-66.78c-9.64 0-18.178-6.482-20.766-15.767l-14.102-50.499h172.796l-14.103 50.503c-2.586 9.281-11.125 15.763-20.765 15.763h-6.28c-4.143 0-7.5 3.358-7.5 7.5s3.357 7.5 7.5 7.5h6.28c16.347 0 30.827-10.995 35.213-26.733l15.294-54.768c40.58-2.962 72.697-36.902 72.697-78.225v-192.55c0-41.324-32.119-75.264-72.7-78.225zm-174.334-50.731c2.591-9.284 11.133-15.768 20.772-15.768h103.057c9.639 0 18.181 6.484 20.771 15.768l14.095 50.497h-172.79zm232.034 321.507c0 34.991-28.468 63.459-63.459 63.459h-192.55c-34.991 0-63.459-28.468-63.459-63.459v-192.551c0-34.991 28.468-63.459 63.459-63.459h192.551c34.991 0 63.459 28.468 63.459 63.459v192.551z"/><path d="m352.276 121.265h-192.552c-21.206 0-38.459 17.252-38.459 38.459v192.551c0 21.207 17.253 38.459 38.459 38.459h192.553c21.206 0 38.459-17.252 38.459-38.459v-192.551c-.001-21.207-17.254-38.459-38.46-38.459zm23.459 231.01c0 12.936-10.523 23.459-23.459 23.459h-192.552c-12.936 0-23.459-10.523-23.459-23.459v-192.551c0-12.936 10.523-23.459 23.459-23.459h192.553c12.936 0 23.459 10.523 23.459 23.459v192.551z"/><path d="m352.275 245.117h-8.05c1.632-16.015-3.637-32.616-15.801-44.78-10.438-10.438-24.326-16.187-39.104-16.187-12.154 0-23.756 3.925-33.311 11.167-9.557-7.242-21.169-11.167-33.34-11.167-3.251 0-6.523.292-9.728.869-4.077.733-6.787 4.632-6.055 8.709.733 4.076 4.639 6.784 8.709 6.054 2.331-.419 4.71-.632 7.073-.632 10.562 0 20.545 4.054 28.109 11.415 2.912 2.834 7.549 2.833 10.461 0 7.565-7.361 17.538-11.416 28.08-11.416 10.771 0 20.892 4.188 28.496 11.793 9.256 9.255 13.04 22.036 11.333 34.174h-41.891l-16.345-26.18c-1.528-2.448-4.331-3.801-7.192-3.482-2.867.319-5.298 2.255-6.25 4.979l-15.339 43.876-9.729-17.048c-1.335-2.339-3.82-3.783-6.514-3.783h-43.344c-1.137-11.241 2.469-22.863 10.843-31.714 2.847-3.009 2.715-7.756-.294-10.603-3.007-2.848-7.755-2.716-10.603.293-11.12 11.754-16.102 27.068-15.002 42.023h-7.766c-4.143 0-7.5 3.358-7.5 7.5s3.357 7.5 7.5 7.5h11.01c2.608 7.081 6.703 13.747 12.31 19.511.024.025.048.049.072.073l67.58 67.59c1.406 1.407 3.314 2.197 5.304 2.197s3.896-.79 5.304-2.197l67.127-67.127c.176-.175.418-.418.686-.721 5.062-5.245 8.865-11.271 11.432-17.688h11.728c4.143 0 7.5-3.358 7.5-7.5s-3.356-7.498-7.499-7.498zm-34.078 22.401c-.106.109-.21.222-.31.338l-61.887 61.887-62.238-62.248c-2.675-2.756-4.871-5.797-6.607-9.017h34.379l15.731 27.565c1.343 2.353 3.838 3.783 6.512 3.783.227 0 .455-.01.685-.031 2.927-.267 5.428-2.219 6.397-4.994l15.611-44.656 10.267 16.444c1.37 2.195 3.775 3.528 6.362 3.528h40.772c-1.568 2.63-3.453 5.12-5.674 7.401z"/></g></svg>