<svg xmlns="http://www.w3.org/2000/svg" width="26.715" height="26.715" viewBox="0 0 26.715 26.715">
  <g id="oxygen" transform="translate(-22 -510.329)">
    <path id="Path_8771" data-name="Path 8771" d="M13.357,0A13.357,13.357,0,1,1,0,13.357,13.357,13.357,0,0,1,13.357,0Z" transform="translate(22 510.329)" fill="#51cca9"/>
    <g id="oxygen-structure" transform="translate(27.228 515.557)">
      <g id="Group_2727" data-name="Group 2727" transform="translate(0)">
        <path id="Path_8797" data-name="Path 8797" d="M15.792,5.015c0-3.2-1.832-5.015-4.534-5.015S6.724,1.8,6.724,5.015s1.832,5.1,4.534,5.1S15.792,8.228,15.792,5.015Zm-6.426,0c0-1.772.721-2.793,1.892-2.793S13.15,3.243,13.15,5.015,12.429,7.9,11.258,7.9,9.366,6.786,9.366,5.015Z" transform="translate(-6.724)" fill="#fff"/>
        <path id="Path_8798" data-name="Path 8798" d="M353.459,256.76h0a.56.56,0,0,0-.56-.561l-2.5,0c1.291-1.321,2.61-2.878,2.61-4.409a3.036,3.036,0,0,0-3.273-3.123,3.925,3.925,0,0,0-2.887,1.12.56.56,0,0,0-.017.809l.6.6a.561.561,0,0,0,.767.024,1.808,1.808,0,0,1,1.181-.539,1.108,1.108,0,0,1,1.171,1.261c0,1.256-1.649,2.8-3.813,4.788a.561.561,0,0,0-.181.413v.665a.561.561,0,0,0,.561.561H352.9a.561.561,0,0,0,.561-.561Z" transform="translate(-337.482 -242.025)" fill="#fff"/>
      </g>
    </g>
  </g>
</svg>
