<svg xmlns="http://www.w3.org/2000/svg" xmlns:xlink="http://www.w3.org/1999/xlink" width="230" height="207" viewBox="0 0 230 207">
  <defs>
    <clipPath id="clip-path">
      <rect id="Rectangle_2183" data-name="Rectangle 2183" width="230" height="207" transform="translate(73 136)" fill="#fff"/>
    </clipPath>
  </defs>
  <g id="Mask_Group_49" data-name="Mask Group 49" transform="translate(-73 -136)" clip-path="url(#clip-path)">
    <g id="Forgot_password-amico" data-name="Forgot password-amico" transform="translate(70.366 118.116)">
      <g id="freepik--Floor--inject-2">
        <ellipse id="freepik--floor--inject-2-2" data-name="freepik--floor--inject-2" cx="110.854" cy="64.002" rx="110.854" ry="64.002" transform="translate(6.78 96.879)" fill="#f0f0f0"/>
      </g>
      <g id="freepik--Shadow--inject-2">
        <ellipse id="freepik--shadow--inject-2-2" data-name="freepik--shadow--inject-2" cx="38.226" cy="22.068" rx="38.226" ry="22.068" transform="translate(56.469 165.243)" fill="#e0e0e0"/>
      </g>
      <g id="freepik--Plants--inject-2">
        <g id="freepik--plants--inject-2-2" data-name="freepik--plants--inject-2">
          <path id="Path_9358" data-name="Path 9358" d="M203.4,159.7l-4.484-2.588a97.409,97.409,0,0,1-.367-17.033c1.026-10.446,7.773-23.019,15.819-20.064s-3.689,13.589-6.3,22.449S203.4,159.7,203.4,159.7Z" fill="#005d8d"/>
          <path id="Path_9359" data-name="Path 9359" d="M203.4,159.7l-4.484-2.588a97.409,97.409,0,0,1-.367-17.033c1.026-10.446,7.773-23.019,15.819-20.064s-3.689,13.589-6.3,22.449S203.4,159.7,203.4,159.7Z" opacity="0.15"/>
          <path id="Path_9360" data-name="Path 9360" d="M201.046,158.613h0a.273.273,0,0,0,.259-.282c-.786-23.212,10.771-34.89,10.884-35a.273.273,0,0,0,0-.386.268.268,0,0,0-.381,0c-.122.113-11.843,11.961-11.048,35.408a.273.273,0,0,0,.287.264Z" fill="#fff"/>
          <path id="Path_9361" data-name="Path 9361" d="M206.222,161.314l-3.19-1.84a35.11,35.11,0,0,1,2.687-14.587c2.823-6.964,9.787-12.747,13.3-11.533s3.421,3.7,1.708,6.315S208.608,148.5,206.222,161.314Z" fill="#005d8d"/>
          <path id="Path_9362" data-name="Path 9362" d="M204.538,160.618h0a.278.278,0,0,0,.273-.273c-.066-14.681,13.716-24.6,13.857-24.7a.264.264,0,0,0,.061-.376.273.273,0,0,0-.376-.066c-.141.1-14.149,10.187-14.088,25.141a.273.273,0,0,0,.273.273Z" fill="#fff"/>
        </g>
        <g id="freepik--plants--inject-2-3" data-name="freepik--plants--inject-2">
          <path id="Path_9363" data-name="Path 9363" d="M37.483,153.936l4.141-2.795s1.821-10.822.127-20.37c-2.381-13.391-11.636-17.843-14.93-16.431s-4,5.4,2.15,13.039C32.618,131.873,37.356,141.467,37.483,153.936Z" fill="#005d8d"/>
          <g id="Group_2948" data-name="Group 2948" opacity="0.15">
            <path id="Path_9364" data-name="Path 9364" d="M37.483,153.936l4.141-2.795s1.821-10.822.127-20.37c-2.381-13.391-11.636-17.843-14.93-16.431s-4,5.4,2.15,13.039C32.618,131.873,37.356,141.467,37.483,153.936Z"/>
          </g>
          <path id="Path_9365" data-name="Path 9365" d="M38.9,148.572h-.042a.3.3,0,0,1-.278-.353c1.5-12.606-3.825-26.289-9.618-31.733a.3.3,0,0,1,0-.423.3.3,0,0,1,.423,0c5.9,5.543,11.321,19.452,9.806,32.241a.306.306,0,0,1-.292.268Z" fill="#fff"/>
          <path id="Path_9366" data-name="Path 9366" d="M26.642,161.248c-.659.4-2.579-1.03-3.11-1.374a6.324,6.324,0,0,1-2.155-2.381,5.948,5.948,0,0,1-.6-3.557,14.064,14.064,0,0,1,.419-1.882c.165-.616.329-1.233.471-1.854a4.588,4.588,0,0,0,.235-1.882c-.184-1.256-1.318-2.117-2.353-2.856-1.139-.823-2.353-1.91-2.353-3.426a5.326,5.326,0,0,1,1.294-3.228c.706-.941,1.553-1.76,2.188-2.743a3.764,3.764,0,0,0,.72-2.353,3.915,3.915,0,0,0-.546-1.463,21.78,21.78,0,0,1-1.666-2.922,2.945,2.945,0,0,1,.471-3.153,3.469,3.469,0,0,1,2.593-.7,5.943,5.943,0,0,1,2.447.8c2.433,1.294,3.863,4.117,6.437,5.1a26.485,26.485,0,0,0,3.106.7,3.849,3.849,0,0,1,2.588,1.694c.974,1.859-.725,4.2-.028,6.173.621,1.75,2.353,2.39,3.331,3.957a3.764,3.764,0,0,1,.471,2.3,10.987,10.987,0,0,1-.889,3.9,34.349,34.349,0,0,1-2.07,3.717S26.741,161.187,26.642,161.248Z" fill="#005d8d"/>
          <path id="Path_9367" data-name="Path 9367" d="M33,157.347h0a.3.3,0,0,1-.3-.306c.264-11.914-5.6-24.938-9.75-28.7a.3.3,0,0,1-.024-.423.3.3,0,0,1,.423,0c4.235,3.811,10.215,17.062,9.947,29.14a.3.3,0,0,1-.3.292Z" fill="#fff"/>
          <path id="Path_9368" data-name="Path 9368" d="M30.806,142.831a.174.174,0,0,1-.085,0,40.5,40.5,0,0,0-8.667-1.228.3.3,0,0,1-.292-.306.287.287,0,0,1,.306-.292,40.88,40.88,0,0,1,8.818,1.247.3.3,0,0,1,.2.372A.292.292,0,0,1,30.806,142.831Z" fill="#fff"/>
        </g>
      </g>
      <g id="freepik--speech-bubble--inject-2">
        <g id="freepik--speach-bubble--inject-2">
          <path id="Path_9369" data-name="Path 9369" d="M141.707,145.744l-1.783-1.03a2.249,2.249,0,0,1-1.021-1.765V68.83a2.259,2.259,0,0,1,1.016-1.765L189.49,38.448a2.254,2.254,0,0,1,2.037,0l1.783,1.03a2.249,2.249,0,0,1,1.021,1.765v74.119a2.259,2.259,0,0,1-1.016,1.765l-49.571,28.623a2.24,2.24,0,0,1-2.037,0Z" fill="#455a64"/>
          <path id="Path_9370" data-name="Path 9370" d="M194.332,41.078c-.071-.527-.5-.72-1.012-.423L143.744,69.277a2.108,2.108,0,0,0-.72.758L139.2,67.828a2.084,2.084,0,0,1,.72-.762L189.49,38.448a2.254,2.254,0,0,1,2.037,0l1.783,1.03A2.273,2.273,0,0,1,194.332,41.078Z" fill="#455a64"/>
          <path id="Path_9371" data-name="Path 9371" d="M143.57,145.829a2.273,2.273,0,0,1-1.882-.08l-1.788-1.035a2.259,2.259,0,0,1-1.016-1.764V68.83a2.085,2.085,0,0,1,.3-1l3.825,2.207a2.056,2.056,0,0,0-.3,1.007v74.119C142.723,145.744,143.09,146.012,143.57,145.829Z" fill="#263238"/>
          <path id="Path_9372" data-name="Path 9372" d="M142.723,71.051v74.11c0,.649.471.913,1.021.588l49.571-28.623a2.259,2.259,0,0,0,1.016-1.765V41.243c0-.649-.471-.913-1.016-.588L143.744,69.277A2.249,2.249,0,0,0,142.723,71.051Z" fill="#37474f"/>
          <path id="Path_9373" data-name="Path 9373" d="M131.148,99.283c-.64-.381-3.609-2.07-3.764-2.16a.941.941,0,0,1-.2-1.454L138.9,83.1l3.821,2.193L131.007,97.872a.941.941,0,0,0,.141,1.412Z" fill="#455a64"/>
          <path id="Path_9374" data-name="Path 9374" d="M142.723,85.3,131.007,97.872a.941.941,0,0,0,.767,1.581l10.949-.9Z" fill="#37474f"/>
          <path id="Path_9375" data-name="Path 9375" d="M168.527,62.675c5.778-3.336,10.46-.631,10.46,6.042s-4.682,14.78-10.46,18.116-10.46.631-10.46-6.037S162.749,66.012,168.527,62.675Z" fill="#005d8d"/>
          <path id="Path_9376" data-name="Path 9376" d="M168.452,67.927c1.882-1.082,3.393-.207,3.393,1.957a7.5,7.5,0,0,1-3.393,5.872c-1.882,1.082-3.4.207-3.4-1.957A7.5,7.5,0,0,1,168.452,67.927Z" fill="#fff"/>
          <path id="Path_9377" data-name="Path 9377" d="M175.143,79.464c0-3.553-2.5-5-5.576-3.218l-1.924,1.11a12.356,12.356,0,0,0-5.576,9.66v.974a5.849,5.849,0,0,0,1.8.278,9.477,9.477,0,0,0,4.663-1.412,20.614,20.614,0,0,0,6.616-6.54Z" fill="#fff"/>
          <path id="Path_9378" data-name="Path 9378" d="M161.9,119.86l13.25-7.651c.565-.325,1.021-.061,1.021.588v4.268a2.249,2.249,0,0,1-1.021,1.765L161.9,126.48c-.565.325-1.021.061-1.021-.588v-4.268a2.249,2.249,0,0,1,1.021-1.765Z" fill="#005d8d"/>
          <path id="Path_9379" data-name="Path 9379" d="M155.414,110.327l26.214-15.142c.673-.391,1.223-.075,1.223.706v1.586a2.7,2.7,0,0,1-1.223,2.117L155.4,114.736c-.673.391-1.219.075-1.219-.706v-1.572a2.7,2.7,0,0,1,1.233-2.132Z" fill="#fafafa"/>
          <path id="Path_9380" data-name="Path 9380" d="M158.481,99.368c.358-.207.635-.24.833-.094s.3.471.3.969a2.786,2.786,0,0,1-.3,1.313,2.08,2.08,0,0,1-.833.875l-.706.409v1.52a.357.357,0,0,1-.038.151.216.216,0,0,1-.085.1l-.358.207a.071.071,0,0,1-.085,0,.155.155,0,0,1-.033-.113v-4.4a.349.349,0,0,1,.033-.151.24.24,0,0,1,.085-.1Zm-.706,2.621.682-.4a1.139,1.139,0,0,0,.4-.386,1.167,1.167,0,0,0,.151-.621c0-.254-.052-.4-.151-.442a.471.471,0,0,0-.4.089l-.682.4Z" fill="#fafafa"/>
          <path id="Path_9381" data-name="Path 9381" d="M161.582,97.575c.047-.028.085-.028.108,0a.367.367,0,0,1,.061.141l1.087,3.68v.042a.339.339,0,0,1-.038.151.216.216,0,0,1-.085.1l-.32.184c-.056.033-.1.038-.122,0a.188.188,0,0,1-.047-.085l-.193-.645-1.412.809-.188.866a.861.861,0,0,1-.052.136.254.254,0,0,1-.122.132l-.32.184a.066.066,0,0,1-.085,0,.151.151,0,0,1-.033-.108.174.174,0,0,1,0-.052l1.082-4.931a1.066,1.066,0,0,1,.061-.212.263.263,0,0,1,.108-.118Zm.245,2.851-.471-1.661-.471,2.221Z" fill="#fafafa"/>
          <path id="Path_9382" data-name="Path 9382" d="M164.485,95.829a1.153,1.153,0,0,1,.522-.174.63.63,0,0,1,.376.085.607.607,0,0,1,.231.278.993.993,0,0,1,.085.367.282.282,0,0,1-.033.151.216.216,0,0,1-.085.1l-.311.179c-.052.028-.089.033-.113,0a.221.221,0,0,1-.071-.075.343.343,0,0,0-.2-.184.546.546,0,0,0-.4.1,1.753,1.753,0,0,0-.216.165,1.147,1.147,0,0,0-.184.216,1.19,1.19,0,0,0-.122.245.8.8,0,0,0-.042.254.471.471,0,0,0,.042.231.179.179,0,0,0,.141.089.771.771,0,0,0,.264,0l.409-.089a1.412,1.412,0,0,1,.471-.056.527.527,0,0,1,.315.1.56.56,0,0,1,.179.278,1.449,1.449,0,0,1,.061.471,2.226,2.226,0,0,1-.089.621,2.517,2.517,0,0,1-.249.593,2.861,2.861,0,0,1-.4.527,2.424,2.424,0,0,1-.536.419,1.45,1.45,0,0,1-.471.184.758.758,0,0,1-.4-.033.612.612,0,0,1-.278-.259,1.054,1.054,0,0,1-.122-.471.367.367,0,0,1,.033-.155.263.263,0,0,1,.089-.1l.311-.179c.047-.028.085-.038.113-.024a.145.145,0,0,1,.066.08.635.635,0,0,0,.075.136.249.249,0,0,0,.118.089.419.419,0,0,0,.188,0,.941.941,0,0,0,.282-.118,1.822,1.822,0,0,0,.259-.179,1.261,1.261,0,0,0,.367-.471.79.79,0,0,0,.056-.3.273.273,0,0,0-.061-.207.235.235,0,0,0-.188-.056,1.317,1.317,0,0,0-.315.052c-.122.028-.264.061-.428.089a1.129,1.129,0,0,1-.386.028.442.442,0,0,1-.273-.118.6.6,0,0,1-.165-.292,2.025,2.025,0,0,1-.052-.5,2.117,2.117,0,0,1,.089-.612,2.466,2.466,0,0,1,.245-.583,2.606,2.606,0,0,1,.367-.5A2.131,2.131,0,0,1,164.485,95.829Z" fill="#fafafa"/>
          <path id="Path_9383" data-name="Path 9383" d="M167.577,94.051a1.115,1.115,0,0,1,.522-.179.64.64,0,0,1,.376.085.63.63,0,0,1,.226.278.993.993,0,0,1,.085.367.245.245,0,0,1-.033.151.217.217,0,0,1-.085.1l-.311.179c-.047.028-.085.038-.113,0a.165.165,0,0,1-.066-.08.377.377,0,0,0-.2-.179.532.532,0,0,0-.4.1,1.5,1.5,0,0,0-.221.165,1.124,1.124,0,0,0-.179.216.991.991,0,0,0-.122.245.8.8,0,0,0-.047.254.471.471,0,0,0,.042.231.179.179,0,0,0,.141.089.767.767,0,0,0,.264,0l.409-.089a1.562,1.562,0,0,1,.471-.056.518.518,0,0,1,.315.1.6.6,0,0,1,.184.278,1.637,1.637,0,0,1,.056.471,2.226,2.226,0,0,1-.089.621,2.516,2.516,0,0,1-.249.593,2.822,2.822,0,0,1-.4.532,2.649,2.649,0,0,1-.532.414,1.468,1.468,0,0,1-.471.184.748.748,0,0,1-.4-.033.6.6,0,0,1-.282-.259,1,1,0,0,1-.118-.471.245.245,0,0,1,.033-.151.216.216,0,0,1,.085-.1l.311-.179c.047-.028.089-.038.113-.024a.118.118,0,0,1,.066.08.941.941,0,0,0,.075.136.259.259,0,0,0,.122.089.419.419,0,0,0,.188,0,.941.941,0,0,0,.282-.118,2.1,2.1,0,0,0,.254-.179,1.091,1.091,0,0,0,.216-.226,1.228,1.228,0,0,0,.151-.263.791.791,0,0,0,.056-.3.273.273,0,0,0-.061-.207.235.235,0,0,0-.188-.056,1.515,1.515,0,0,0-.311.052c-.122.028-.268.061-.428.089a1.157,1.157,0,0,1-.391.028.428.428,0,0,1-.273-.118.6.6,0,0,1-.16-.292,1.784,1.784,0,0,1-.056-.494,2.3,2.3,0,0,1,.089-.616,2.677,2.677,0,0,1,.245-.583,2.442,2.442,0,0,1,.372-.5,1.882,1.882,0,0,1,.442-.381Z" fill="#fafafa"/>
          <path id="Path_9384" data-name="Path 9384" d="M171.007,94.639l-.381,2.254a.91.91,0,0,1-.056.2.24.24,0,0,1-.1.122l-.358.207c-.047.028-.08.028-.1,0a.231.231,0,0,1-.052-.136l-.565-3.976v-.052a.357.357,0,0,1,.038-.151.24.24,0,0,1,.085-.1l.325-.188a.113.113,0,0,1,.085,0q.042,0,.056.113l.372,2.677.325-2.009a.659.659,0,0,1,.042-.146.249.249,0,0,1,.113-.141l.362-.212c.052-.028.089-.024.113,0a.282.282,0,0,1,.042.1l.329,1.633.372-3.106a.424.424,0,0,1,.052-.174.311.311,0,0,1,.085-.089l.325-.188a.071.071,0,0,1,.085,0,.155.155,0,0,1,.038.113.291.291,0,0,1,0,.056l-.565,4.625a.87.87,0,0,1-.052.2.273.273,0,0,1-.1.122l-.362.207q-.064.035-.1,0a.663.663,0,0,1-.056-.136Z" fill="#fafafa"/>
          <path id="Path_9385" data-name="Path 9385" d="M173.209,92.644a4.854,4.854,0,0,1,.094-.776,3.369,3.369,0,0,1,.245-.725,2.823,2.823,0,0,1,.4-.626,2.127,2.127,0,0,1,.569-.471,1.068,1.068,0,0,1,.56-.184.584.584,0,0,1,.4.165,1.092,1.092,0,0,1,.24.447,2.667,2.667,0,0,1,.1.663v1.223a4.739,4.739,0,0,1-.094.772,3.638,3.638,0,0,1-.24.725,3.008,3.008,0,0,1-.4.626,2.225,2.225,0,0,1-.565.471,1.12,1.12,0,0,1-.569.184.541.541,0,0,1-.4-.16.993.993,0,0,1-.245-.471,3,3,0,0,1-.094-.663q0-.127,0-.282v-.649C173.209,92.8,173.2,92.729,173.209,92.644Zm2-1.125a.856.856,0,0,0-.207-.64.419.419,0,0,0-.494,0,1.233,1.233,0,0,0-.5.555,2.056,2.056,0,0,0-.207.88v1.148a.856.856,0,0,0,.207.64c.122.1.292.094.5-.024a1.261,1.261,0,0,0,.494-.551,2.033,2.033,0,0,0,.207-.875V92.07C175.214,91.858,175.218,91.689,175.214,91.519Z" fill="#fafafa"/>
          <path id="Path_9386" data-name="Path 9386" d="M177.863,88.169c.372-.212.649-.245.842-.089a1.153,1.153,0,0,1,.287.941,2.884,2.884,0,0,1-.146.941,2.352,2.352,0,0,1-.438.772l.612,1.332a.368.368,0,0,1,0,.066.273.273,0,0,1-.028.122.183.183,0,0,1-.066.085l-.376.216c-.061.033-.1.038-.132,0a.32.32,0,0,1-.061-.085l-.579-1.256-.588.339v1.59a.348.348,0,0,1-.033.151.278.278,0,0,1-.085.1l-.358.207a.066.066,0,0,1-.085,0,.141.141,0,0,1-.038-.108V89.1a.357.357,0,0,1,.038-.151.216.216,0,0,1,.085-.1ZM177.2,90.7l.663-.358a1.186,1.186,0,0,0,.4-.372,1.063,1.063,0,0,0,.151-.6c0-.254-.052-.4-.151-.423a.555.555,0,0,0-.4.1l-.64.367Z" fill="#fafafa"/>
          <path id="Path_9387" data-name="Path 9387" d="M181.015,86.358a1.247,1.247,0,0,1,.569-.2.565.565,0,0,1,.4.146.988.988,0,0,1,.249.471,2.992,2.992,0,0,1,.1.715V88.5a4.7,4.7,0,0,1-.1.833,3.491,3.491,0,0,1-.245.739,2.776,2.776,0,0,1-.4.6,2.164,2.164,0,0,1-.555.471l-1.115.607a.066.066,0,0,1-.085,0,.136.136,0,0,1-.038-.108v-4.4a.357.357,0,0,1,.038-.151.216.216,0,0,1,.085-.1Zm.725,1.463a1.44,1.44,0,0,0-.056-.376.513.513,0,0,0-.136-.245.306.306,0,0,0-.226-.089.668.668,0,0,0-.329.113l-.593.339V90.63l.616-.353a1.224,1.224,0,0,0,.315-.263,1.615,1.615,0,0,0,.221-.339,1.938,1.938,0,0,0,.132-.4,2.351,2.351,0,0,0,.056-.442c.014-.343.014-.678,0-1.007Z" fill="#fafafa"/>
        </g>
      </g>
      <g id="freepik--question-marks--inject-2">
        <g id="freepik--question-marks--inject-2-2" data-name="freepik--question-marks--inject-2">
          <path id="Path_9388" data-name="Path 9388" d="M116.4,18.064a8.827,8.827,0,0,1,2.324.875,6.677,6.677,0,0,1,1.849,1.468,5.3,5.3,0,0,1,1.092,1.976,4.705,4.705,0,0,1,.047,2.4,4.875,4.875,0,0,1-.729,1.75,5.953,5.953,0,0,1-1.148,1.2,9.153,9.153,0,0,1-1.369.88l-1.355.72a7.415,7.415,0,0,0-1.158.748,2.221,2.221,0,0,0-.725.974,1.035,1.035,0,0,1-.343.442.6.6,0,0,1-.518.108l-2-.442a.739.739,0,0,1-.471-.325.607.607,0,0,1-.089-.541,4.762,4.762,0,0,1,.833-1.7,6.644,6.644,0,0,1,1.223-1.19,9.837,9.837,0,0,1,1.412-.861c.471-.24.941-.471,1.35-.7a6.117,6.117,0,0,0,1.068-.729,1.7,1.7,0,0,0,.569-.941,2.033,2.033,0,0,0-.471-1.826,3.647,3.647,0,0,0-2.089-1.134,3.513,3.513,0,0,0-3.764,1.5,1.444,1.444,0,0,1-.367.372.692.692,0,0,1-.522.038l-2.122-.471a.583.583,0,0,1-.372-.245.574.574,0,0,1-.08-.471,4.207,4.207,0,0,1,.979-1.75,6.554,6.554,0,0,1,1.83-1.412,7.91,7.91,0,0,1,2.4-.8,7.011,7.011,0,0,1,2.706.089Zm-2.254,15.142a.734.734,0,0,1,.551.866l-.508,2.306a.7.7,0,0,1-.32.471.687.687,0,0,1-.546.1l-2.277-.522a.682.682,0,0,1-.471-.32.7.7,0,0,1-.1-.546l.513-2.306a.739.739,0,0,1,.866-.555Z" fill="#005d8d"/>
          <path id="Path_9389" data-name="Path 9389" d="M118.914,40.137a6.145,6.145,0,0,1,1.713-.033,4.705,4.705,0,0,1,1.562.471,3.764,3.764,0,0,1,1.2.988,3.562,3.562,0,0,1,.621,2.823,3.938,3.938,0,0,1-.428,1.068,5.943,5.943,0,0,1-.649.913c-.24.282-.471.551-.682.809a5.109,5.109,0,0,0-.551.776,1.454,1.454,0,0,0-.216.8.8.8,0,0,1-.108.376.442.442,0,0,1-.306.2l-1.412.226a.5.5,0,0,1-.381-.085.414.414,0,0,1-.193-.325,3.2,3.2,0,0,1,.094-1.308,4.616,4.616,0,0,1,.471-1.073,6.243,6.243,0,0,1,.678-.908c.249-.282.471-.546.687-.8a4,4,0,0,0,.5-.739,1.181,1.181,0,0,0,.127-.743,1.412,1.412,0,0,0-.776-1.049,2.536,2.536,0,0,0-1.628-.2,2.437,2.437,0,0,0-2.037,1.934,1.063,1.063,0,0,1-.141.334.5.5,0,0,1-.32.155l-1.487.24a.4.4,0,0,1-.3-.061.386.386,0,0,1-.165-.273A2.823,2.823,0,0,1,115,43.289a4.512,4.512,0,0,1,.809-1.374,5.534,5.534,0,0,1,1.336-1.129,4.9,4.9,0,0,1,1.769-.649Zm2.428,10.281a.5.5,0,0,1,.372.089.471.471,0,0,1,.207.325l.263,1.614a.5.5,0,0,1-.414.574l-1.576.259a.5.5,0,0,1-.372-.089.471.471,0,0,1-.2-.325l-.263-1.614a.5.5,0,0,1,.414-.574Z" fill="#005d8d"/>
          <g id="Group_2949" data-name="Group 2949" opacity="0.2">
            <path id="Path_9390" data-name="Path 9390" d="M118.914,40.137a6.145,6.145,0,0,1,1.713-.033,4.705,4.705,0,0,1,1.562.471,3.764,3.764,0,0,1,1.2.988,3.562,3.562,0,0,1,.621,2.823,3.938,3.938,0,0,1-.428,1.068,5.943,5.943,0,0,1-.649.913c-.24.282-.471.551-.682.809a5.109,5.109,0,0,0-.551.776,1.454,1.454,0,0,0-.216.8.8.8,0,0,1-.108.376.442.442,0,0,1-.306.2l-1.412.226a.5.5,0,0,1-.381-.085.414.414,0,0,1-.193-.325,3.2,3.2,0,0,1,.094-1.308,4.616,4.616,0,0,1,.471-1.073,6.243,6.243,0,0,1,.678-.908c.249-.282.471-.546.687-.8a4,4,0,0,0,.5-.739,1.181,1.181,0,0,0,.127-.743,1.412,1.412,0,0,0-.776-1.049,2.536,2.536,0,0,0-1.628-.2,2.437,2.437,0,0,0-2.037,1.934,1.063,1.063,0,0,1-.141.334.5.5,0,0,1-.32.155l-1.487.24a.4.4,0,0,1-.3-.061.386.386,0,0,1-.165-.273A2.823,2.823,0,0,1,115,43.289a4.512,4.512,0,0,1,.809-1.374,5.534,5.534,0,0,1,1.336-1.129,4.9,4.9,0,0,1,1.769-.649Zm2.428,10.281a.5.5,0,0,1,.372.089.471.471,0,0,1,.207.325l.263,1.614a.5.5,0,0,1-.414.574l-1.576.259a.5.5,0,0,1-.372-.089.471.471,0,0,1-.2-.325l-.263-1.614a.5.5,0,0,1,.414-.574Z"/>
          </g>
          <path id="Path_9391" data-name="Path 9391" d="M132.221,42.673a.574.574,0,0,1,.24.386.565.565,0,0,1-.1.442l-1.12,1.576a.574.574,0,0,1-.386.24.565.565,0,0,1-.442-.1l-1.543-1.1a.55.55,0,0,1-.235-.386.565.565,0,0,1,.1-.442l1.134-1.576a.6.6,0,0,1,.828-.141ZM138.733,32a6.945,6.945,0,0,1,1.487,1.412,5.436,5.436,0,0,1,.941,1.694,4.334,4.334,0,0,1,.193,1.835,3.835,3.835,0,0,1-.725,1.821,3.882,3.882,0,0,1-1.11,1.082,4.635,4.635,0,0,1-1.247.546,7.85,7.85,0,0,1-1.308.226l-1.252.113a6.117,6.117,0,0,0-1.11.193,1.816,1.816,0,0,0-.885.489.833.833,0,0,1-.4.226.471.471,0,0,1-.423-.085l-1.365-.969a.621.621,0,0,1-.249-.391.5.5,0,0,1,.108-.438,3.91,3.91,0,0,1,1.172-1.016,5.374,5.374,0,0,1,1.3-.5,7.731,7.731,0,0,1,1.332-.2q.663-.042,1.242-.1a4.9,4.9,0,0,0,1.04-.207,1.412,1.412,0,0,0,.725-.551,1.67,1.67,0,0,0,.221-1.529,2.988,2.988,0,0,0-1.209-1.52,2.886,2.886,0,0,0-3.327-.071,1.176,1.176,0,0,1-.4.16.555.555,0,0,1-.4-.136l-1.449-1.03a.465.465,0,0,1-.113-.673,3.393,3.393,0,0,1,1.294-1.012,5.472,5.472,0,0,1,1.826-.471,6.409,6.409,0,0,1,2.07.165A5.646,5.646,0,0,1,138.733,32Z" fill="#005d8d"/>
          <g id="Group_2950" data-name="Group 2950" opacity="0.6">
            <path id="Path_9392" data-name="Path 9392" d="M132.221,42.673a.574.574,0,0,1,.24.386.565.565,0,0,1-.1.442l-1.12,1.576a.574.574,0,0,1-.386.24.565.565,0,0,1-.442-.1l-1.543-1.1a.55.55,0,0,1-.235-.386.565.565,0,0,1,.1-.442l1.134-1.576a.6.6,0,0,1,.828-.141ZM138.733,32a6.945,6.945,0,0,1,1.487,1.412,5.436,5.436,0,0,1,.941,1.694,4.334,4.334,0,0,1,.193,1.835,3.835,3.835,0,0,1-.725,1.821,3.882,3.882,0,0,1-1.11,1.082,4.635,4.635,0,0,1-1.247.546,7.85,7.85,0,0,1-1.308.226l-1.252.113a6.117,6.117,0,0,0-1.11.193,1.816,1.816,0,0,0-.885.489.833.833,0,0,1-.4.226.471.471,0,0,1-.423-.085l-1.365-.969a.621.621,0,0,1-.249-.391.5.5,0,0,1,.108-.438,3.91,3.91,0,0,1,1.172-1.016,5.374,5.374,0,0,1,1.3-.5,7.731,7.731,0,0,1,1.332-.2q.663-.042,1.242-.1a4.9,4.9,0,0,0,1.04-.207,1.412,1.412,0,0,0,.725-.551,1.67,1.67,0,0,0,.221-1.529,2.988,2.988,0,0,0-1.209-1.52,2.886,2.886,0,0,0-3.327-.071,1.176,1.176,0,0,1-.4.16.555.555,0,0,1-.4-.136l-1.449-1.03a.465.465,0,0,1-.113-.673,3.393,3.393,0,0,1,1.294-1.012,5.472,5.472,0,0,1,1.826-.471,6.409,6.409,0,0,1,2.07.165A5.646,5.646,0,0,1,138.733,32Z" fill="#fff"/>
          </g>
        </g>
      </g>
      <g id="freepik--Character--inject-2">
        <g id="freepik--character--inject-2-2" data-name="freepik--character--inject-2">
          <path id="Path_9393" data-name="Path 9393" d="M97.18,84.325H80.462v-40.5A13.264,13.264,0,0,1,93.726,30.557H95.27a13.264,13.264,0,0,1,13.264,13.264V72.994A11.354,11.354,0,0,1,97.18,84.325Z" fill="#263238"/>
          <path id="Path_9394" data-name="Path 9394" d="M78.834,181.834a31.121,31.121,0,0,0-.471,5.082c-.061,3.087-.626,4.183-.7,6.715-.089,2.894.414,3.976,1.586,5.6s4.235,3.1,5.562.353,1.134-4.55.715-7.387c-.428-2.936-.471-4.56-.734-6.795-.216-1.972-.471-3.473-.471-3.473Z" fill="#263238"/>
          <path id="Path_9395" data-name="Path 9395" d="M87.6,161.333l-10.164-.184c.151,6.785,1.228,14.318,1.412,20.7.038,1.2-.028,9.312.423,11.763.682,3.708,5.077,3.2,5.312.988s-.282-11.688-.268-12.667c-.042-4.084,1.882-10.978,2.875-18.309C87.228,163.276,87.548,161.686,87.6,161.333Z" fill="#ffa8a7"/>
          <path id="Path_9396" data-name="Path 9396" d="M100.652,176.555s-.4-.216-.471.212c-.1.508-.249,1.557-.471,2.4a12.308,12.308,0,0,0-.362,4.028c.174.95,2.386,2.164,3.821,2.607a11.641,11.641,0,0,1,4.705,2.8,11.335,11.335,0,0,0,6.588,2.583c2.47,0,4.192-.823,5.007-2.146s-.743-1.482-3.567-3.294l-2.188-1.412c-4.475-2.922-6.117-4.484-7.373-7.406Z" fill="#263238"/>
          <path id="Path_9397" data-name="Path 9397" d="M106.379,174.743c-.075-2.1,1.374-19.937,1.374-19.937l-9.651,4.4c2.066,12.337,2.508,15.25,2.541,17.269h0a1.793,1.793,0,0,0-.052.518c0,2.4,2.715,3.689,4.823,5.289a39.643,39.643,0,0,0,5.708,3.727c1.534.767,4.649.838,5.035-.146a72.735,72.735,0,0,1-8.347-7.138C106.812,177.67,106.454,176.846,106.379,174.743Z" fill="#ffa8a7"/>
          <path id="Path_9398" data-name="Path 9398" d="M81.6,95.124c-3.708,8.136-3.708,14.431-3.091,24.816.546,9.528,1.454,17.927,1.454,17.927-.141,1.689-2.489,4.988-2.795,12.46a153.055,153.055,0,0,0,.471,15.862s5.275,2.922,9.175-.028c0,0,3.764-17.97,4.865-26.712.941-7.627,2.635-17.372,2.635-17.372l3.562,17.32a45.171,45.171,0,0,0-1.666,7.529c-.5,5.143,2.381,15.241,2.381,15.241s5.449,1.623,8.776-1.327c0,0,1.242-16.417,1.708-22.609.621-8.3-.687-30.75-1.708-42.64Z" fill="#455a64"/>
          <path id="Path_9399" data-name="Path 9399" d="M94.319,122.062l1.463-13.053s6.559-.875,9.533-3.67a10.766,10.766,0,0,1-7.731,4.884l-2.117,12.145,2.4,17.029Z" fill="#263238"/>
          <path id="Path_9400" data-name="Path 9400" d="M120.881,91.915a56.631,56.631,0,0,0,.358-7.176c-.146-2.07-.518-2.409-3.411-6.075-3.905-4.955-7.242-9.411-10.771-13.838A8.436,8.436,0,0,0,99.3,61.32c-1.807.1,1.722,8.79,3.5,13.933L112.929,86.16a2.164,2.164,0,0,1,.4,1.492l-.612,9.279L115.757,101S120.354,97.034,120.881,91.915Z" fill="#ffa8a7"/>
          <path id="Path_9401" data-name="Path 9401" d="M89.534,61.6h0c-1.962.136-5.529.471-5.529.471-2.056,1.148-2.579,2.094-2.96,4.823-.165,1.167.786,4.268,1.6,8.677l1.543,8.173L84.019,87.8c-.8,2.475-2.611,5.548-4.211,10.079a30.9,30.9,0,0,0,20.421,3.764c4.555-.588,6.969-1.689,7.773-2.781-.169-4.475-.471-7.242-.565-11.919-.033-1.962.085-3.948.165-6.206a7.282,7.282,0,0,0,1.412-9.411c-3.873-6.272-7.642-10.22-10.135-10.018Z" fill="#005d8d"/>
          <path id="Path_9402" data-name="Path 9402" d="M89.534,61.6h0c-1.962.136-5.529.471-5.529.471-2.056,1.148-2.579,2.094-2.96,4.823-.165,1.167.786,4.268,1.6,8.677l1.543,8.173L84.019,87.8c-.8,2.475-2.611,5.548-4.211,10.079a30.9,30.9,0,0,0,20.421,3.764c4.555-.588,6.969-1.689,7.773-2.781-.169-4.475-.471-7.242-.565-11.919-.033-1.962.085-3.948.165-6.206a7.282,7.282,0,0,0,1.412-9.411c-3.873-6.272-7.642-10.22-10.135-10.018Z" fill="#fff" opacity="0.6"/>
          <path id="Path_9403" data-name="Path 9403" d="M101.518,80.8s-3.585,2.786-7.684,1.332a7.011,7.011,0,0,1-4.705-5.03,6.187,6.187,0,0,0,4.729,6.277A6.784,6.784,0,0,0,101.518,80.8Z" opacity="0.1"/>
          <path id="Path_9404" data-name="Path 9404" d="M106.384,48.752c-.155,6.795-2.353,8.47-3.463,8.94s-3.237.188-5.308-.155v4.1s2.39,2.5,2.212,4.371-3.764,2.08-6.437.249a20.233,20.233,0,0,1-3.967-3.581,1.454,1.454,0,0,1-.343-.941v-9.6s-1.134,1.2-3.138-.174A3.7,3.7,0,0,1,85,46.593a2.748,2.748,0,0,1,4.16.471c.6,1.172.682,2.353,1.355,1.882,1.788-1.289.828-4.235,2.988-5.646h0a15.528,15.528,0,0,1,2.2-.941c3.854-1.332,7.194-2.451,8-5.087C105.217,38.137,106.572,40.739,106.384,48.752Z" fill="#ffa8a7"/>
          <circle id="Ellipse_92" data-name="Ellipse 92" cx="0.894" cy="0.894" r="0.894" transform="translate(97.89 53.034)" fill="#b16668"/>
          <path id="Path_9405" data-name="Path 9405" d="M98.192,47.722a.941.941,0,1,1-.292-.683A.941.941,0,0,1,98.192,47.722Z" fill="#263238"/>
          <path id="Path_9406" data-name="Path 9406" d="M105.32,47.816a.87.87,0,0,1-.809.941.823.823,0,0,1-.9-.847.856.856,0,1,1,1.708-.08Z" fill="#263238"/>
          <path id="Path_9407" data-name="Path 9407" d="M96.982,50.14a3.063,3.063,0,0,1-3.063-3.058c0-2.08,2.146-2.08,3.063-2.08s3.058,0,3.058,2.08a3.063,3.063,0,0,1-3.058,3.058Zm0-4.658c-1.882,0-2.579.471-2.579,1.6a2.588,2.588,0,1,0,5.176,0c-.019-1.153-.743-1.6-2.6-1.6Z" fill="#455a64"/>
          <path id="Path_9408" data-name="Path 9408" d="M104.751,50.14a3.063,3.063,0,0,1-3.063-3.058c0-2.08,2.146-2.08,3.063-2.08s3.058,0,3.058,2.08a3.063,3.063,0,0,1-3.058,3.058Zm0-4.658c-1.854,0-2.579.471-2.579,1.6a2.588,2.588,0,1,0,5.176,0c-.019-1.153-.743-1.6-2.6-1.6Z" fill="#455a64"/>
          <path id="Path_9409" data-name="Path 9409" d="M100.516,46.094l.151,5.717,3.007-.932Z" fill="#f28f8f"/>
          <path id="Path_9410" data-name="Path 9410" d="M97.608,57.551c-2.183-.287-6.677-1.576-7.378-3.355a4.625,4.625,0,0,0,1.576,2.268c1.341,1.153,5.8,2.447,5.8,2.447Z" fill="#f28f8f"/>
          <path id="Path_9411" data-name="Path 9411" d="M97.716,43.318l-2,1.219a1.228,1.228,0,0,1,.4-1.647,1.139,1.139,0,0,1,1.59.428Z" fill="#263238"/>
          <path id="Path_9412" data-name="Path 9412" d="M105.833,44.673l-2.221-.776a1.125,1.125,0,0,1,1.459-.743,1.233,1.233,0,0,1,.762,1.52Z" fill="#263238"/>
          <path id="Path_9413" data-name="Path 9413" d="M99.8,47.327a.24.24,0,0,1-.24-.245c0-.391.772-.645,1.468-.645s1.143.254,1.143.645a.245.245,0,0,1-.471,0c0-.047-.24-.165-.659-.165a2.64,2.64,0,0,0-.988.169.24.24,0,0,1-.254.24Z" fill="#455a64"/>
          <path id="Path_9414" data-name="Path 9414" d="M94.168,47.12H94.14l-5.378-.471a2.607,2.607,0,0,0-.88-.574l6.315.583a.245.245,0,0,1,.212.268.24.24,0,0,1-.24.193Z" fill="#455a64"/>
          <path id="Path_9415" data-name="Path 9415" d="M72.086,52.728c1.76-2.353,2.96-4.127,4.564-6.117.913-1.143,1.5-1.962,2.353-3.134.6-.809.941-1.492,1.628-1.741a5.646,5.646,0,0,0,1.962-1.346,11.814,11.814,0,0,0,.941-1.186,17.692,17.692,0,0,1,3.557-3.581c1.412-1.063,2.988-1.882,4.442-2.894.866-.607,1.793-1.614.739-2.555a2.508,2.508,0,0,0-1.125-.541c-2.564-.555-4.795.325-7.3.965a20.634,20.634,0,0,0-3.186,1.078,5.67,5.67,0,0,0-1.412.809,7.448,7.448,0,0,0-1.454,2.08c-1.1,1.957-3.449,3.708-5.1,5.256-1.924,1.812-3.647,3.473-5.844,5.468-1.976,1.8-3.91,3.458-5.722,5.425a2.791,2.791,0,0,0-.743,3.336c1.223,2.513,2.593,3.416,4.235,4.974,2.823,2.7,12.587,10.455,15.819,13.02a5.242,5.242,0,0,1,1.586,2.07l.621,1.435c3.689.678,6.15-4.861,3.1-11.528A7,7,0,0,0,83.5,61.316C79.643,58.507,72.086,52.728,72.086,52.728Z" fill="#ffa8a7"/>
          <path id="Path_9416" data-name="Path 9416" d="M72.086,52.728a9.707,9.707,0,0,1-4.508,3.1s2.353.6,5.576-2.292Z" fill="#f28f8f"/>
          <path id="Path_9417" data-name="Path 9417" d="M119.921,87.007h0l-.6-.518h0a.687.687,0,0,0-.616-.071L112.167,88.2a2.409,2.409,0,0,0-1.468,1.374l-4.705,13.566a.621.621,0,0,0,.085.692h0l.621.536h0a.678.678,0,0,0,.626.075l6.545-1.779a2.409,2.409,0,0,0,1.468-1.374c.941-2.668,3.764-10.9,4.705-13.566C120.156,87.388,120.1,87.134,119.921,87.007Z" fill="#455a64"/>
          <path id="Path_9418" data-name="Path 9418" d="M106.609,103.659l4.705-13.566a2.39,2.39,0,0,1,1.468-1.369l6.531-1.779c.607-.165.941.184.725.776-.941,2.668-3.764,10.9-4.705,13.566a2.409,2.409,0,0,1-1.468,1.374l-6.531,1.8C106.732,104.6,106.407,104.252,106.609,103.659Z" fill="#005d8d"/>
          <path id="Path_9419" data-name="Path 9419" d="M112.072,89.1a2.353,2.353,0,0,0-.762,1L106.6,103.659a.64.64,0,0,0,.066.678l-.583-.5h0a.612.612,0,0,1-.089-.692L110.7,89.581a2.31,2.31,0,0,1,.7-.941Z" fill="#37474f"/>
          <path id="Path_9420" data-name="Path 9420" d="M118.128,93.19c-.471,1.379-2.1,2.3-4.8,2.941s-4.192,3.505-3.764,4.376,4.795,1.685,6.54,1.435,3.5-2.771,4.028-3.553,1.143-6.23.583-6.978a2.122,2.122,0,0,0-1.741-.631Z" fill="#f28f8f"/>
        </g>
      </g>
    </g>
  </g>
</svg>
